<svg width="316" height="457" xmlns="http://www.w3.org/2000/svg" xmlns:xlink="http://www.w3.org/1999/xlink" overflow="hidden"><defs><clipPath id="clip0"><rect x="606" y="1761" width="316" height="457"/></clipPath></defs><g clip-path="url(#clip0)" transform="translate(-606 -1761)"><path d="M763.5 1764 778.964 1765.14 794.427 1765.72 810.464 1768.58 824.782 1772.58 838.527 1777.16 851.127 1781.74 863.155 1788.03 874.036 1794.33 884.345 1801.77 893.509 1809.78 908.4 1826.94 917.564 1846.4 919.854 1856.13 921 1867 919.854 1877.3 913.554 1897.33 901.527 1916.21 893.509 1924.79 884.345 1932.81 874.036 1940.24 863.155 1946.54 851.127 1952.83 838.527 1957.41 824.782 1961.99 810.464 1965.42 794.427 1968.28 778.964 1969.43 763.5 1970 746.891 1969.43 731.427 1968.28 716.536 1965.42 702.218 1961.99 688.473 1957.41 675.873 1952.83 663.845 1946.54 651.818 1940.24 641.509 1932.81 632.346 1924.79 618.6 1907.06 608.864 1888.17 607.146 1877.3 606 1867 607.146 1856.13 613.445 1836.1 625.473 1817.79 632.346 1809.78 641.509 1801.77 651.818 1794.33 663.845 1788.03 675.873 1781.74 688.473 1777.16 702.218 1772.58 716.536 1768.58 731.427 1765.72 746.891 1765.14 763.5 1764Z" fill="#A9D18E" fill-rule="evenodd"/><path d="M761.213 1766 776.707 1767.15 792.2 1768.29 807.12 1770.58 820.892 1774.59 834.664 1778.03 847.288 1783.75 859.338 1788.91 870.241 1795.21 888.604 1810.09 903.523 1827.27 912.705 1846.74 914.426 1856.48 915 1866.79 914.426 1876.52 908.114 1896.56 896.637 1914.89 879.422 1930.35 870.241 1937.79 859.338 1944.09 847.288 1949.82 834.664 1954.97 820.892 1958.41 807.12 1962.42 792.2 1965.28 776.707 1965.85 761.213 1967 745.72 1965.85 729.652 1965.28 715.307 1962.42 701.535 1958.41 688.337 1954.97 675.712 1949.82 663.662 1944.09 652.759 1937.79 643.004 1930.35 626.363 1914.89 615.46 1896.56 608.574 1876.52 608 1866.79 608.574 1856.48 615.46 1836.44 626.363 1818.11 643.004 1802.65 652.759 1795.21 663.662 1788.91 675.712 1783.75 688.337 1778.03 701.535 1774.59 715.307 1770.58 729.652 1768.29 745.72 1767.15 761.213 1766Z" fill="#A9D18E" fill-rule="evenodd"/><path d="M758.5 1766 774.01 1767.15 788.945 1768.29 803.305 1770.58 817.092 1773.44 830.303 1778.03 842.941 1782.61 853.855 1788.91 864.769 1794.63 875.109 1802.08 890.618 1817.54 902.681 1835.29 908.425 1854.76 909 1864.5 908.425 1874.81 902.681 1893.71 890.618 1912.03 875.109 1927.49 864.769 1933.79 853.855 1940.67 842.941 1946.97 830.303 1951.55 817.092 1956.13 803.305 1958.42 788.945 1961.28 774.01 1962.43 758.5 1963 742.99 1962.43 728.055 1961.28 713.695 1958.42 699.908 1956.13 686.697 1951.55 675.208 1946.97 663.145 1940.67 652.231 1933.79 633.849 1920.62 620.063 1902.87 610.872 1884.54 608.575 1874.81 608 1864.5 608.575 1854.76 614.319 1835.29 626.382 1817.54 643.04 1802.08 652.231 1794.63 663.145 1788.91 675.208 1782.61 686.697 1778.03 699.908 1773.44 713.695 1770.58 728.055 1768.29 742.99 1767.15 758.5 1766Z" fill="#A9D18E" fill-rule="evenodd"/><path d="M755.713 1768 785 1769.72 811.99 1774.89 836.683 1784.07 858.505 1794.98 876.307 1809.9 890.089 1825.4 898.129 1843.77 901 1862.71 898.129 1882.23 890.089 1899.45 876.307 1916.1 858.505 1929.3 836.683 1941.35 811.99 1950.54 785 1956.28 755.713 1958 726.426 1956.28 700.01 1950.54 675.317 1941.35 652.921 1929.3 635.693 1916.1 621.911 1899.45 613.297 1882.23 611 1862.71 613.297 1843.77 621.911 1825.4 635.693 1809.9 652.921 1794.98 675.317 1784.07 700.01 1774.89 726.426 1769.72 755.713 1768Z" fill="#A9D18E" fill-rule="evenodd"/><path d="M750.926 1771 778.485 1772.72 804.322 1778.45 827.288 1785.32 847.383 1796.78 864.034 1809.95 876.091 1824.84 884.129 1841.46 887 1859.21 884.129 1876.97 876.091 1894.16 864.034 1908.48 847.383 1921.65 827.288 1932.53 804.322 1940.55 778.485 1946.28 750.926 1948 723.366 1946.28 698.678 1940.55 675.712 1932.53 655.617 1921.65 638.966 1908.48 626.909 1894.16 618.871 1876.97 616 1859.21 618.871 1841.46 626.909 1824.84 638.966 1809.95 655.617 1796.78 675.712 1785.32 698.678 1778.45 723.366 1772.72 750.926 1771Z" fill="#A9D18E" fill-rule="evenodd"/><path d="M747.573 1775 772.229 1777.29 796.312 1781.86 816.954 1788.71 835.303 1799 850.784 1811.57 862.252 1825.29 869.133 1840.71 872 1857.29 869.133 1873.29 862.252 1888.71 850.784 1902.43 835.303 1914.43 816.954 1924.71 796.312 1932.71 772.229 1937.29 747.573 1939 722.917 1937.29 698.835 1932.71 677.619 1924.71 658.697 1914.43 643.789 1902.43 631.748 1888.71 624.867 1873.29 622 1857.29 624.867 1840.71 631.748 1825.29 643.789 1811.57 658.697 1799 677.619 1788.71 698.835 1781.86 722.917 1777.29 747.573 1775Z" fill="#A9D18E" fill-rule="evenodd"/><path d="M741.713 1781 764.085 1782.72 784.736 1786.15 804.24 1793.6 820.876 1802.18 833.496 1813.06 844.395 1825.66 850.705 1839.4 853 1853.71 850.705 1868.6 844.395 1882.34 833.496 1894.94 820.876 1904.67 804.24 1913.83 784.736 1921.27 764.085 1925.28 741.713 1927 719.915 1925.28 698.69 1921.27 679.186 1913.83 663.124 1904.67 649.93 1894.94 639.031 1882.34 632.721 1868.6 631 1853.71 632.721 1839.4 639.031 1825.66 649.93 1813.06 663.124 1802.18 679.186 1793.6 698.69 1786.15 719.915 1782.72 741.713 1781Z" fill="#A9D18E" fill-rule="evenodd"/><path d="M764 1764.5 779.464 1765.64 794.927 1766.22 810.964 1769.08 825.282 1773.08 839.027 1777.66 851.627 1782.24 863.655 1788.53 874.536 1794.83 884.846 1802.27 894.009 1810.28 908.9 1827.44 918.064 1846.9 920.355 1856.63 921.5 1867.5 920.355 1877.8 914.055 1897.83 902.027 1916.71 894.009 1925.29 884.846 1933.31 874.536 1940.74 863.655 1947.04 851.627 1953.33 839.027 1957.91 825.282 1962.49 810.964 1965.92 794.927 1968.78 779.464 1969.93 764 1970.5 747.391 1969.93 731.927 1968.78 717.036 1965.92 702.718 1962.49 688.973 1957.91 676.373 1953.33 664.345 1947.04 652.318 1940.74 642.009 1933.31 632.845 1925.29 619.1 1907.56 609.364 1888.67 607.645 1877.8 606.5 1867.5 607.645 1856.63 613.945 1836.6 625.973 1818.29 632.845 1810.28 642.009 1802.27 652.318 1794.83 664.345 1788.53 676.373 1782.24 688.973 1777.66 702.718 1773.08 717.036 1769.08 731.927 1766.22 747.391 1765.64 764 1764.5" stroke="#000000" stroke-width="0" stroke-linejoin="round" stroke-miterlimit="10" fill="none" fill-rule="evenodd"/><path d="M0 0 0.000360892 5.00016" stroke="#000000" stroke-width="0" stroke-linejoin="round" stroke-miterlimit="10" fill="none" fill-rule="evenodd" transform="matrix(1 0 0 -1 768.5 1766.5)"/><path d="M0 0 0.000360892 5.00016" stroke="#000000" stroke-width="0" stroke-linejoin="round" stroke-miterlimit="10" fill="none" fill-rule="evenodd" transform="matrix(1 0 0 -1 759.5 1766.5)"/><path d="M0 0 0.000360892 5.00016" stroke="#000000" stroke-width="0" stroke-linejoin="round" stroke-miterlimit="10" fill="none" fill-rule="evenodd" transform="matrix(1 0 0 -1 777.5 1766.5)"/><path d="M0 0 0.000360892 5.00016" stroke="#000000" stroke-width="0" stroke-linejoin="round" stroke-miterlimit="10" fill="none" fill-rule="evenodd" transform="matrix(1 0 0 -1 748.5 1766.5)"/><path d="M745.5 1761.5 780.5 1761.5" stroke="#000000" stroke-width="0" stroke-linejoin="round" stroke-miterlimit="10" fill="none" fill-rule="evenodd"/><path d="M745.5 1763.5 780.5 1763.5" stroke="#000000" stroke-width="0" stroke-linejoin="round" stroke-miterlimit="10" fill="none" fill-rule="evenodd"/><path d="M738.5 1978.5 738.5 2217.5" stroke="#CCCCCC" stroke-width="0" stroke-linejoin="round" stroke-miterlimit="10" fill="none" fill-rule="evenodd"/><path d="M731.188 2195.75 731.188 1970 752 1970 752 2217 725 2217 731.188 2195.75Z" fill="#FFFFFF" fill-rule="evenodd"/><path d="M720.571 2188.85 720.571 1970 724 1970 724 2192.3 709.714 2217 692 2217 720.571 2188.85Z" fill="#B2B2B2" fill-rule="evenodd"/><path d="M723.375 2192.3 723.375 1970 730.85 1971.15 730.85 2195.75 732 2217 709 2217 723.375 2192.3Z" fill="#CCCCCC" fill-rule="evenodd"/><rect x="752" y="1967" width="14.9998" height="250" fill="#E5E5E5"/><rect x="767" y="1967" width="13.0001" height="250" fill="#CCCCCC"/><path d="M780 2217 780 1970 791.875 1970 791.875 2195.17 799 2217 780 2217Z" fill="#999999" fill-rule="evenodd"/><path d="M798.698 2217 792 2195.17 792 1970 802.605 1970 802.605 2192.3 816 2217 798.698 2217Z" fill="#666666" fill-rule="evenodd"/><path d="M816.714 2217 803 2191.73 803 1970 806.429 1970 806.429 2188.85 835 2217 816.714 2217Z" fill="#4C4C4C" fill-rule="evenodd"/><path d="M721.1 1974.5 721.1 2189.35 692.5 2217.5 835.5 2217.5 806.9 2189.35 806.9 1974.5" stroke="#000000" stroke-width="0" stroke-linejoin="round" stroke-miterlimit="10" fill="none" fill-rule="evenodd"/><path d="M0 0 25.0001 0.000360892" stroke="#666666" stroke-width="0" stroke-linejoin="round" stroke-miterlimit="10" fill="none" fill-rule="evenodd" transform="matrix(-1 0 0 1 788.5 2103.5)"/><path d="M0 0 22 0.000360892" stroke="#666666" stroke-width="0" stroke-linejoin="round" stroke-miterlimit="10" fill="none" fill-rule="evenodd" transform="matrix(-1 0 0 1 773.5 2110.5)"/><path d="M0 0 29.9999 0.000360892" stroke="#666666" stroke-width="0" stroke-linejoin="round" stroke-miterlimit="10" fill="none" fill-rule="evenodd" transform="matrix(-1 0 0 1 799.5 2127.5)"/><path d="M752.5 2192.5 780.5 2192.5" stroke="#666666" stroke-width="0" stroke-linejoin="round" stroke-miterlimit="10" fill="none" fill-rule="evenodd"/><path d="M767.5 2174.5 803.5 2174.5" stroke="#666666" stroke-width="0" stroke-linejoin="round" stroke-miterlimit="10" fill="none" fill-rule="evenodd"/><rect x="713" y="2181" width="99" height="8" fill="#333333"/><rect x="713" y="2181" width="99" height="3.99976" fill="#7F7F7F"/><path d="M728.5 2017.5 773.5 2017.5" stroke="#CCCCCC" stroke-width="0" stroke-linejoin="round" stroke-miterlimit="10" fill="none" fill-rule="evenodd"/><path d="M741.5 2042.5 784.5 2042.5" stroke="#CCCCCC" stroke-width="0" stroke-linejoin="round" stroke-miterlimit="10" fill="none" fill-rule="evenodd"/><path d="M763.573 1764.5 785.359 1766.22 805.997 1773.08 824.343 1782.23 840.395 1794.81 853.581 1810.25 864.474 1827.4 870.78 1846.84 872.5 1867.43 870.78 1888.59 864.474 1907.46 853.581 1925.75 840.395 1941.19 824.343 1953.77 805.997 1962.92 785.359 1969.78 763.573 1971.5 741.788 1969.78 720.576 1962.92 702.23 1953.77 685.605 1941.19 672.992 1925.75 662.099 1907.46 655.22 1888.59 653.5 1867.43 655.22 1846.84 662.099 1827.4 672.992 1810.25 685.605 1794.81 702.23 1782.23 720.576 1773.08 741.788 1766.22 763.573 1764.5" stroke="#CCCCCC" stroke-width="0" stroke-linejoin="round" stroke-miterlimit="10" fill="none" fill-rule="evenodd"/><path d="M763.5 1764.5 772.731 1766.22 788.308 1782.23 795.808 1794.81 801.577 1810.25 805.038 1827.4 807.923 1846.84 808.5 1867.43 807.923 1888.59 805.038 1907.46 801.577 1925.75 795.808 1941.19 788.308 1953.77 772.731 1969.78 763.5 1971.5 754.269 1969.78 738.692 1953.77 731.192 1941.19 725.423 1925.75 721.961 1907.46 719.077 1888.59 718.5 1867.43 719.077 1846.84 721.961 1827.4 725.423 1810.25 731.192 1794.81 738.692 1782.23 754.269 1766.22 763.5 1764.5" stroke="#CCCCCC" stroke-width="0" stroke-linejoin="round" stroke-miterlimit="10" fill="none" fill-rule="evenodd"/><path d="M630.5 1869.5 780.5 1869.5" stroke="#CCCCCC" stroke-width="0" stroke-linejoin="round" stroke-miterlimit="10" fill="none" fill-rule="evenodd"/><path d="M662.5 1851.5 811.5 1851.5" stroke="#CCCCCC" stroke-width="0" stroke-linejoin="round" stroke-miterlimit="10" fill="none" fill-rule="evenodd"/><path d="M648.5 1817.5 712.5 1817.5" stroke="#CCCCCC" stroke-width="0" stroke-linejoin="round" stroke-miterlimit="10" fill="none" fill-rule="evenodd"/><path d="M698.5 1802.5 847.5 1802.5" stroke="#CCCCCC" stroke-width="0" stroke-linejoin="round" stroke-miterlimit="10" fill="none" fill-rule="evenodd"/><path d="M737.5 1887.5 887.5 1887.5" stroke="#CCCCCC" stroke-width="0" stroke-linejoin="round" stroke-miterlimit="10" fill="none" fill-rule="evenodd"/><path d="M662.5 1925.5 783.5 1925.5" stroke="#CCCCCC" stroke-width="0" stroke-linejoin="round" stroke-miterlimit="10" fill="none" fill-rule="evenodd"/><rect x="713" y="1967" width="99" height="7.99988" fill="#333333"/><rect x="713" y="1967" width="99" height="4.00012" fill="#7F7F7F"/></g></svg>