<svg width="316" height="457" xmlns="http://www.w3.org/2000/svg" xmlns:xlink="http://www.w3.org/1999/xlink" overflow="hidden"><defs><clipPath id="clip0"><rect x="935" y="1763" width="316" height="457"/></clipPath></defs><g clip-path="url(#clip0)" transform="translate(-935 -1763)"><path d="M1092.5 1767 1107.96 1768.14 1123.43 1768.72 1139.46 1771.58 1153.78 1775.58 1167.53 1780.16 1180.13 1784.74 1192.15 1791.03 1203.04 1797.33 1213.35 1804.77 1222.51 1812.78 1237.4 1829.94 1246.56 1849.4 1248.85 1859.13 1250 1870 1248.85 1880.3 1242.55 1900.33 1230.53 1919.21 1222.51 1927.79 1213.35 1935.81 1203.04 1943.24 1192.15 1949.54 1180.13 1955.83 1167.53 1960.41 1153.78 1964.99 1139.46 1968.42 1123.43 1971.28 1107.96 1972.43 1092.5 1973 1075.89 1972.43 1060.43 1971.28 1045.54 1968.42 1031.22 1964.99 1017.47 1960.41 1004.87 1955.83 992.845 1949.54 980.818 1943.24 970.509 1935.81 961.345 1927.79 947.6 1910.06 937.864 1891.17 936.145 1880.3 935 1870 936.145 1859.13 942.445 1839.1 954.473 1820.79 961.345 1812.78 970.509 1804.77 980.818 1797.33 992.845 1791.03 1004.87 1784.74 1017.47 1780.16 1031.22 1775.58 1045.54 1771.58 1060.43 1768.72 1075.89 1768.14 1092.5 1767Z" fill="#4C4C4C" fill-rule="evenodd"/><path d="M1090.71 1769 1106.16 1770.15 1121.6 1771.29 1136.47 1773.58 1150.2 1777.59 1163.93 1781.03 1176.51 1786.75 1188.52 1791.91 1199.39 1798.21 1217.69 1813.09 1232.56 1830.27 1241.71 1849.74 1243.43 1859.48 1244 1869.79 1243.43 1879.52 1237.14 1899.56 1225.7 1917.89 1208.54 1933.35 1199.39 1940.79 1188.52 1947.09 1176.51 1952.82 1163.93 1957.97 1150.2 1961.41 1136.47 1965.42 1121.6 1968.28 1106.16 1968.85 1090.71 1970 1075.27 1968.85 1059.26 1968.28 1044.96 1965.42 1031.23 1961.41 1018.07 1957.97 1005.49 1952.82 993.48 1947.09 982.613 1940.79 972.89 1933.35 956.303 1917.89 945.436 1899.56 938.572 1879.52 938 1869.79 938.572 1859.48 945.436 1839.44 956.303 1821.11 972.89 1805.65 982.613 1798.21 993.48 1791.91 1005.49 1786.75 1018.07 1781.03 1031.23 1777.59 1044.96 1773.58 1059.26 1771.29 1075.27 1770.15 1090.71 1769Z" fill="#FF5353" fill-rule="evenodd"/><path d="M1088 1769 1103.46 1770.15 1118.34 1771.29 1132.66 1773.58 1146.4 1776.44 1159.56 1781.03 1172.16 1785.61 1183.04 1791.91 1193.92 1797.63 1204.22 1805.08 1219.68 1820.54 1231.7 1838.29 1237.43 1857.76 1238 1867.5 1237.43 1877.81 1231.7 1896.71 1219.68 1915.03 1204.22 1930.49 1193.92 1936.79 1183.04 1943.67 1172.16 1949.96 1159.56 1954.55 1146.4 1959.13 1132.66 1961.42 1118.34 1964.28 1103.46 1965.43 1088 1966 1072.54 1965.43 1057.66 1964.28 1043.34 1961.42 1029.6 1959.13 1016.44 1954.55 1004.98 1949.96 992.962 1943.67 982.084 1936.79 963.763 1923.62 950.023 1905.87 940.863 1887.54 938.573 1877.81 938 1867.5 938.573 1857.76 944.298 1838.29 956.321 1820.54 972.924 1805.08 982.084 1797.63 992.962 1791.91 1004.98 1785.61 1016.44 1781.03 1029.6 1776.44 1043.34 1773.58 1057.66 1771.29 1072.54 1770.15 1088 1769Z" fill="#FF5353" fill-rule="evenodd"/><path d="M1085.21 1771 1114.4 1772.72 1141.3 1777.89 1165.9 1787.07 1187.65 1797.98 1205.39 1812.9 1219.13 1828.4 1227.14 1846.77 1230 1865.71 1227.14 1885.23 1219.13 1902.45 1205.39 1919.1 1187.65 1932.3 1165.9 1944.35 1141.3 1953.54 1114.4 1959.28 1085.21 1961 1056.03 1959.28 1029.7 1953.54 1005.09 1944.35 982.776 1932.3 965.608 1919.1 951.873 1902.45 943.289 1885.23 941 1865.71 943.289 1846.77 951.873 1828.4 965.608 1812.9 982.776 1797.98 1005.09 1787.07 1029.7 1777.89 1056.03 1772.72 1085.21 1771Z" fill="#FF5353" fill-rule="evenodd"/><path d="M1080.43 1774 1107.89 1775.72 1133.63 1781.45 1156.51 1788.32 1176.53 1799.78 1193.12 1812.95 1205.13 1827.84 1213.14 1844.46 1216 1862.21 1213.14 1879.97 1205.13 1897.16 1193.12 1911.48 1176.53 1924.65 1156.51 1935.53 1133.63 1943.55 1107.89 1949.28 1080.43 1951 1052.97 1949.28 1028.37 1943.55 1005.49 1935.53 985.47 1924.65 968.881 1911.48 956.869 1897.16 948.86 1879.97 946 1862.21 948.86 1844.46 956.869 1827.84 968.881 1812.95 985.47 1799.78 1005.49 1788.32 1028.37 1781.45 1052.97 1775.72 1080.43 1774Z" fill="#FF5353" fill-rule="evenodd"/><path d="M1077.07 1778 1101.63 1780.29 1125.61 1784.86 1146.17 1791.71 1164.45 1802 1179.87 1814.57 1191.29 1828.29 1198.14 1843.71 1201 1860.29 1198.14 1876.29 1191.29 1891.71 1179.87 1905.43 1164.45 1917.43 1146.17 1927.71 1125.61 1935.71 1101.63 1940.29 1077.07 1942 1052.51 1940.29 1028.53 1935.71 1007.4 1927.71 988.55 1917.43 973.702 1905.43 961.709 1891.71 954.855 1876.29 952 1860.29 954.855 1843.71 961.709 1828.29 973.702 1814.57 988.55 1802 1007.4 1791.71 1028.53 1784.86 1052.51 1780.29 1077.07 1778Z" fill="#FF5353" fill-rule="evenodd"/><path d="M1071.71 1783 1094.09 1784.73 1114.74 1788.19 1134.24 1795.68 1150.88 1804.33 1163.5 1815.28 1174.4 1827.96 1180.71 1841.8 1183 1856.21 1180.71 1871.2 1174.4 1885.04 1163.5 1897.72 1150.88 1907.52 1134.24 1916.74 1114.74 1924.24 1094.09 1928.27 1071.71 1930 1049.91 1928.27 1028.69 1924.24 1009.19 1916.74 993.124 1907.52 979.93 1897.72 969.031 1885.04 962.721 1871.2 961 1856.21 962.721 1841.8 969.031 1827.96 979.93 1815.28 993.124 1804.33 1009.19 1795.68 1028.69 1788.19 1049.91 1784.73 1071.71 1783Z" fill="#FF5353" fill-rule="evenodd"/><path d="M1093 1767.5 1108.46 1768.64 1123.93 1769.22 1139.96 1772.08 1154.28 1776.08 1168.03 1780.66 1180.63 1785.24 1192.65 1791.53 1203.54 1797.83 1213.85 1805.27 1223.01 1813.28 1237.9 1830.44 1247.06 1849.9 1249.35 1859.63 1250.5 1870.5 1249.35 1880.8 1243.05 1900.83 1231.03 1919.71 1223.01 1928.29 1213.85 1936.31 1203.54 1943.74 1192.65 1950.04 1180.63 1956.33 1168.03 1960.91 1154.28 1965.49 1139.96 1968.92 1123.93 1971.78 1108.46 1972.93 1093 1973.5 1076.39 1972.93 1060.93 1971.78 1046.04 1968.92 1031.72 1965.49 1017.97 1960.91 1005.37 1956.33 993.345 1950.04 981.318 1943.74 971.009 1936.31 961.845 1928.29 948.1 1910.56 938.363 1891.67 936.645 1880.8 935.5 1870.5 936.645 1859.63 942.945 1839.6 954.973 1821.29 961.845 1813.28 971.009 1805.27 981.318 1797.83 993.345 1791.53 1005.37 1785.24 1017.97 1780.66 1031.72 1776.08 1046.04 1772.08 1060.93 1769.22 1076.39 1768.64 1093 1767.5" stroke="#000000" stroke-width="0" stroke-linejoin="round" stroke-miterlimit="10" fill="#FF5353" fill-rule="evenodd"/><path d="M0 0 0.000360892 6.0002" stroke="#000000" stroke-width="0" stroke-linejoin="round" stroke-miterlimit="10" fill="none" fill-rule="evenodd" transform="matrix(1 0 0 -1 1097.5 1769.5)"/><path d="M0 0 0.000360892 6.0002" stroke="#000000" stroke-width="0" stroke-linejoin="round" stroke-miterlimit="10" fill="none" fill-rule="evenodd" transform="matrix(1 0 0 -1 1088.5 1769.5)"/><path d="M0 0 0.000360892 6.0002" stroke="#000000" stroke-width="0" stroke-linejoin="round" stroke-miterlimit="10" fill="none" fill-rule="evenodd" transform="matrix(1 0 0 -1 1106.5 1769.5)"/><path d="M0 0 0.000360892 6.0002" stroke="#000000" stroke-width="0" stroke-linejoin="round" stroke-miterlimit="10" fill="none" fill-rule="evenodd" transform="matrix(1 0 0 -1 1078.5 1769.5)"/><path d="M1074.5 1763.5 1110.5 1763.5" stroke="#000000" stroke-width="0" stroke-linejoin="round" stroke-miterlimit="10" fill="none" fill-rule="evenodd"/><path d="M1074.5 1766.5 1110.5 1766.5" stroke="#000000" stroke-width="0" stroke-linejoin="round" stroke-miterlimit="10" fill="none" fill-rule="evenodd"/><path d="M1068.5 1981.5 1068.5 2219.5" stroke="#CCCCCC" stroke-width="0" stroke-linejoin="round" stroke-miterlimit="10" fill="none" fill-rule="evenodd"/><path d="M1060.42 2197.83 1060.42 1973 1082 1973 1082 2219 1054 2219 1060.42 2197.83Z" fill="#FFFFFF" fill-rule="evenodd"/><path d="M1049.57 2190.97 1049.57 1973 1053 1973 1053 2194.4 1038.71 2219 1021 2219 1049.57 2190.97Z" fill="#B2B2B2" fill-rule="evenodd"/><path d="M1053.37 2194.4 1053.37 1973 1060.85 1974.14 1060.85 2197.83 1062 2219 1039 2219 1053.37 2194.4Z" fill="#CCCCCC" fill-rule="evenodd"/><rect x="1082" y="1970" width="13.9998" height="249" fill="#E5E5E5"/><rect x="1096" y="1970" width="14.0001" height="249" fill="#CCCCCC"/><path d="M1110 2219 1110 1973 1121.25 1973 1121.25 2197.26 1128 2219 1110 2219Z" fill="#999999" fill-rule="evenodd"/><path d="M1127.98 2219 1121 2197.26 1121 1973 1132.05 1973 1132.05 2194.4 1146 2219 1127.98 2219Z" fill="#666666" fill-rule="evenodd"/><path d="M1145.71 2219 1132 2193.83 1132 1973 1135.43 1973 1135.43 2190.97 1164 2219 1145.71 2219Z" fill="#4C4C4C" fill-rule="evenodd"/><path d="M1050.1 1977.5 1050.1 2191.47 1021.5 2219.5 1164.5 2219.5 1135.9 2191.47 1135.9 1977.5" stroke="#000000" stroke-width="0" stroke-linejoin="round" stroke-miterlimit="10" fill="none" fill-rule="evenodd"/><path d="M0 0 24.0001 0.000360892" stroke="#666666" stroke-width="0" stroke-linejoin="round" stroke-miterlimit="10" fill="none" fill-rule="evenodd" transform="matrix(-1 0 0 1 1117.5 2105.5)"/><path d="M0 0 22 0.000360892" stroke="#666666" stroke-width="0" stroke-linejoin="round" stroke-miterlimit="10" fill="none" fill-rule="evenodd" transform="matrix(-1 0 0 1 1103.5 2113.5)"/><path d="M0 0 28.9999 0.000360892" stroke="#666666" stroke-width="0" stroke-linejoin="round" stroke-miterlimit="10" fill="none" fill-rule="evenodd" transform="matrix(-1 0 0 1 1128.5 2130.5)"/><path d="M1082.5 2195.5 1110.5 2195.5" stroke="#666666" stroke-width="0" stroke-linejoin="round" stroke-miterlimit="10" fill="none" fill-rule="evenodd"/><path d="M1096.5 2177.5 1132.5 2177.5" stroke="#666666" stroke-width="0" stroke-linejoin="round" stroke-miterlimit="10" fill="none" fill-rule="evenodd"/><rect x="1042" y="2184" width="100" height="7.00024" fill="#333333"/><rect x="1042" y="2184" width="100" height="3" fill="#7F7F7F"/><path d="M1057.5 2020.5 1103.5 2020.5" stroke="#CCCCCC" stroke-width="0" stroke-linejoin="round" stroke-miterlimit="10" fill="none" fill-rule="evenodd"/><path d="M1071.5 2045.5 1114.5 2045.5" stroke="#CCCCCC" stroke-width="0" stroke-linejoin="round" stroke-miterlimit="10" fill="none" fill-rule="evenodd"/><path d="M1093.07 1767.5 1114.76 1769.22 1135.3 1776.08 1153.56 1785.23 1169.54 1797.81 1182.67 1813.25 1193.51 1830.4 1199.79 1849.84 1201.5 1870.43 1199.79 1891.59 1193.51 1910.46 1182.67 1928.75 1169.54 1944.19 1153.56 1956.77 1135.3 1965.92 1114.76 1972.78 1093.07 1974.5 1071.38 1972.78 1050.27 1965.92 1032.01 1956.77 1015.46 1944.19 1002.9 1928.75 992.06 1910.46 985.212 1891.59 983.5 1870.43 985.212 1849.84 992.06 1830.4 1002.9 1813.25 1015.46 1797.81 1032.01 1785.23 1050.27 1776.08 1071.38 1769.22 1093.07 1767.5" stroke="#CCCCCC" stroke-width="0" stroke-linejoin="round" stroke-miterlimit="10" fill="none" fill-rule="evenodd"/><path d="M1093 1767.5 1102.13 1769.22 1117.53 1785.23 1124.95 1797.81 1130.65 1813.25 1134.08 1830.4 1136.93 1849.84 1137.5 1870.43 1136.93 1891.59 1134.08 1910.46 1130.65 1928.75 1124.95 1944.19 1117.53 1956.77 1102.13 1972.78 1093 1974.5 1083.87 1972.78 1068.47 1956.77 1061.05 1944.19 1055.35 1928.75 1051.92 1910.46 1049.07 1891.59 1048.5 1870.43 1049.07 1849.84 1051.92 1830.4 1055.35 1813.25 1061.05 1797.81 1068.47 1785.23 1083.87 1769.22 1093 1767.5" stroke="#CCCCCC" stroke-width="0" stroke-linejoin="round" stroke-miterlimit="10" fill="none" fill-rule="evenodd"/><path d="M960.5 1872.5 1109.5 1872.5" stroke="#CCCCCC" stroke-width="0" stroke-linejoin="round" stroke-miterlimit="10" fill="none" fill-rule="evenodd"/><path d="M991.5 1854.5 1140.5 1854.5" stroke="#CCCCCC" stroke-width="0" stroke-linejoin="round" stroke-miterlimit="10" fill="none" fill-rule="evenodd"/><path d="M977.5 1820.5 1041.5 1820.5" stroke="#CCCCCC" stroke-width="0" stroke-linejoin="round" stroke-miterlimit="10" fill="none" fill-rule="evenodd"/><path d="M1027.5 1805.5 1177.5 1805.5" stroke="#CCCCCC" stroke-width="0" stroke-linejoin="round" stroke-miterlimit="10" fill="none" fill-rule="evenodd"/><path d="M1067.5 1890.5 1216.5 1890.5" stroke="#CCCCCC" stroke-width="0" stroke-linejoin="round" stroke-miterlimit="10" fill="none" fill-rule="evenodd"/><path d="M991.5 1928.5 1112.5 1928.5" stroke="#CCCCCC" stroke-width="0" stroke-linejoin="round" stroke-miterlimit="10" fill="none" fill-rule="evenodd"/><rect x="1042" y="1970" width="100" height="7.99988" fill="#333333"/><rect x="1042" y="1970" width="100" height="4.00012" fill="#7F7F7F"/></g></svg>