<svg width="343" height="483" xmlns="http://www.w3.org/2000/svg" xmlns:xlink="http://www.w3.org/1999/xlink" overflow="hidden"><defs><clipPath id="clip0"><rect x="243" y="1767" width="343" height="483"/></clipPath></defs><g clip-path="url(#clip0)" transform="translate(-243 -1767)"><path d="M414.5 1784 429.964 1785.14 445.427 1785.72 461.464 1788.58 475.782 1792.58 489.527 1797.16 502.127 1801.74 514.155 1808.03 525.036 1814.33 535.345 1821.77 544.509 1829.78 559.4 1846.94 568.564 1866.4 570.855 1876.13 572 1887 570.855 1897.3 564.555 1917.33 552.527 1936.21 544.509 1944.79 535.345 1952.81 525.036 1960.24 514.155 1966.54 502.127 1972.83 489.527 1977.41 475.782 1981.99 461.464 1985.42 445.427 1988.28 429.964 1989.43 414.5 1990 397.891 1989.43 382.427 1988.28 367.536 1985.42 353.218 1981.99 339.473 1977.41 326.873 1972.83 314.846 1966.54 302.818 1960.24 292.509 1952.81 283.346 1944.79 269.6 1927.06 259.864 1908.17 258.146 1897.3 257 1887 258.146 1876.13 264.446 1856.1 276.473 1837.79 283.346 1829.78 292.509 1821.77 302.818 1814.33 314.846 1808.03 326.873 1801.74 339.473 1797.16 353.218 1792.58 367.536 1788.58 382.427 1785.72 397.891 1785.14 414.5 1784Z" fill="#FFD966" fill-rule="evenodd"/><path d="M412.714 1786 428.157 1787.15 443.6 1788.29 458.471 1790.58 472.198 1794.59 485.925 1798.03 498.509 1803.75 510.52 1808.91 521.387 1815.21 539.69 1830.09 554.561 1847.27 563.712 1866.74 565.428 1876.48 566 1886.79 565.428 1896.52 559.137 1916.56 547.697 1934.89 530.538 1950.35 521.387 1957.79 510.52 1964.09 498.509 1969.82 485.925 1974.97 472.198 1978.41 458.471 1982.42 443.6 1985.28 428.157 1985.85 412.714 1987 397.271 1985.85 381.256 1985.28 366.957 1982.42 353.23 1978.41 340.075 1974.97 327.492 1969.82 315.48 1964.09 304.613 1957.79 294.89 1950.35 278.303 1934.89 267.435 1916.56 260.572 1896.52 260 1886.79 260.572 1876.48 267.435 1856.44 278.303 1838.11 294.89 1822.65 304.613 1815.21 315.48 1808.91 327.492 1803.75 340.075 1798.03 353.23 1794.59 366.957 1790.58 381.256 1788.29 397.271 1787.15 412.714 1786Z" fill="#FFD966" fill-rule="evenodd"/><path d="M410 1786 425.458 1787.15 440.343 1788.29 454.656 1790.58 468.397 1793.44 481.565 1798.03 494.16 1802.61 505.038 1808.91 515.916 1814.63 526.221 1822.08 541.679 1837.54 553.702 1855.29 559.427 1874.76 560 1884.5 559.427 1894.81 553.702 1913.71 541.679 1932.03 526.221 1947.49 515.916 1953.79 505.038 1960.67 494.16 1966.97 481.565 1971.55 468.397 1976.13 454.656 1978.42 440.343 1981.28 425.458 1982.43 410 1983 394.542 1982.43 379.656 1981.28 365.343 1978.42 351.603 1976.13 338.435 1971.55 326.985 1966.97 314.962 1960.67 304.084 1953.79 285.763 1940.62 272.023 1922.87 262.862 1904.54 260.572 1894.81 260 1884.5 260.572 1874.76 266.298 1855.29 278.32 1837.54 294.924 1822.08 304.084 1814.63 314.962 1808.91 326.985 1802.61 338.435 1798.03 351.603 1793.44 365.343 1790.58 379.656 1788.29 394.542 1787.15 410 1786Z" fill="#FFD966" fill-rule="evenodd"/><path d="M406.713 1788 436 1789.72 462.99 1794.89 487.683 1804.07 509.505 1814.98 527.307 1829.9 541.089 1845.4 549.129 1863.77 552 1882.71 549.129 1902.23 541.089 1919.45 527.307 1936.1 509.505 1949.3 487.683 1961.35 462.99 1970.54 436 1976.28 406.713 1978 377.426 1976.28 351.01 1970.54 326.317 1961.35 303.921 1949.3 286.693 1936.1 272.911 1919.45 264.297 1902.23 262 1882.71 264.297 1863.77 272.911 1845.4 286.693 1829.9 303.921 1814.98 326.317 1804.07 351.01 1794.89 377.426 1789.72 406.713 1788Z" fill="#FFD966" fill-rule="evenodd"/><path d="M402.428 1792 429.886 1793.72 455.627 1799.45 478.508 1806.32 498.53 1817.78 515.119 1830.95 527.131 1845.84 535.14 1862.46 538 1880.21 535.14 1897.97 527.131 1915.16 515.119 1929.48 498.53 1942.65 478.508 1953.53 455.627 1961.55 429.886 1967.28 402.428 1969 374.97 1967.28 350.373 1961.55 327.492 1953.53 307.47 1942.65 290.881 1929.48 278.869 1915.16 270.86 1897.97 268 1880.21 270.86 1862.46 278.869 1845.84 290.881 1830.95 307.47 1817.78 327.492 1806.32 350.373 1799.45 374.97 1793.72 402.428 1792Z" fill="#FFD966" fill-rule="evenodd"/><path d="M398.573 1795 423.229 1797.29 447.312 1801.86 467.954 1808.71 486.303 1819 501.784 1831.57 513.252 1845.29 520.133 1860.71 523 1877.29 520.133 1893.29 513.252 1908.71 501.784 1922.43 486.303 1934.43 467.954 1944.71 447.312 1952.71 423.229 1957.29 398.573 1959 373.917 1957.29 349.835 1952.71 328.619 1944.71 309.697 1934.43 294.789 1922.43 282.748 1908.71 275.867 1893.29 273 1877.29 275.867 1860.71 282.748 1845.29 294.789 1831.57 309.697 1819 328.619 1808.71 349.835 1801.86 373.917 1797.29 398.573 1795Z" fill="#FFD966" fill-rule="evenodd"/><path d="M392.713 1801 415.085 1802.72 435.736 1806.15 455.24 1813.6 471.876 1822.18 484.496 1833.06 495.395 1845.66 501.705 1859.4 504 1873.71 501.705 1888.6 495.395 1902.34 484.496 1914.94 471.876 1924.67 455.24 1933.83 435.736 1941.27 415.085 1945.28 392.713 1947 370.915 1945.28 349.69 1941.27 330.186 1933.83 314.124 1924.67 300.93 1914.94 290.031 1902.34 283.721 1888.6 282 1873.71 283.721 1859.4 290.031 1845.66 300.93 1833.06 314.124 1822.18 330.186 1813.6 349.69 1806.15 370.915 1802.72 392.713 1801Z" fill="#FFD966" fill-rule="evenodd"/><path d="M415 1784.5 430.464 1785.64 445.927 1786.22 461.964 1789.08 476.282 1793.08 490.027 1797.66 502.627 1802.24 514.654 1808.53 525.536 1814.83 535.845 1822.27 545.009 1830.28 559.9 1847.44 569.063 1866.9 571.354 1876.63 572.5 1887.5 571.354 1897.8 565.054 1917.83 553.027 1936.71 545.009 1945.29 535.845 1953.31 525.536 1960.74 514.654 1967.04 502.627 1973.33 490.027 1977.91 476.282 1982.49 461.964 1985.92 445.927 1988.78 430.464 1989.93 415 1990.5 398.391 1989.93 382.927 1988.78 368.036 1985.92 353.718 1982.49 339.973 1977.91 327.373 1973.33 315.345 1967.04 303.318 1960.74 293.009 1953.31 283.845 1945.29 270.1 1927.56 260.364 1908.67 258.645 1897.8 257.5 1887.5 258.645 1876.63 264.945 1856.6 276.973 1838.29 283.845 1830.28 293.009 1822.27 303.318 1814.83 315.345 1808.53 327.373 1802.24 339.973 1797.66 353.718 1793.08 368.036 1789.08 382.927 1786.22 398.391 1785.64 415 1784.5" stroke="#000000" stroke-width="0" stroke-linejoin="round" stroke-miterlimit="10" fill="none" fill-rule="evenodd"/><path d="M0 0 0.000360892 4.9998" stroke="#000000" stroke-width="0" stroke-linejoin="round" stroke-miterlimit="10" fill="none" fill-rule="evenodd" transform="matrix(1 0 0 -1 419.5 1786.5)"/><path d="M0 0 0.000360892 4.9998" stroke="#000000" stroke-width="0" stroke-linejoin="round" stroke-miterlimit="10" fill="none" fill-rule="evenodd" transform="matrix(1 0 0 -1 410.5 1786.5)"/><path d="M0 0 0.000360892 4.9998" stroke="#000000" stroke-width="0" stroke-linejoin="round" stroke-miterlimit="10" fill="none" fill-rule="evenodd" transform="matrix(1 0 0 -1 428.5 1786.5)"/><path d="M0 0 0.000360892 4.9998" stroke="#000000" stroke-width="0" stroke-linejoin="round" stroke-miterlimit="10" fill="none" fill-rule="evenodd" transform="matrix(1 0 0 -1 399.5 1786.5)"/><path d="M396.5 1781.5 431.5 1781.5" stroke="#000000" stroke-width="0" stroke-linejoin="round" stroke-miterlimit="10" fill="none" fill-rule="evenodd"/><path d="M396.5 1783.5 431.5 1783.5" stroke="#000000" stroke-width="0" stroke-linejoin="round" stroke-miterlimit="10" fill="none" fill-rule="evenodd"/><path d="M390.5 1998.5 390.5 2237.5" stroke="#CCCCCC" stroke-width="0" stroke-linejoin="round" stroke-miterlimit="10" fill="none" fill-rule="evenodd"/><path d="M382.188 2215.75 382.188 1990 403 1990 403 2237 376 2237 382.188 2215.75Z" fill="#FFFFFF" fill-rule="evenodd"/><path d="M371.571 2208.85 371.571 1990 375 1990 375 2212.3 360.714 2237 343 2237 371.571 2208.85Z" fill="#B2B2B2" fill-rule="evenodd"/><path d="M374.375 2212.3 374.375 1990 381.85 1991.15 381.85 2215.75 383 2237 360 2237 374.375 2212.3Z" fill="#CCCCCC" fill-rule="evenodd"/><rect x="403" y="1987" width="15.0001" height="250" fill="#E5E5E5"/><rect x="418" y="1987" width="13.0001" height="250" fill="#CCCCCC"/><path d="M431 2237 431 1990 442.875 1990 442.875 2215.17 450 2237 431 2237Z" fill="#999999" fill-rule="evenodd"/><path d="M449.977 2237 443 2215.17 443 1990 454.046 1990 454.046 2212.3 468 2237 449.977 2237Z" fill="#666666" fill-rule="evenodd"/><path d="M467.714 2237 454 2211.73 454 1990 457.429 1990 457.429 2208.85 486 2237 467.714 2237Z" fill="#4C4C4C" fill-rule="evenodd"/><path d="M372.1 1994.5 372.1 2209.35 343.5 2237.5 486.5 2237.5 457.9 2209.35 457.9 1994.5" stroke="#000000" stroke-width="0" stroke-linejoin="round" stroke-miterlimit="10" fill="none" fill-rule="evenodd"/><path d="M0 0 25.0001 0.000360892" stroke="#666666" stroke-width="0" stroke-linejoin="round" stroke-miterlimit="10" fill="none" fill-rule="evenodd" transform="matrix(-1 0 0 1 439.5 2123.5)"/><path d="M0 0 23 0.000360892" stroke="#666666" stroke-width="0" stroke-linejoin="round" stroke-miterlimit="10" fill="none" fill-rule="evenodd" transform="matrix(-1 0 0 1 425.5 2130.5)"/><path d="M0 0 29.0002 0.000360892" stroke="#666666" stroke-width="0" stroke-linejoin="round" stroke-miterlimit="10" fill="none" fill-rule="evenodd" transform="matrix(-1 0 0 1 450.5 2147.5)"/><path d="M403.5 2212.5 431.5 2212.5" stroke="#666666" stroke-width="0" stroke-linejoin="round" stroke-miterlimit="10" fill="none" fill-rule="evenodd"/><path d="M418.5 2194.5 454.5 2194.5" stroke="#666666" stroke-width="0" stroke-linejoin="round" stroke-miterlimit="10" fill="none" fill-rule="evenodd"/><rect x="364" y="2201" width="99" height="8" fill="#333333"/><rect x="364" y="2201" width="99" height="4.00024" fill="#7F7F7F"/><path d="M379.5 2037.5 425.5 2037.5" stroke="#CCCCCC" stroke-width="0" stroke-linejoin="round" stroke-miterlimit="10" fill="none" fill-rule="evenodd"/><path d="M392.5 2063.5 435.5 2063.5" stroke="#CCCCCC" stroke-width="0" stroke-linejoin="round" stroke-miterlimit="10" fill="none" fill-rule="evenodd"/><path d="M414.573 1784.5 436.359 1786.22 456.997 1793.08 475.343 1802.23 491.395 1814.81 504.581 1830.25 515.474 1847.4 521.78 1866.84 523.5 1887.43 521.78 1908.59 515.474 1927.46 504.581 1945.75 491.395 1961.19 475.343 1973.77 456.997 1982.92 436.359 1989.78 414.573 1991.5 392.788 1989.78 371.576 1982.92 353.23 1973.77 336.605 1961.19 323.992 1945.75 313.1 1927.46 306.22 1908.59 304.5 1887.43 306.22 1866.84 313.1 1847.4 323.992 1830.25 336.605 1814.81 353.23 1802.23 371.576 1793.08 392.788 1786.22 414.573 1784.5" stroke="#CCCCCC" stroke-width="0" stroke-linejoin="round" stroke-miterlimit="10" fill="none" fill-rule="evenodd"/><path d="M415 1784.5 424.128 1786.22 439.532 1802.23 446.949 1814.81 452.654 1830.25 456.077 1847.4 458.93 1866.84 459.5 1887.43 458.93 1908.59 456.077 1927.46 452.654 1945.75 446.949 1961.19 439.532 1973.77 424.128 1989.78 415 1991.5 405.872 1989.78 390.468 1973.77 383.051 1961.19 377.346 1945.75 373.923 1927.46 371.071 1908.59 370.5 1887.43 371.071 1866.84 373.923 1847.4 377.346 1830.25 383.051 1814.81 390.468 1802.23 405.872 1786.22 415 1784.5" stroke="#CCCCCC" stroke-width="0" stroke-linejoin="round" stroke-miterlimit="10" fill="none" fill-rule="evenodd"/><path d="M281.5 1889.5 431.5 1889.5" stroke="#CCCCCC" stroke-width="0" stroke-linejoin="round" stroke-miterlimit="10" fill="none" fill-rule="evenodd"/><path d="M313.5 1871.5 462.5 1871.5" stroke="#CCCCCC" stroke-width="0" stroke-linejoin="round" stroke-miterlimit="10" fill="none" fill-rule="evenodd"/><path d="M299.5 1837.5 363.5 1837.5" stroke="#CCCCCC" stroke-width="0" stroke-linejoin="round" stroke-miterlimit="10" fill="none" fill-rule="evenodd"/><path d="M349.5 1822.5 498.5 1822.5" stroke="#CCCCCC" stroke-width="0" stroke-linejoin="round" stroke-miterlimit="10" fill="none" fill-rule="evenodd"/><path d="M388.5 1907.5 538.5 1907.5" stroke="#CCCCCC" stroke-width="0" stroke-linejoin="round" stroke-miterlimit="10" fill="none" fill-rule="evenodd"/><path d="M313.5 1945.5 434.5 1945.5" stroke="#CCCCCC" stroke-width="0" stroke-linejoin="round" stroke-miterlimit="10" fill="none" fill-rule="evenodd"/><rect x="364" y="1987" width="99" height="8.00024" fill="#333333"/><rect x="364" y="1987" width="99" height="4.00012" fill="#7F7F7F"/></g></svg>