<svg width="316" height="457" xmlns="http://www.w3.org/2000/svg" xmlns:xlink="http://www.w3.org/1999/xlink" overflow="hidden"><defs><clipPath id="clip0"><rect x="1313" y="1782" width="316" height="457"/></clipPath></defs><g clip-path="url(#clip0)" transform="translate(-1313 -1782)"><path d="M1470.5 1785 1485.96 1786.14 1501.43 1786.72 1517.46 1789.58 1531.78 1793.58 1545.53 1798.16 1558.13 1802.74 1570.15 1809.03 1581.04 1815.33 1591.35 1822.77 1600.51 1830.78 1615.4 1847.94 1624.56 1867.4 1626.85 1877.13 1628 1888 1626.85 1898.3 1620.55 1918.33 1608.53 1937.21 1600.51 1945.79 1591.35 1953.81 1581.04 1961.24 1570.15 1967.54 1558.13 1973.83 1545.53 1978.41 1531.78 1982.99 1517.46 1986.42 1501.43 1989.28 1485.96 1990.43 1470.5 1991 1453.89 1990.43 1438.43 1989.28 1423.54 1986.42 1409.22 1982.99 1395.47 1978.41 1382.87 1973.83 1370.85 1967.54 1358.82 1961.24 1348.51 1953.81 1339.35 1945.79 1325.6 1928.06 1315.86 1909.17 1314.15 1898.3 1313 1888 1314.15 1877.13 1320.45 1857.1 1332.47 1838.79 1339.35 1830.78 1348.51 1822.77 1358.82 1815.33 1370.85 1809.03 1382.87 1802.74 1395.47 1798.16 1409.22 1793.58 1423.54 1789.58 1438.43 1786.72 1453.89 1786.14 1470.5 1785Z" fill="#AFABAB" fill-rule="evenodd"/><path d="M1468.21 1787 1483.71 1788.15 1499.2 1789.29 1514.12 1791.58 1527.89 1795.59 1541.66 1799.03 1554.29 1804.75 1566.34 1809.91 1577.24 1816.21 1595.6 1831.09 1610.52 1848.27 1619.7 1867.74 1621.43 1877.48 1622 1887.79 1621.43 1897.52 1615.11 1917.56 1603.64 1935.89 1586.42 1951.35 1577.24 1958.79 1566.34 1965.09 1554.29 1970.82 1541.66 1975.97 1527.89 1979.41 1514.12 1983.42 1499.2 1986.28 1483.71 1986.85 1468.21 1988 1452.72 1986.85 1436.65 1986.28 1422.31 1983.42 1408.53 1979.41 1395.34 1975.97 1382.71 1970.82 1370.66 1965.09 1359.76 1958.79 1350 1951.35 1333.36 1935.89 1322.46 1917.56 1315.57 1897.52 1315 1887.79 1315.57 1877.48 1322.46 1857.44 1333.36 1839.11 1350 1823.65 1359.76 1816.21 1370.66 1809.91 1382.71 1804.75 1395.34 1799.03 1408.53 1795.59 1422.31 1791.58 1436.65 1789.29 1452.72 1788.15 1468.21 1787Z" fill="#AFABAB" fill-rule="evenodd"/><path d="M1465.5 1787 1481.01 1788.15 1495.94 1789.29 1510.31 1791.58 1524.09 1794.44 1537.3 1799.03 1549.94 1803.61 1560.85 1809.91 1571.77 1815.63 1582.11 1823.08 1597.62 1838.54 1609.68 1856.29 1615.43 1875.76 1616 1885.5 1615.43 1895.81 1609.68 1914.71 1597.62 1933.03 1582.11 1948.49 1571.77 1954.79 1560.85 1961.67 1549.94 1967.97 1537.3 1972.55 1524.09 1977.13 1510.31 1979.42 1495.94 1982.28 1481.01 1983.43 1465.5 1984 1449.99 1983.43 1435.06 1982.28 1420.69 1979.42 1406.91 1977.13 1393.7 1972.55 1382.21 1967.97 1370.14 1961.67 1359.23 1954.79 1340.85 1941.62 1327.06 1923.87 1317.87 1905.54 1315.57 1895.81 1315 1885.5 1315.57 1875.76 1321.32 1856.29 1333.38 1838.54 1350.04 1823.08 1359.23 1815.63 1370.14 1809.91 1382.21 1803.61 1393.7 1799.03 1406.91 1794.44 1420.69 1791.58 1435.06 1789.29 1449.99 1788.15 1465.5 1787Z" fill="#AFABAB" fill-rule="evenodd"/><path d="M1462.71 1789 1492 1790.72 1518.99 1795.89 1543.68 1805.07 1565.5 1815.98 1583.31 1830.9 1597.09 1846.4 1605.13 1864.77 1608 1883.71 1605.13 1903.23 1597.09 1920.45 1583.31 1937.1 1565.5 1950.3 1543.68 1962.35 1518.99 1971.54 1492 1977.28 1462.71 1979 1433.43 1977.28 1407.01 1971.54 1382.32 1962.35 1359.92 1950.3 1342.69 1937.1 1328.91 1920.45 1320.3 1903.23 1318 1883.71 1320.3 1864.77 1328.91 1846.4 1342.69 1830.9 1359.92 1815.98 1382.32 1805.07 1407.01 1795.89 1433.43 1790.72 1462.71 1789Z" fill="#AFABAB" fill-rule="evenodd"/><path d="M1457.93 1793 1485.49 1794.72 1511.32 1800.45 1534.29 1807.32 1554.38 1818.78 1571.03 1831.95 1583.09 1846.84 1591.13 1863.46 1594 1881.21 1591.13 1898.97 1583.09 1916.16 1571.03 1930.48 1554.38 1943.65 1534.29 1954.53 1511.32 1962.55 1485.49 1968.28 1457.93 1970 1430.37 1968.28 1405.68 1962.55 1382.71 1954.53 1362.62 1943.65 1345.97 1930.48 1333.91 1916.16 1325.87 1898.97 1323 1881.21 1325.87 1863.46 1333.91 1846.84 1345.97 1831.95 1362.62 1818.78 1382.71 1807.32 1405.68 1800.45 1430.37 1794.72 1457.93 1793Z" fill="#AFABAB" fill-rule="evenodd"/><path d="M1454.57 1796 1479.23 1798.3 1503.31 1802.9 1523.95 1809.8 1542.3 1820.15 1557.78 1832.79 1569.25 1846.59 1576.13 1862.12 1579 1878.79 1576.13 1894.89 1569.25 1910.41 1557.78 1924.21 1542.3 1936.28 1523.95 1946.63 1503.31 1954.68 1479.23 1959.28 1454.57 1961 1429.92 1959.28 1405.83 1954.68 1384.62 1946.63 1365.7 1936.28 1350.79 1924.21 1338.75 1910.41 1331.87 1894.89 1329 1878.79 1331.87 1862.12 1338.75 1846.59 1350.79 1832.79 1365.7 1820.15 1384.62 1809.8 1405.83 1802.9 1429.92 1798.3 1454.57 1796Z" fill="#AFABAB" fill-rule="evenodd"/><path d="M1448.71 1802 1471.09 1803.72 1491.74 1807.15 1511.24 1814.6 1527.88 1823.18 1540.5 1834.06 1551.4 1846.66 1557.71 1860.4 1560 1874.71 1557.71 1889.6 1551.4 1903.34 1540.5 1915.94 1527.88 1925.67 1511.24 1934.83 1491.74 1942.27 1471.09 1946.28 1448.71 1948 1426.91 1946.28 1405.69 1942.27 1386.19 1934.83 1370.12 1925.67 1356.93 1915.94 1346.03 1903.34 1339.72 1889.6 1338 1874.71 1339.72 1860.4 1346.03 1846.66 1356.93 1834.06 1370.12 1823.18 1386.19 1814.6 1405.69 1807.15 1426.91 1803.72 1448.71 1802Z" fill="#AFABAB" fill-rule="evenodd"/><path d="M1471 1785.5 1486.46 1786.64 1501.93 1787.22 1517.96 1790.08 1532.28 1794.08 1546.03 1798.66 1558.63 1803.24 1570.65 1809.53 1581.54 1815.83 1591.85 1823.27 1601.01 1831.28 1615.9 1848.44 1625.06 1867.9 1627.35 1877.63 1628.5 1888.5 1627.35 1898.8 1621.05 1918.83 1609.03 1937.71 1601.01 1946.29 1591.85 1954.31 1581.54 1961.74 1570.65 1968.04 1558.63 1974.33 1546.03 1978.91 1532.28 1983.49 1517.96 1986.92 1501.93 1989.78 1486.46 1990.93 1471 1991.5 1454.39 1990.93 1438.93 1989.78 1424.04 1986.92 1409.72 1983.49 1395.97 1978.91 1383.37 1974.33 1371.35 1968.04 1359.32 1961.74 1349.01 1954.31 1339.85 1946.29 1326.1 1928.56 1316.36 1909.67 1314.65 1898.8 1313.5 1888.5 1314.65 1877.63 1320.95 1857.6 1332.97 1839.29 1339.85 1831.28 1349.01 1823.27 1359.32 1815.83 1371.35 1809.53 1383.37 1803.24 1395.97 1798.66 1409.72 1794.08 1424.04 1790.08 1438.93 1787.22 1454.39 1786.64 1471 1785.5" stroke="#000000" stroke-width="0" stroke-linejoin="round" stroke-miterlimit="10" fill="none" fill-rule="evenodd"/><path d="M0 0 0.000360892 5.00016" stroke="#000000" stroke-width="0" stroke-linejoin="round" stroke-miterlimit="10" fill="none" fill-rule="evenodd" transform="matrix(1 0 0 -1 1475.5 1787.5)"/><path d="M0 0 0.000360892 5.00016" stroke="#000000" stroke-width="0" stroke-linejoin="round" stroke-miterlimit="10" fill="none" fill-rule="evenodd" transform="matrix(1 0 0 -1 1466.5 1787.5)"/><path d="M0 0 0.000360892 5.00016" stroke="#000000" stroke-width="0" stroke-linejoin="round" stroke-miterlimit="10" fill="none" fill-rule="evenodd" transform="matrix(1 0 0 -1 1484.5 1787.5)"/><path d="M0 0 0.000360892 5.00016" stroke="#000000" stroke-width="0" stroke-linejoin="round" stroke-miterlimit="10" fill="none" fill-rule="evenodd" transform="matrix(1 0 0 -1 1455.5 1787.5)"/><path d="M1452.5 1782.5 1487.5 1782.5" stroke="#000000" stroke-width="0" stroke-linejoin="round" stroke-miterlimit="10" fill="none" fill-rule="evenodd"/><path d="M1452.5 1785.5 1487.5 1785.5" stroke="#000000" stroke-width="0" stroke-linejoin="round" stroke-miterlimit="10" fill="none" fill-rule="evenodd"/><path d="M1445.5 1999.5 1445.5 2238.5" stroke="#CCCCCC" stroke-width="0" stroke-linejoin="round" stroke-miterlimit="10" fill="none" fill-rule="evenodd"/><path d="M1438.19 2216.75 1438.19 1991 1459 1991 1459 2238 1432 2238 1438.19 2216.75Z" fill="#FFFFFF" fill-rule="evenodd"/><path d="M1427.46 2209.85 1427.46 1991 1431 1991 1431 2213.3 1416.27 2238 1398 2238 1427.46 2209.85Z" fill="#B2B2B2" fill-rule="evenodd"/><path d="M1430.37 2213.3 1430.37 1991 1437.85 1992.15 1437.85 2216.75 1439 2238 1416 2238 1430.37 2213.3Z" fill="#CCCCCC" fill-rule="evenodd"/><rect x="1459" y="1988" width="15.0001" height="250" fill="#E5E5E5"/><rect x="1474" y="1988" width="13.0001" height="250" fill="#CCCCCC"/><path d="M1487 2238 1487 1991 1498.88 1991 1498.88 2216.17 1506 2238 1487 2238Z" fill="#999999" fill-rule="evenodd"/><path d="M1505.7 2238 1499 2216.17 1499 1991 1509.6 1991 1509.6 2213.3 1523 2238 1505.7 2238Z" fill="#666666" fill-rule="evenodd"/><path d="M1523.71 2238 1510 2212.73 1510 1991 1513.43 1991 1513.43 2209.85 1542 2238 1523.71 2238Z" fill="#4C4C4C" fill-rule="evenodd"/><path d="M1427.3 1995.5 1427.3 2210.35 1398.5 2238.5 1542.5 2238.5 1513.7 2210.35 1513.7 1995.5" stroke="#000000" stroke-width="0" stroke-linejoin="round" stroke-miterlimit="10" fill="none" fill-rule="evenodd"/><path d="M0 0 25.0001 0.000360892" stroke="#666666" stroke-width="0" stroke-linejoin="round" stroke-miterlimit="10" fill="none" fill-rule="evenodd" transform="matrix(-1 0 0 1 1495.5 2124.5)"/><path d="M0 0 22 0.000360892" stroke="#666666" stroke-width="0" stroke-linejoin="round" stroke-miterlimit="10" fill="none" fill-rule="evenodd" transform="matrix(-1 0 0 1 1480.5 2131.5)"/><path d="M0 0 30.0003 0.000360892" stroke="#666666" stroke-width="0" stroke-linejoin="round" stroke-miterlimit="10" fill="none" fill-rule="evenodd" transform="matrix(-1 0 0 1 1506.5 2148.5)"/><path d="M1459.5 2213.5 1487.5 2213.5" stroke="#666666" stroke-width="0" stroke-linejoin="round" stroke-miterlimit="10" fill="none" fill-rule="evenodd"/><path d="M1474.5 2195.5 1510.5 2195.5" stroke="#666666" stroke-width="0" stroke-linejoin="round" stroke-miterlimit="10" fill="none" fill-rule="evenodd"/><rect x="1420" y="2202" width="99" height="8" fill="#333333"/><rect x="1420" y="2202" width="99" height="3.99976" fill="#7F7F7F"/><path d="M1435.5 2038.5 1480.5 2038.5" stroke="#CCCCCC" stroke-width="0" stroke-linejoin="round" stroke-miterlimit="10" fill="none" fill-rule="evenodd"/><path d="M1448.5 2064.5 1491.5 2064.5" stroke="#CCCCCC" stroke-width="0" stroke-linejoin="round" stroke-miterlimit="10" fill="none" fill-rule="evenodd"/><path d="M1470.57 1785.5 1492.36 1787.22 1513 1794.12 1531.34 1803.31 1547.4 1815.95 1560.58 1831.47 1571.47 1848.7 1577.78 1868.24 1579.5 1888.93 1577.78 1910.18 1571.47 1929.15 1560.58 1947.53 1547.4 1963.05 1531.34 1975.69 1513 1984.88 1492.36 1991.78 1470.57 1993.5 1448.79 1991.78 1427.58 1984.88 1409.23 1975.69 1392.6 1963.05 1379.99 1947.53 1369.1 1929.15 1362.22 1910.18 1360.5 1888.93 1362.22 1868.24 1369.1 1848.7 1379.99 1831.47 1392.6 1815.95 1409.23 1803.31 1427.58 1794.12 1448.79 1787.22 1470.57 1785.5" stroke="#CCCCCC" stroke-width="0" stroke-linejoin="round" stroke-miterlimit="10" fill="none" fill-rule="evenodd"/><path d="M1470.5 1785.5 1479.73 1787.22 1495.31 1803.31 1502.81 1815.95 1508.58 1831.47 1512.04 1848.7 1514.92 1868.24 1515.5 1888.93 1514.92 1910.18 1512.04 1929.15 1508.58 1947.53 1502.81 1963.05 1495.31 1975.69 1479.73 1991.78 1470.5 1993.5 1461.27 1991.78 1445.69 1975.69 1438.19 1963.05 1432.42 1947.53 1428.96 1929.15 1426.08 1910.18 1425.5 1888.93 1426.08 1868.24 1428.96 1848.7 1432.42 1831.47 1438.19 1815.95 1445.69 1803.31 1461.27 1787.22 1470.5 1785.5" stroke="#CCCCCC" stroke-width="0" stroke-linejoin="round" stroke-miterlimit="10" fill="none" fill-rule="evenodd"/><path d="M1337.5 1890.5 1487.5 1890.5" stroke="#CCCCCC" stroke-width="0" stroke-linejoin="round" stroke-miterlimit="10" fill="none" fill-rule="evenodd"/><path d="M1369.5 1872.5 1518.5 1872.5" stroke="#CCCCCC" stroke-width="0" stroke-linejoin="round" stroke-miterlimit="10" fill="none" fill-rule="evenodd"/><path d="M1355.5 1838.5 1419.5 1838.5" stroke="#CCCCCC" stroke-width="0" stroke-linejoin="round" stroke-miterlimit="10" fill="none" fill-rule="evenodd"/><path d="M1405.5 1824.5 1554.5 1824.5" stroke="#CCCCCC" stroke-width="0" stroke-linejoin="round" stroke-miterlimit="10" fill="none" fill-rule="evenodd"/><path d="M1444.5 1908.5 1594.5 1908.5" stroke="#CCCCCC" stroke-width="0" stroke-linejoin="round" stroke-miterlimit="10" fill="none" fill-rule="evenodd"/><path d="M1369.5 1946.5 1490.5 1946.5" stroke="#CCCCCC" stroke-width="0" stroke-linejoin="round" stroke-miterlimit="10" fill="none" fill-rule="evenodd"/><rect x="1420" y="1989" width="99" height="7.00024" fill="#333333"/><rect x="1420" y="1989" width="99" height="4.00012" fill="#7F7F7F"/></g></svg>