<svg width="447" height="484" xmlns="http://www.w3.org/2000/svg" xmlns:xlink="http://www.w3.org/1999/xlink" overflow="hidden"><defs><clipPath id="clip0"><rect x="1515" y="737" width="447" height="484"/></clipPath></defs><g clip-path="url(#clip0)" transform="translate(-1515 -737)"><path d="M1739 751 1760.37 752.003 1781.17 755.153 1801.25 760.308 1820.62 767.325 1838.84 776.203 1856.34 786.657 1872.55 798.829 1887.32 812.29 1900.95 827.039 1913.14 843.221 1923.61 860.548 1932.5 878.734 1939.53 897.923 1944.7 917.971 1948 938.735 1948.71 949.189 1949 959.929 1948.71 970.812 1946.56 991.719 1942.4 1012.05 1936.23 1031.67 1928.2 1050.43 1918.45 1068.19 1907.11 1084.94 1894.35 1100.41 1880.15 1114.58 1864.51 1127.33 1847.73 1138.64 1829.94 1148.38 1811.15 1156.26 1791.36 1162.41 1770.99 1166.57 1749.9 1168.71 1739 1169 1728.1 1168.71 1707.01 1166.57 1686.64 1162.41 1666.85 1156.26 1648.06 1148.38 1630.27 1138.64 1613.49 1127.33 1597.85 1114.58 1583.65 1100.41 1570.89 1084.94 1559.55 1068.19 1549.8 1050.43 1541.77 1031.67 1535.6 1012.05 1531.44 991.719 1529.29 970.812 1529 959.929 1529.29 949.189 1531.44 928.138 1535.6 907.804 1541.77 888.185 1549.8 869.57 1559.55 851.67 1570.89 835.058 1583.65 819.45 1597.85 805.416 1613.49 792.528 1630.27 781.358 1648.06 771.621 1666.85 763.745 1686.64 757.444 1707.01 753.435 1728.1 751.286 1739 751Z" fill="#F4B183" fill-rule="evenodd"/><path d="M1537 953.465 1551.31 879.184 1593.65 811.643 1661.18 769.053 1735.57 755 1809.82 769.053 1877.2 811.643 1919.98 879.184 1934 953.465 1919.98 1027.75 1877.2 1095 1593.65 1095 1551.31 1027.75 1537 953.465Z" fill="#F4B183" fill-rule="evenodd"/><path d="M1544 947.164 1557.59 876.942 1597.63 813.598 1661.28 773.185 1731.5 760 1801.72 773.185 1865.37 813.598 1905.7 876.942 1919 947.164 1905.7 1017.39 1865.37 1081.02 1801.72 1121 1661.28 1121 1597.63 1081.02 1557.59 1017.39 1544 947.164Z" fill="#F4B183" fill-rule="evenodd"/><path d="M1552 940.312 1564.72 874.177 1602.47 814.355 1662.38 776.338 1728.43 764 1794.62 776.338 1854.39 814.355 1892.42 874.177 1905 940.312 1892.42 1006.45 1854.39 1066.41 1794.62 1104 1662.38 1104 1602.47 1066.41 1564.72 1006.45 1552 940.312Z" fill="#F4B183" fill-rule="evenodd"/><path d="M1558 933.5 1569.91 871.402 1605.63 815.327 1661.88 779.617 1724.14 768 1786.27 779.617 1842.65 815.327 1878.23 871.402 1890 933.5 1878.23 995.455 1842.65 1051.53 1786.27 1086.95 1724.14 1099 1661.88 1086.95 1605.63 1051.53 1569.91 995.455 1558 933.5Z" fill="#F4B183" fill-rule="evenodd"/><path d="M1566 927.143 1577.15 869.375 1610.18 817.041 1662.8 784.01 1720.57 773 1778.48 784.01 1830.82 817.041 1863.99 869.375 1875 927.143 1863.99 984.768 1830.82 1037.1 1778.48 1069.99 1720.57 1081 1662.8 1069.99 1610.18 1037.1 1577.15 984.768 1566 927.143Z" fill="#F4B183" fill-rule="evenodd"/><path d="M1573 920.928 1583.33 867.33 1614.18 818.877 1662.97 788.148 1716.93 778 1771.03 788.148 1819.82 818.877 1850.67 867.33 1861 920.928 1850.67 974.67 1819.82 1023.12 1771.03 1053.71 1716.93 1064 1662.97 1053.71 1614.18 1023.12 1583.33 974.67 1573 920.928Z" fill="#F4B183" fill-rule="evenodd"/><path d="M1581 914.072 1590.58 864.473 1618.88 819.735 1663.76 791.291 1713.36 782 1763.1 791.291 1807.98 819.735 1836.57 864.473 1846 914.072 1836.57 963.527 1807.98 1008.41 1763.1 1036.42 1713.36 1046 1663.76 1036.42 1618.88 1008.41 1590.58 963.527 1581 914.072Z" fill="#F4B183" fill-rule="evenodd"/><path d="M1588 907.5 1596.76 861.884 1622.9 820.714 1664.12 794.464 1709.93 786 1755.74 794.464 1797.25 820.714 1823.38 861.884 1832 907.5 1823.38 952.973 1797.25 994.286 1755.74 1020.25 1709.93 1029 1664.12 1020.25 1622.9 994.286 1596.76 952.973 1588 907.5Z" fill="#F4B183" fill-rule="evenodd"/><path d="M1595 900.786 1602.9 859.527 1626.59 822.265 1664.21 798.709 1705.86 791 1747.64 798.709 1785.27 822.265 1809.1 859.527 1817 900.786 1809.1 942.188 1785.27 979.449 1747.64 1003.01 1705.86 1011 1664.21 1003.01 1626.59 979.449 1602.9 942.188 1595 900.786Z" fill="#F4B183" fill-rule="evenodd"/><path d="M1603 894.572 1610 857.179 1631.45 823.511 1665.19 802.164 1702.36 795 1739.81 802.164 1773.69 823.511 1794.85 857.179 1802 894.572 1794.85 931.965 1773.69 965.49 1739.81 986.837 1702.36 994 1665.19 986.837 1631.45 965.49 1610 931.965 1603 894.572Z" fill="#F4B183" fill-rule="evenodd"/><path d="M1610 887.5 1616.32 854.277 1635.43 824.347 1665.6 805.301 1698.93 799 1732.4 805.301 1762.57 824.347 1781.53 854.277 1788 887.5 1781.53 920.723 1762.57 950.796 1732.4 969.556 1698.93 976 1665.6 969.556 1635.43 950.796 1616.32 920.723 1610 887.5Z" fill="#F4B183" fill-rule="evenodd"/><path d="M1617 880.856 1622.61 851.588 1639.29 825.348 1665.74 808.479 1694.93 803 1724.4 808.479 1750.86 825.348 1767.39 851.588 1773 880.856 1767.39 910.268 1750.86 936.797 1724.4 953.233 1694.93 959 1665.74 953.233 1639.29 936.797 1622.61 910.268 1617 880.856Z" fill="#F4B183" fill-rule="evenodd"/><path d="M1624 874.428 1628.74 849.375 1643.12 826.898 1665.84 812.725 1691 808 1716.16 812.725 1738.88 826.898 1753.11 849.375 1758 874.428 1753.11 899.482 1738.88 921.959 1716.16 936.132 1691 941 1665.84 936.132 1643.12 921.959 1628.74 899.482 1624 874.428Z" fill="#F4B183" fill-rule="evenodd"/><path d="M1739.5 751.5 1760.87 752.502 1781.67 755.653 1801.75 760.808 1821.12 767.825 1839.34 776.703 1856.84 787.157 1873.05 799.329 1887.82 812.789 1901.45 827.539 1913.64 843.721 1924.11 861.048 1933 879.234 1940.03 898.423 1945.2 918.471 1948.5 939.235 1949.21 949.688 1949.5 960.428 1949.21 971.312 1947.06 992.219 1942.9 1012.55 1936.73 1032.17 1928.7 1050.93 1918.95 1068.69 1907.61 1085.44 1894.85 1100.91 1880.65 1115.08 1865.01 1127.83 1848.23 1139.14 1830.44 1148.88 1811.65 1156.76 1791.86 1162.91 1771.49 1167.07 1750.4 1169.21 1739.5 1169.5 1728.6 1169.21 1707.51 1167.07 1687.14 1162.91 1667.35 1156.76 1648.56 1148.88 1630.77 1139.14 1613.99 1127.83 1598.35 1115.08 1584.15 1100.91 1571.39 1085.44 1560.05 1068.69 1550.3 1050.93 1542.27 1032.17 1536.1 1012.55 1531.94 992.219 1529.79 971.312 1529.5 960.428 1529.79 949.688 1531.94 928.638 1536.1 908.304 1542.27 888.685 1550.3 870.069 1560.05 852.169 1571.39 835.558 1584.15 819.949 1598.35 805.916 1613.99 793.028 1630.77 781.858 1648.56 772.121 1667.35 764.245 1687.14 757.944 1707.51 753.934 1728.6 751.786 1739.5 751.5" stroke="#000000" stroke-width="0" stroke-linejoin="round" stroke-miterlimit="10" fill="none" fill-rule="evenodd"/><rect x="1548" y="1198" width="382" height="8.99988" fill="#7F7F7F"/><rect x="1580" y="1198" width="318" height="8.99988" fill="#8F8F8F"/><rect x="1611" y="1198" width="256" height="8.99988" fill="#9E9E9E"/><rect x="1642" y="1198" width="194" height="8.99988" fill="#ADADAD"/><rect x="1673" y="1198" width="132" height="8.99988" fill="#BDBDBD"/><rect x="1704" y="1198" width="69.0001" height="8.99988" fill="#CCCCCC"/><rect x="1548.5" y="1198.5" width="382" height="8.99988" stroke="#000000" stroke-width="0" stroke-miterlimit="8" fill="none"/><path d="M1900.96 1093 1900.96 1178.87 1920 1188.51 1920 1198 1558 1198 1558 1188.51 1577.04 1178.87 1577.04 1093 1900.96 1093Z" fill="#B2B2B2" fill-rule="evenodd"/><path d="M1890.2 1093 1890.2 1178.87 1908 1188.51 1908 1198 1570 1198 1570 1188.51 1587.8 1178.87 1587.8 1093 1890.2 1093Z" fill="#B8B8B8" fill-rule="evenodd"/><path d="M1878.82 1093 1878.82 1178.87 1895 1188.51 1895 1198 1583 1198 1583 1188.51 1599.32 1178.87 1599.32 1093 1878.82 1093Z" fill="#BFBFBF" fill-rule="evenodd"/><path d="M1867.93 1093 1867.93 1178.87 1883 1188.51 1883 1198 1595 1198 1595 1188.51 1610.21 1178.87 1610.21 1093 1867.93 1093Z" fill="#C4C4C4" fill-rule="evenodd"/><path d="M1856.14 1093 1856.14 1178.87 1870 1188.51 1870 1198 1608 1198 1608 1188.51 1621.86 1178.87 1621.86 1093 1856.14 1093Z" fill="#C9C9C9" fill-rule="evenodd"/><path d="M1845.37 1093 1845.37 1178.87 1858 1188.51 1858 1198 1620 1198 1620 1188.51 1632.49 1178.87 1632.49 1093 1845.37 1093Z" fill="#D1D1D1" fill-rule="evenodd"/><path d="M1833.99 1093 1833.99 1178.87 1845 1188.51 1845 1198 1633 1198 1633 1188.51 1644.15 1178.87 1644.15 1093 1833.99 1093Z" fill="#D6D6D6" fill-rule="evenodd"/><path d="M1823.1 1093 1823.1 1178.87 1833 1188.51 1833 1198 1645 1198 1645 1188.51 1654.9 1178.87 1654.9 1093 1823.1 1093Z" fill="#DBDBDB" fill-rule="evenodd"/><path d="M1811.44 1093 1811.44 1178.87 1820 1188.51 1820 1198 1658 1198 1658 1188.51 1666.42 1178.87 1666.42 1093 1811.44 1093Z" fill="#E0E0E0" fill-rule="evenodd"/><path d="M1800.81 1093 1800.81 1178.87 1808 1188.51 1808 1198 1670 1198 1670 1188.51 1677.19 1178.87 1677.19 1093 1800.81 1093Z" fill="#E8E8E8" fill-rule="evenodd"/><path d="M1790.11 1093 1790.11 1178.87 1796 1188.51 1796 1198 1683 1198 1683 1188.51 1689.03 1178.87 1689.03 1093 1790.11 1093Z" fill="#EDEDED" fill-rule="evenodd"/><path d="M1778.27 1093 1778.27 1178.87 1783 1188.51 1783 1198 1695 1198 1695 1188.51 1699.59 1178.87 1699.59 1093 1778.27 1093Z" fill="#F2F2F2" fill-rule="evenodd"/><path d="M1766.74 1093 1766.74 1178.87 1770 1188.51 1770 1198 1708 1198 1708 1188.51 1711.26 1178.87 1711.26 1093 1766.74 1093Z" fill="#FAFAFA" fill-rule="evenodd"/><path d="M1755.98 1093 1755.98 1178.87 1758 1188.51 1758 1198 1720 1198 1720 1188.51 1722.02 1178.87 1722.02 1093 1755.98 1093Z" fill="#FFFFFF" fill-rule="evenodd"/><path d="M1901.46 1093.5 1901.46 1179.37 1920.5 1189.01 1920.5 1198.5 1558.5 1198.5 1558.5 1189.01 1577.54 1179.37 1577.54 1093.5 1901.46 1093.5" stroke="#000000" stroke-width="0" stroke-linejoin="round" stroke-miterlimit="10" fill="none" fill-rule="evenodd"/><path d="M1577.5 1179.5 1901.5 1179.5" stroke="#000000" stroke-width="0" stroke-linejoin="round" stroke-miterlimit="10" fill="none" fill-rule="evenodd"/><path d="M1558.5 1188.5 1920.5 1188.5" stroke="#000000" stroke-width="0" stroke-linejoin="round" stroke-miterlimit="10" fill="none" fill-rule="evenodd"/><path d="M1637.5 1179.5 1841.5 1179.5" stroke="#7F7F7F" stroke-width="0" stroke-linejoin="round" stroke-miterlimit="10" fill="none" fill-rule="evenodd"/><path d="M1625.5 1188.5 1853.5 1188.5" stroke="#7F7F7F" stroke-width="0" stroke-linejoin="round" stroke-miterlimit="10" fill="none" fill-rule="evenodd"/><path d="M1705.5 1179.5 1773.5 1179.5" stroke="#B2B2B2" stroke-width="0" stroke-linejoin="round" stroke-miterlimit="10" fill="none" fill-rule="evenodd"/><path d="M1701.5 1188.5 1777.5 1188.5" stroke="#B2B2B2" stroke-width="0" stroke-linejoin="round" stroke-miterlimit="10" fill="none" fill-rule="evenodd"/><path d="M1853 1114.46 1854.16 1108.16 1857.78 1102.72 1863.28 1099.29 1869.5 1098 1875 1098 1875 1174 1869.5 1174 1863.28 1172.71 1857.78 1169.28 1854.16 1163.84 1853 1157.68 1853 1114.46Z" fill="#7F7F7F" fill-rule="evenodd"/><path d="M1859.5 1114.96 1860.62 1108.66 1864.11 1103.22 1869.42 1099.79 1875.57 1098.5 1881.58 1099.79 1886.89 1103.22 1890.38 1108.66 1891.5 1114.96 1891.5 1158.18 1890.38 1164.34 1886.89 1169.78 1881.58 1173.21 1875.57 1174.5 1869.42 1173.21 1864.11 1169.78 1860.62 1164.34 1859.5 1158.18 1859.5 1114.96Z" stroke="#000000" stroke-width="0" stroke-linejoin="round" stroke-miterlimit="10" fill="#CCCCCC" fill-rule="evenodd"/><path d="M1878.5 1105.5 1881.79 1106.36 1884.93 1109.38 1886.93 1113.84 1887.5 1118.88 1887.5 1154.27 1886.93 1159.16 1884.93 1163.76 1881.79 1166.64 1878.5 1167.5" stroke="#000000" stroke-width="0" stroke-linejoin="round" stroke-miterlimit="10" fill="none" fill-rule="evenodd"/><path d="M1682.5 1101.5 1720.5 1101.5" stroke="#000000" stroke-width="0" stroke-linejoin="round" stroke-miterlimit="10" fill="none" fill-rule="evenodd"/><path d="M1682.5 1103.5 1720.5 1103.5" stroke="#000000" stroke-width="0" stroke-linejoin="round" stroke-miterlimit="10" fill="none" fill-rule="evenodd"/><path d="M1682.5 1106.5 1720.5 1106.5" stroke="#000000" stroke-width="0" stroke-linejoin="round" stroke-miterlimit="10" fill="none" fill-rule="evenodd"/><path d="M1682.5 1108.5 1720.5 1108.5" stroke="#000000" stroke-width="0" stroke-linejoin="round" stroke-miterlimit="10" fill="none" fill-rule="evenodd"/><path d="M1682.5 1110.5 1720.5 1110.5" stroke="#000000" stroke-width="0" stroke-linejoin="round" stroke-miterlimit="10" fill="none" fill-rule="evenodd"/><path d="M1682.5 1113.5 1720.5 1113.5" stroke="#000000" stroke-width="0" stroke-linejoin="round" stroke-miterlimit="10" fill="none" fill-rule="evenodd"/><path d="M1682.5 1115.5 1720.5 1115.5" stroke="#000000" stroke-width="0" stroke-linejoin="round" stroke-miterlimit="10" fill="none" fill-rule="evenodd"/><path d="M1682.5 1117.5 1720.5 1117.5" stroke="#000000" stroke-width="0" stroke-linejoin="round" stroke-miterlimit="10" fill="none" fill-rule="evenodd"/><path d="M1682.5 1120.5 1720.5 1120.5" stroke="#000000" stroke-width="0" stroke-linejoin="round" stroke-miterlimit="10" fill="none" fill-rule="evenodd"/><path d="M1682.5 1122.5 1720.5 1122.5" stroke="#000000" stroke-width="0" stroke-linejoin="round" stroke-miterlimit="10" fill="none" fill-rule="evenodd"/><path d="M1682.5 1124.5 1720.5 1124.5" stroke="#000000" stroke-width="0" stroke-linejoin="round" stroke-miterlimit="10" fill="none" fill-rule="evenodd"/><path d="M1682.5 1126.5 1720.5 1126.5" stroke="#000000" stroke-width="0" stroke-linejoin="round" stroke-miterlimit="10" fill="none" fill-rule="evenodd"/><path d="M1682.5 1129.5 1720.5 1129.5" stroke="#000000" stroke-width="0" stroke-linejoin="round" stroke-miterlimit="10" fill="none" fill-rule="evenodd"/><path d="M1682.5 1132.5 1720.5 1132.5" stroke="#000000" stroke-width="0" stroke-linejoin="round" stroke-miterlimit="10" fill="none" fill-rule="evenodd"/><path d="M1682.5 1134.5 1720.5 1134.5" stroke="#000000" stroke-width="0" stroke-linejoin="round" stroke-miterlimit="10" fill="none" fill-rule="evenodd"/><path d="M1682.5 1136.5 1720.5 1136.5" stroke="#000000" stroke-width="0" stroke-linejoin="round" stroke-miterlimit="10" fill="none" fill-rule="evenodd"/><path d="M1682.5 1138.5 1720.5 1138.5" stroke="#000000" stroke-width="0" stroke-linejoin="round" stroke-miterlimit="10" fill="none" fill-rule="evenodd"/><path d="M1682.5 1141.5 1720.5 1141.5" stroke="#000000" stroke-width="0" stroke-linejoin="round" stroke-miterlimit="10" fill="none" fill-rule="evenodd"/><path d="M1682.5 1143.5 1720.5 1143.5" stroke="#000000" stroke-width="0" stroke-linejoin="round" stroke-miterlimit="10" fill="none" fill-rule="evenodd"/><path d="M1682.5 1145.5 1720.5 1145.5" stroke="#000000" stroke-width="0" stroke-linejoin="round" stroke-miterlimit="10" fill="none" fill-rule="evenodd"/><path d="M1682.5 1148.5 1720.5 1148.5" stroke="#000000" stroke-width="0" stroke-linejoin="round" stroke-miterlimit="10" fill="none" fill-rule="evenodd"/><path d="M1682.5 1151.5 1720.5 1151.5" stroke="#000000" stroke-width="0" stroke-linejoin="round" stroke-miterlimit="10" fill="none" fill-rule="evenodd"/><path d="M1682.5 1153.5 1720.5 1153.5" stroke="#000000" stroke-width="0" stroke-linejoin="round" stroke-miterlimit="10" fill="none" fill-rule="evenodd"/><path d="M1682.5 1155.5 1720.5 1155.5" stroke="#000000" stroke-width="0" stroke-linejoin="round" stroke-miterlimit="10" fill="none" fill-rule="evenodd"/><path d="M1682.5 1157.5 1720.5 1157.5" stroke="#000000" stroke-width="0" stroke-linejoin="round" stroke-miterlimit="10" fill="none" fill-rule="evenodd"/><path d="M1682.5 1160.5 1720.5 1160.5" stroke="#000000" stroke-width="0" stroke-linejoin="round" stroke-miterlimit="10" fill="none" fill-rule="evenodd"/><path d="M1682.5 1163.5 1720.5 1163.5" stroke="#000000" stroke-width="0" stroke-linejoin="round" stroke-miterlimit="10" fill="none" fill-rule="evenodd"/><path d="M1682.5 1165.5 1720.5 1165.5" stroke="#000000" stroke-width="0" stroke-linejoin="round" stroke-miterlimit="10" fill="none" fill-rule="evenodd"/><path d="M1682.5 1167.5 1720.5 1167.5" stroke="#000000" stroke-width="0" stroke-linejoin="round" stroke-miterlimit="10" fill="none" fill-rule="evenodd"/><path d="M1682.5 1169.5 1720.5 1169.5" stroke="#000000" stroke-width="0" stroke-linejoin="round" stroke-miterlimit="10" fill="none" fill-rule="evenodd"/><path d="M1682.5 1172.5 1720.5 1172.5" stroke="#000000" stroke-width="0" stroke-linejoin="round" stroke-miterlimit="10" fill="none" fill-rule="evenodd"/><path d="M1682.5 1174.5 1720.5 1174.5" stroke="#000000" stroke-width="0" stroke-linejoin="round" stroke-miterlimit="10" fill="none" fill-rule="evenodd"/><rect x="1734" y="1160" width="9.00024" height="27.9999" fill="#E5E5E5"/><rect x="1908" y="1160" width="10" height="27.9999" fill="#999999"/><rect x="1562" y="1160" width="10" height="27.9999" fill="#999999"/><rect x="1851" y="1160" width="8.99988" height="27.9999" fill="#B2B2B2"/><rect x="1620" y="1160" width="8.99988" height="27.9999" fill="#B2B2B2"/><rect x="1794" y="1160" width="8.99988" height="27.9999" fill="#CCCCCC"/><rect x="1677" y="1160" width="8.99988" height="27.9999" fill="#CCCCCC"/><rect x="1906" y="1160" width="2.00012" height="27.9999" fill="#4C4C4C"/><rect x="1572" y="1160" width="2.00012" height="27.9999" fill="#4C4C4C"/><rect x="1848" y="1160" width="3.00012" height="27.9999" fill="#666666"/><rect x="1629" y="1160" width="3.00012" height="27.9999" fill="#666666"/><rect x="1792" y="1160" width="2.00012" height="27.9999" fill="#7F7F7F"/><rect x="1686" y="1160" width="2.99976" height="27.9999" fill="#7F7F7F"/></g></svg>