<svg width="447" height="484" xmlns="http://www.w3.org/2000/svg" xmlns:xlink="http://www.w3.org/1999/xlink" overflow="hidden"><defs><clipPath id="clip0"><rect x="2085" y="738" width="447" height="484"/></clipPath></defs><g clip-path="url(#clip0)" transform="translate(-2085 -738)"><path d="M2309 752 2330.37 753.003 2351.17 756.153 2371.25 761.308 2390.62 768.325 2408.84 777.203 2426.34 787.657 2442.55 799.829 2457.32 813.29 2470.95 828.039 2483.14 844.221 2493.61 861.548 2502.5 879.734 2509.53 898.923 2514.7 918.971 2518 939.735 2518.71 950.189 2519 960.929 2518.71 971.812 2516.56 992.719 2512.4 1013.05 2506.23 1032.67 2498.2 1051.43 2488.45 1069.19 2477.11 1085.94 2464.35 1101.41 2450.15 1115.58 2434.51 1128.33 2417.73 1139.64 2399.94 1149.38 2381.15 1157.26 2361.36 1163.41 2340.99 1167.57 2319.9 1169.71 2309 1170 2298.1 1169.71 2277.01 1167.57 2256.64 1163.41 2236.85 1157.26 2218.06 1149.38 2200.27 1139.64 2183.49 1128.33 2167.85 1115.58 2153.65 1101.41 2140.89 1085.94 2129.55 1069.19 2119.8 1051.43 2111.77 1032.67 2105.6 1013.05 2101.44 992.719 2099.29 971.812 2099 960.929 2099.29 950.189 2101.44 929.138 2105.6 908.804 2111.77 889.185 2119.8 870.57 2129.55 852.67 2140.89 836.058 2153.65 820.45 2167.85 806.416 2183.49 793.528 2200.27 782.358 2218.06 772.621 2236.85 764.745 2256.64 758.444 2277.01 754.435 2298.1 752.286 2309 752Z" fill="#C9C9C9" fill-rule="evenodd"/><path d="M2107 954.465 2121.31 880.184 2163.65 812.643 2231.18 770.053 2305.57 756 2379.82 770.053 2447.2 812.643 2489.98 880.184 2504 954.465 2489.98 1028.75 2447.2 1096 2163.65 1096 2121.31 1028.75 2107 954.465Z" fill="#C9C9C9" fill-rule="evenodd"/><path d="M2114 948.164 2127.59 877.942 2167.63 814.598 2231.28 774.185 2301.5 761 2371.72 774.185 2435.37 814.598 2475.7 877.942 2489 948.164 2475.7 1018.39 2435.37 1082.02 2371.72 1122 2231.28 1122 2167.63 1082.02 2127.59 1018.39 2114 948.164Z" fill="#C9C9C9" fill-rule="evenodd"/><path d="M2122 940.794 2134.72 874.853 2172.47 815.206 2232.38 777.301 2298.43 765 2364.62 777.301 2424.39 815.206 2462.42 874.853 2475 940.794 2462.42 1006.73 2424.39 1066.52 2364.62 1104 2232.38 1104 2172.47 1066.52 2134.72 1006.73 2122 940.794Z" fill="#C9C9C9" fill-rule="evenodd"/><path d="M2128 934.5 2139.91 872.402 2175.63 816.327 2231.88 780.617 2294.14 769 2356.27 780.617 2412.65 816.327 2448.24 872.402 2460 934.5 2448.24 996.455 2412.65 1052.53 2356.27 1087.95 2294.14 1100 2231.88 1087.95 2175.63 1052.53 2139.91 996.455 2128 934.5Z" fill="#C9C9C9" fill-rule="evenodd"/><path d="M2136 928.143 2147.15 870.375 2180.18 818.041 2232.8 785.01 2290.57 774 2348.48 785.01 2400.82 818.041 2433.99 870.375 2445 928.143 2433.99 985.768 2400.82 1038.1 2348.48 1070.99 2290.57 1082 2232.8 1070.99 2180.18 1038.1 2147.15 985.768 2136 928.143Z" fill="#C9C9C9" fill-rule="evenodd"/><path d="M2143 921.428 2153.33 867.643 2184.18 819.02 2232.97 788.183 2286.93 778 2341.03 788.183 2389.82 819.02 2420.67 867.643 2431 921.428 2420.67 975.357 2389.82 1023.98 2341.03 1054.67 2286.93 1065 2232.97 1054.67 2184.18 1023.98 2153.33 975.357 2143 921.428Z" fill="#C9C9C9" fill-rule="evenodd"/><path d="M2151 914.572 2160.58 864.786 2188.88 819.878 2233.76 791.326 2283.36 782 2333.1 791.326 2377.98 819.878 2406.57 864.786 2416 914.572 2406.57 964.214 2377.98 1009.27 2333.1 1037.39 2283.36 1047 2233.76 1037.39 2188.88 1009.27 2160.58 964.214 2151 914.572Z" fill="#C9C9C9" fill-rule="evenodd"/><path d="M2158 908.5 2166.76 862.884 2192.9 821.714 2234.12 795.463 2279.93 787 2325.74 795.463 2367.25 821.714 2393.38 862.884 2402 908.5 2393.38 953.973 2367.25 995.286 2325.74 1021.25 2279.93 1030 2234.12 1021.25 2192.9 995.286 2166.76 953.973 2158 908.5Z" fill="#C9C9C9" fill-rule="evenodd"/><path d="M2165 901.786 2172.9 860.527 2196.59 823.265 2234.21 799.709 2275.86 792 2317.64 799.709 2355.27 823.265 2379.1 860.527 2387 901.786 2379.1 943.188 2355.27 980.449 2317.64 1004.01 2275.86 1012 2234.21 1004.01 2196.59 980.449 2172.9 943.188 2165 901.786Z" fill="#C9C9C9" fill-rule="evenodd"/><path d="M2173 895.071 2180 857.866 2201.45 824.367 2235.19 803.128 2272.36 796 2309.81 803.128 2343.69 824.367 2364.85 857.866 2372 895.071 2364.85 932.277 2343.69 965.633 2309.81 986.873 2272.36 994 2235.19 986.873 2201.45 965.633 2180 932.277 2173 895.071Z" fill="#C9C9C9" fill-rule="evenodd"/><path d="M2180 888.5 2186.32 855.277 2205.43 825.347 2235.6 806.301 2268.93 800 2302.4 806.301 2332.57 825.347 2351.54 855.277 2358 888.5 2351.54 921.723 2332.57 951.796 2302.4 970.556 2268.93 977 2235.6 970.556 2205.43 951.796 2186.32 921.723 2180 888.5Z" fill="#C9C9C9" fill-rule="evenodd"/><path d="M2187 881.357 2192.61 852.276 2209.29 826.204 2235.74 809.444 2264.93 804 2294.4 809.444 2320.86 826.204 2337.39 852.276 2343 881.357 2337.39 910.581 2320.86 936.939 2294.4 953.27 2264.93 959 2235.74 953.27 2209.29 936.939 2192.61 910.581 2187 881.357Z" fill="#C9C9C9" fill-rule="evenodd"/><path d="M2194 875.428 2198.74 850.374 2213.12 827.898 2235.84 813.724 2261 809 2286.16 813.724 2308.88 827.898 2323.11 850.374 2328 875.428 2323.11 900.482 2308.88 922.959 2286.16 937.132 2261 942 2235.84 937.132 2213.12 922.959 2198.74 900.482 2194 875.428Z" fill="#C9C9C9" fill-rule="evenodd"/><path d="M2309.5 752.5 2330.87 753.502 2351.67 756.653 2371.75 761.808 2391.12 768.825 2409.34 777.703 2426.84 788.157 2443.05 800.329 2457.82 813.789 2471.45 828.539 2483.64 844.721 2494.11 862.048 2503 880.234 2510.03 899.423 2515.2 919.471 2518.5 940.235 2519.21 950.688 2519.5 961.428 2519.21 972.312 2517.06 993.219 2512.9 1013.55 2506.73 1033.17 2498.7 1051.93 2488.95 1069.69 2477.61 1086.44 2464.85 1101.91 2450.65 1116.08 2435.01 1128.83 2418.23 1140.14 2400.44 1149.88 2381.65 1157.76 2361.86 1163.91 2341.49 1168.07 2320.4 1170.21 2309.5 1170.5 2298.6 1170.21 2277.51 1168.07 2257.14 1163.91 2237.35 1157.76 2218.56 1149.88 2200.77 1140.14 2183.99 1128.83 2168.35 1116.08 2154.15 1101.91 2141.39 1086.44 2130.05 1069.69 2120.3 1051.93 2112.27 1033.17 2106.1 1013.55 2101.94 993.219 2099.79 972.312 2099.5 961.428 2099.79 950.688 2101.94 929.638 2106.1 909.304 2112.27 889.685 2120.3 871.069 2130.05 853.169 2141.39 836.558 2154.15 820.949 2168.35 806.916 2183.99 794.028 2200.77 782.858 2218.56 773.121 2237.35 765.245 2257.14 758.944 2277.51 754.934 2298.6 752.786 2309.5 752.5" stroke="#000000" stroke-width="0" stroke-linejoin="round" stroke-miterlimit="10" fill="none" fill-rule="evenodd"/><rect x="2118" y="1199" width="382" height="8.99988" fill="#7F7F7F"/><rect x="2150" y="1198" width="318" height="10" fill="#8F8F8F"/><rect x="2181" y="1198" width="256" height="10" fill="#9E9E9E"/><rect x="2212" y="1198" width="194" height="10" fill="#ADADAD"/><rect x="2243" y="1198" width="132" height="10" fill="#BDBDBD"/><rect x="2275" y="1199" width="68" height="8.99988" fill="#CCCCCC"/><rect x="2118.5" y="1199.5" width="382" height="9.00024" stroke="#000000" stroke-width="0" stroke-miterlimit="8" fill="none"/><path d="M2470.96 1094 2470.96 1179.05 2490 1188.6 2490 1198 2128 1198 2128 1188.6 2147.04 1179.05 2147.04 1094 2470.96 1094Z" fill="#B2B2B2" fill-rule="evenodd"/><path d="M2460.2 1094 2460.2 1179.05 2478 1188.6 2478 1198 2140 1198 2140 1188.6 2157.8 1179.05 2157.8 1094 2460.2 1094Z" fill="#B8B8B8" fill-rule="evenodd"/><path d="M2448.82 1094 2448.82 1179.05 2465 1188.6 2465 1198 2153 1198 2153 1188.6 2169.32 1179.05 2169.32 1094 2448.82 1094Z" fill="#BFBFBF" fill-rule="evenodd"/><path d="M2437.93 1094 2437.93 1179.05 2453 1188.6 2453 1198 2165 1198 2165 1188.6 2180.21 1179.05 2180.21 1094 2437.93 1094Z" fill="#C4C4C4" fill-rule="evenodd"/><path d="M2426.14 1094 2426.14 1179.05 2440 1188.6 2440 1198 2178 1198 2178 1188.6 2191.86 1179.05 2191.86 1094 2426.14 1094Z" fill="#C9C9C9" fill-rule="evenodd"/><path d="M2415.37 1094 2415.37 1179.05 2428 1188.6 2428 1198 2190 1198 2190 1188.6 2202.49 1179.05 2202.49 1094 2415.37 1094Z" fill="#D1D1D1" fill-rule="evenodd"/><path d="M2403.99 1094 2403.99 1179.05 2415 1188.6 2415 1198 2203 1198 2203 1188.6 2214.15 1179.05 2214.15 1094 2403.99 1094Z" fill="#D6D6D6" fill-rule="evenodd"/><path d="M2393.15 1094 2393.15 1179.05 2403 1188.6 2403 1198 2216 1198 2216 1188.6 2225.85 1179.05 2225.85 1094 2393.15 1094Z" fill="#DBDBDB" fill-rule="evenodd"/><path d="M2381.44 1094 2381.44 1179.05 2390 1188.6 2390 1198 2228 1198 2228 1188.6 2236.42 1179.05 2236.42 1094 2381.44 1094Z" fill="#E0E0E0" fill-rule="evenodd"/><path d="M2370.81 1094 2370.81 1179.05 2378 1188.6 2378 1198 2240 1198 2240 1188.6 2247.19 1179.05 2247.19 1094 2370.81 1094Z" fill="#E8E8E8" fill-rule="evenodd"/><path d="M2360.11 1094 2360.11 1179.05 2366 1188.6 2366 1198 2253 1198 2253 1188.6 2259.03 1179.05 2259.03 1094 2360.11 1094Z" fill="#EDEDED" fill-rule="evenodd"/><path d="M2348.27 1094 2348.27 1179.05 2353 1188.6 2353 1198 2265 1198 2265 1188.6 2269.59 1179.05 2269.59 1094 2348.27 1094Z" fill="#F2F2F2" fill-rule="evenodd"/><path d="M2336.74 1094 2336.74 1179.05 2340 1188.6 2340 1198 2278 1198 2278 1188.6 2281.26 1179.05 2281.26 1094 2336.74 1094Z" fill="#FAFAFA" fill-rule="evenodd"/><path d="M2325.98 1094 2325.98 1179.05 2328 1188.6 2328 1198 2290 1198 2290 1188.6 2292.02 1179.05 2292.02 1094 2325.98 1094Z" fill="#FFFFFF" fill-rule="evenodd"/><path d="M2471.46 1094.5 2471.46 1179.55 2490.5 1189.1 2490.5 1198.5 2128.5 1198.5 2128.5 1189.1 2147.54 1179.55 2147.54 1094.5 2471.46 1094.5" stroke="#000000" stroke-width="0" stroke-linejoin="round" stroke-miterlimit="10" fill="none" fill-rule="evenodd"/><path d="M2147.5 1179.5 2471.5 1179.5" stroke="#000000" stroke-width="0" stroke-linejoin="round" stroke-miterlimit="10" fill="none" fill-rule="evenodd"/><path d="M2128.5 1189.5 2490.5 1189.5" stroke="#000000" stroke-width="0" stroke-linejoin="round" stroke-miterlimit="10" fill="none" fill-rule="evenodd"/><path d="M2207.5 1179.5 2411.5 1179.5" stroke="#7F7F7F" stroke-width="0" stroke-linejoin="round" stroke-miterlimit="10" fill="none" fill-rule="evenodd"/><path d="M2195.5 1189.5 2423.5 1189.5" stroke="#7F7F7F" stroke-width="0" stroke-linejoin="round" stroke-miterlimit="10" fill="none" fill-rule="evenodd"/><path d="M2275.5 1179.5 2343.5 1179.5" stroke="#B2B2B2" stroke-width="0" stroke-linejoin="round" stroke-miterlimit="10" fill="none" fill-rule="evenodd"/><path d="M2271.5 1189.5 2347.5 1189.5" stroke="#B2B2B2" stroke-width="0" stroke-linejoin="round" stroke-miterlimit="10" fill="none" fill-rule="evenodd"/><path d="M2423 1115.46 2424.16 1109.16 2427.78 1103.72 2433.28 1100.29 2439.5 1099 2445 1099 2445 1175 2439.5 1175 2433.28 1173.71 2427.78 1170.28 2424.16 1164.84 2423 1158.68 2423 1115.46Z" fill="#7F7F7F" fill-rule="evenodd"/><path d="M2429.5 1115.96 2430.62 1109.66 2434.11 1104.22 2439.42 1100.79 2445.57 1099.5 2451.58 1100.79 2456.89 1104.22 2460.38 1109.66 2461.5 1115.96 2461.5 1159.18 2460.38 1165.34 2456.89 1170.78 2451.58 1174.21 2445.57 1175.5 2439.42 1174.21 2434.11 1170.78 2430.62 1165.34 2429.5 1159.18 2429.5 1115.96Z" stroke="#000000" stroke-width="0" stroke-linejoin="round" stroke-miterlimit="10" fill="#CCCCCC" fill-rule="evenodd"/><path d="M2448.5 1106.5 2451.79 1107.36 2454.93 1110.38 2456.93 1114.84 2457.5 1119.88 2457.5 1155.27 2456.93 1160.16 2454.93 1164.76 2451.79 1167.64 2448.5 1168.5" stroke="#000000" stroke-width="0" stroke-linejoin="round" stroke-miterlimit="10" fill="none" fill-rule="evenodd"/><path d="M2252.5 1102.5 2290.5 1102.5" stroke="#000000" stroke-width="0" stroke-linejoin="round" stroke-miterlimit="10" fill="none" fill-rule="evenodd"/><path d="M2252.5 1104.5 2290.5 1104.5" stroke="#000000" stroke-width="0" stroke-linejoin="round" stroke-miterlimit="10" fill="none" fill-rule="evenodd"/><path d="M2252.5 1107.5 2290.5 1107.5" stroke="#000000" stroke-width="0" stroke-linejoin="round" stroke-miterlimit="10" fill="none" fill-rule="evenodd"/><path d="M2252.5 1109.5 2290.5 1109.5" stroke="#000000" stroke-width="0" stroke-linejoin="round" stroke-miterlimit="10" fill="none" fill-rule="evenodd"/><path d="M2252.5 1111.5 2290.5 1111.5" stroke="#000000" stroke-width="0" stroke-linejoin="round" stroke-miterlimit="10" fill="none" fill-rule="evenodd"/><path d="M2252.5 1114.5 2290.5 1114.5" stroke="#000000" stroke-width="0" stroke-linejoin="round" stroke-miterlimit="10" fill="none" fill-rule="evenodd"/><path d="M2252.5 1116.5 2290.5 1116.5" stroke="#000000" stroke-width="0" stroke-linejoin="round" stroke-miterlimit="10" fill="none" fill-rule="evenodd"/><path d="M2252.5 1118.5 2290.5 1118.5" stroke="#000000" stroke-width="0" stroke-linejoin="round" stroke-miterlimit="10" fill="none" fill-rule="evenodd"/><path d="M2252.5 1120.5 2290.5 1120.5" stroke="#000000" stroke-width="0" stroke-linejoin="round" stroke-miterlimit="10" fill="none" fill-rule="evenodd"/><path d="M2252.5 1123.5 2290.5 1123.5" stroke="#000000" stroke-width="0" stroke-linejoin="round" stroke-miterlimit="10" fill="none" fill-rule="evenodd"/><path d="M2252.5 1125.5 2290.5 1125.5" stroke="#000000" stroke-width="0" stroke-linejoin="round" stroke-miterlimit="10" fill="none" fill-rule="evenodd"/><path d="M2252.5 1127.5 2290.5 1127.5" stroke="#000000" stroke-width="0" stroke-linejoin="round" stroke-miterlimit="10" fill="none" fill-rule="evenodd"/><path d="M2252.5 1130.5 2290.5 1130.5" stroke="#000000" stroke-width="0" stroke-linejoin="round" stroke-miterlimit="10" fill="none" fill-rule="evenodd"/><path d="M2252.5 1132.5 2290.5 1132.5" stroke="#000000" stroke-width="0" stroke-linejoin="round" stroke-miterlimit="10" fill="none" fill-rule="evenodd"/><path d="M2252.5 1135.5 2290.5 1135.5" stroke="#000000" stroke-width="0" stroke-linejoin="round" stroke-miterlimit="10" fill="none" fill-rule="evenodd"/><path d="M2252.5 1137.5 2290.5 1137.5" stroke="#000000" stroke-width="0" stroke-linejoin="round" stroke-miterlimit="10" fill="none" fill-rule="evenodd"/><path d="M2252.5 1139.5 2290.5 1139.5" stroke="#000000" stroke-width="0" stroke-linejoin="round" stroke-miterlimit="10" fill="none" fill-rule="evenodd"/><path d="M2252.5 1142.5 2290.5 1142.5" stroke="#000000" stroke-width="0" stroke-linejoin="round" stroke-miterlimit="10" fill="none" fill-rule="evenodd"/><path d="M2252.5 1144.5 2290.5 1144.5" stroke="#000000" stroke-width="0" stroke-linejoin="round" stroke-miterlimit="10" fill="none" fill-rule="evenodd"/><path d="M2252.5 1146.5 2290.5 1146.5" stroke="#000000" stroke-width="0" stroke-linejoin="round" stroke-miterlimit="10" fill="none" fill-rule="evenodd"/><path d="M2252.5 1149.5 2290.5 1149.5" stroke="#000000" stroke-width="0" stroke-linejoin="round" stroke-miterlimit="10" fill="none" fill-rule="evenodd"/><path d="M2252.5 1151.5 2290.5 1151.5" stroke="#000000" stroke-width="0" stroke-linejoin="round" stroke-miterlimit="10" fill="none" fill-rule="evenodd"/><path d="M2252.5 1154.5 2290.5 1154.5" stroke="#000000" stroke-width="0" stroke-linejoin="round" stroke-miterlimit="10" fill="none" fill-rule="evenodd"/><path d="M2252.5 1156.5 2290.5 1156.5" stroke="#000000" stroke-width="0" stroke-linejoin="round" stroke-miterlimit="10" fill="none" fill-rule="evenodd"/><path d="M2252.5 1158.5 2290.5 1158.5" stroke="#000000" stroke-width="0" stroke-linejoin="round" stroke-miterlimit="10" fill="none" fill-rule="evenodd"/><path d="M2252.5 1161.5 2290.5 1161.5" stroke="#000000" stroke-width="0" stroke-linejoin="round" stroke-miterlimit="10" fill="none" fill-rule="evenodd"/><path d="M2252.5 1163.5 2290.5 1163.5" stroke="#000000" stroke-width="0" stroke-linejoin="round" stroke-miterlimit="10" fill="none" fill-rule="evenodd"/><path d="M2252.5 1166.5 2290.5 1166.5" stroke="#000000" stroke-width="0" stroke-linejoin="round" stroke-miterlimit="10" fill="none" fill-rule="evenodd"/><path d="M2252.5 1168.5 2290.5 1168.5" stroke="#000000" stroke-width="0" stroke-linejoin="round" stroke-miterlimit="10" fill="none" fill-rule="evenodd"/><path d="M2252.5 1170.5 2290.5 1170.5" stroke="#000000" stroke-width="0" stroke-linejoin="round" stroke-miterlimit="10" fill="none" fill-rule="evenodd"/><path d="M2252.5 1173.5 2290.5 1173.5" stroke="#000000" stroke-width="0" stroke-linejoin="round" stroke-miterlimit="10" fill="none" fill-rule="evenodd"/><path d="M2252.5 1175.5 2290.5 1175.5" stroke="#000000" stroke-width="0" stroke-linejoin="round" stroke-miterlimit="10" fill="none" fill-rule="evenodd"/><rect x="2304" y="1161" width="9" height="28.0002" fill="#E5E5E5"/><rect x="2478" y="1161" width="10" height="28.0002" fill="#999999"/><rect x="2132" y="1161" width="10" height="28.0002" fill="#999999"/><rect x="2421" y="1161" width="9" height="28.0002" fill="#B2B2B2"/><rect x="2190" y="1161" width="9" height="28.0002" fill="#B2B2B2"/><rect x="2364" y="1161" width="9" height="28.0002" fill="#CCCCCC"/><rect x="2247" y="1161" width="9" height="28.0002" fill="#CCCCCC"/><rect x="2476" y="1161" width="2" height="28.0002" fill="#4C4C4C"/><rect x="2142" y="1161" width="2" height="28.0002" fill="#4C4C4C"/><rect x="2418" y="1161" width="3" height="28.0002" fill="#666666"/><rect x="2199" y="1161" width="3" height="28.0002" fill="#666666"/><rect x="2362" y="1161" width="2" height="28.0002" fill="#7F7F7F"/><rect x="2256" y="1161" width="3" height="28.0002" fill="#7F7F7F"/></g></svg>