<svg width="447" height="484" xmlns="http://www.w3.org/2000/svg" xmlns:xlink="http://www.w3.org/1999/xlink" overflow="hidden"><defs><clipPath id="clip0"><rect x="895" y="746" width="447" height="484"/></clipPath></defs><g clip-path="url(#clip0)" transform="translate(-895 -746)"><path d="M1118.5 760 1139.82 761.002 1160.57 764.153 1180.61 769.308 1199.92 776.325 1218.1 785.203 1235.56 795.657 1251.73 807.829 1266.47 821.29 1280.06 836.039 1292.22 852.221 1302.67 869.548 1311.54 887.734 1318.56 906.923 1323.71 926.971 1327 947.735 1327.71 958.188 1328 968.928 1327.71 979.812 1325.57 1000.72 1321.42 1021.05 1315.26 1040.67 1307.25 1059.43 1297.52 1077.19 1286.21 1093.94 1273.48 1109.41 1259.31 1123.58 1243.71 1136.33 1226.97 1147.64 1209.23 1157.38 1190.48 1165.26 1170.73 1171.41 1150.41 1175.57 1129.38 1177.71 1118.5 1178 1107.62 1177.71 1086.59 1175.57 1066.27 1171.41 1046.52 1165.26 1027.77 1157.38 1010.03 1147.64 993.286 1136.33 977.688 1123.58 963.521 1109.41 950.785 1093.94 939.48 1077.19 929.75 1059.43 921.736 1040.67 915.583 1021.05 911.433 1000.72 909.286 979.812 909 968.928 909.286 958.188 911.433 937.138 915.583 916.804 921.736 897.185 929.75 878.569 939.48 860.669 950.785 844.058 963.521 828.45 977.688 814.416 993.286 801.528 1010.03 790.358 1027.77 780.621 1046.52 772.745 1066.27 766.444 1086.59 762.434 1107.62 760.286 1118.5 760Z" fill="#A9D18E" fill-rule="evenodd"/><path d="M916 962.465 930.342 888.184 972.796 820.643 1040.49 778.053 1115.07 764 1189.51 778.053 1257.06 820.643 1299.94 888.184 1314 962.465 1299.94 1036.75 1257.06 1104 972.796 1104 930.342 1036.75 916 962.465Z" fill="#A9D18E" fill-rule="evenodd"/><path d="M924 955.164 937.587 884.942 977.633 821.598 1041.28 781.185 1111.5 768 1181.72 781.185 1245.37 821.598 1285.7 884.942 1299 955.164 1285.7 1025.39 1245.37 1089.02 1181.72 1129 1041.28 1129 977.633 1089.02 937.587 1025.39 924 955.164Z" fill="#A9D18E" fill-rule="evenodd"/><path d="M931 948.794 943.76 882.853 981.612 823.206 1041.69 785.301 1107.93 773 1174.31 785.301 1234.24 823.206 1272.38 882.853 1285 948.794 1272.38 1014.73 1234.24 1074.52 1174.31 1112 1041.69 1112 981.612 1074.52 943.76 1014.73 931 948.794Z" fill="#A9D18E" fill-rule="evenodd"/><path d="M938 942.5 949.909 880.402 985.634 824.327 1041.88 788.616 1104.14 777 1166.27 788.616 1222.65 824.327 1258.24 880.402 1270 942.5 1258.24 1004.45 1222.65 1060.53 1166.27 1095.95 1104.14 1108 1041.88 1095.95 985.634 1060.53 949.909 1004.45 938 942.5Z" fill="#A9D18E" fill-rule="evenodd"/><path d="M946 936.143 957.153 878.375 990.184 826.041 1042.8 793.01 1100.57 782 1158.48 793.01 1210.82 826.041 1243.99 878.375 1255 936.143 1243.99 993.768 1210.82 1046.1 1158.48 1078.99 1100.57 1090 1042.8 1078.99 990.184 1046.1 957.153 993.768 946 936.143Z" fill="#A9D18E" fill-rule="evenodd"/><path d="M953 929.428 963.332 875.643 994.184 827.021 1042.97 796.184 1096.93 786 1151.03 796.184 1199.82 827.021 1230.67 875.643 1241 929.428 1230.67 983.357 1199.82 1031.98 1151.03 1062.67 1096.93 1073 1042.97 1062.67 994.184 1031.98 963.332 983.357 953 929.428Z" fill="#A9D18E" fill-rule="evenodd"/><path d="M961 922.572 970.577 872.786 998.878 827.878 1043.76 799.326 1093.36 790 1143.1 799.326 1187.98 827.878 1216.57 872.786 1226 922.572 1216.57 972.214 1187.98 1017.27 1143.1 1045.39 1093.36 1055 1043.76 1045.39 998.878 1017.27 970.577 972.214 961 922.572Z" fill="#A9D18E" fill-rule="evenodd"/><path d="M968 916.5 976.725 870.884 1002.76 829.714 1043.8 803.464 1089.43 795 1135.05 803.464 1176.39 829.714 1202.42 870.884 1211 916.5 1202.42 961.973 1176.39 1003.29 1135.05 1029.25 1089.43 1038 1043.8 1029.25 1002.76 1003.29 976.725 961.973 968 916.5Z" fill="#A9D18E" fill-rule="evenodd"/><path d="M975 909.285 982.898 867.838 1006.59 830.407 1044.21 806.744 1085.86 799 1127.64 806.744 1165.27 830.407 1189.1 867.838 1197 909.285 1189.1 950.875 1165.27 988.306 1127.64 1011.97 1085.86 1020 1044.21 1011.97 1006.59 988.306 982.898 950.875 975 909.285Z" fill="#A9D18E" fill-rule="evenodd"/><path d="M982 902.572 989.04 865.179 1010.59 831.51 1044.5 810.163 1081.86 803 1119.5 810.163 1153.55 831.51 1174.82 865.179 1182 902.572 1174.82 939.965 1153.55 973.49 1119.5 994.837 1081.86 1002 1044.5 994.837 1010.59 973.49 989.04 939.965 982 902.572Z" fill="#A9D18E" fill-rule="evenodd"/><path d="M990 896.5 996.286 863.277 1015.29 833.347 1045.29 814.301 1078.43 808 1111.71 814.301 1141.71 833.347 1160.57 863.277 1167 896.5 1160.57 929.723 1141.71 959.796 1111.71 978.556 1078.43 985 1045.29 978.556 1015.29 959.796 996.286 929.723 990 896.5Z" fill="#A9D18E" fill-rule="evenodd"/><path d="M997 889.357 1002.57 860.276 1019.14 834.204 1045.43 817.444 1074.43 812 1103.71 817.444 1130 834.204 1146.43 860.276 1152 889.357 1146.43 918.58 1130 944.939 1103.71 961.27 1074.43 967 1045.43 961.27 1019.14 944.939 1002.57 918.58 997 889.357Z" fill="#A9D18E" fill-rule="evenodd"/><path d="M1004 883.429 1008.74 858.375 1023.12 835.898 1045.84 821.725 1071 817 1096.16 821.725 1118.88 835.898 1133.11 858.375 1138 883.429 1133.11 908.482 1118.88 930.959 1096.16 945.133 1071 950 1045.84 945.133 1023.12 930.959 1008.74 908.482 1004 883.429Z" fill="#A9D18E" fill-rule="evenodd"/><path d="M1119 760.5 1140.32 761.502 1161.07 764.653 1181.11 769.808 1200.42 776.825 1218.6 785.703 1236.06 796.157 1252.23 808.329 1266.97 821.789 1280.56 836.539 1292.72 852.721 1303.17 870.048 1312.04 888.234 1319.06 907.423 1324.21 927.471 1327.5 948.235 1328.21 958.688 1328.5 969.428 1328.21 980.311 1326.07 1001.22 1321.92 1021.55 1315.76 1041.17 1307.75 1059.93 1298.02 1077.69 1286.71 1094.44 1273.98 1109.91 1259.81 1124.08 1244.21 1136.83 1227.47 1148.14 1209.73 1157.88 1190.98 1165.76 1171.23 1171.91 1150.91 1176.07 1129.88 1178.21 1119 1178.5 1108.12 1178.21 1087.09 1176.07 1066.77 1171.91 1047.02 1165.76 1028.27 1157.88 1010.53 1148.14 993.787 1136.83 978.189 1124.08 964.022 1109.91 951.286 1094.44 939.981 1077.69 930.25 1059.93 922.236 1041.17 916.083 1021.55 911.933 1001.22 909.786 980.311 909.5 969.428 909.786 958.688 911.933 937.638 916.083 917.304 922.236 897.685 930.25 879.069 939.981 861.169 951.286 844.558 964.022 828.949 978.189 814.916 993.787 802.028 1010.53 790.858 1028.27 781.121 1047.02 773.245 1066.77 766.944 1087.09 762.934 1108.12 760.786 1119 760.5" stroke="#000000" stroke-width="0" stroke-linejoin="round" stroke-miterlimit="10" fill="none" fill-rule="evenodd"/><rect x="928" y="1207" width="381" height="8.99988" fill="#7F7F7F"/><rect x="959" y="1206" width="319" height="10" fill="#8F8F8F"/><rect x="990" y="1206" width="257" height="10" fill="#9E9E9E"/><rect x="1022" y="1206" width="194" height="10" fill="#ADADAD"/><rect x="1053" y="1206" width="132" height="10" fill="#BDBDBD"/><rect x="1084" y="1207" width="69.0001" height="8.99988" fill="#CCCCCC"/><rect x="928.5" y="1207.5" width="381" height="8.99988" stroke="#000000" stroke-width="0" stroke-miterlimit="8" fill="none"/><path d="M1280.96 1102 1280.96 1187.05 1300 1196.6 1300 1206 938 1206 938 1196.6 957.038 1187.05 957.038 1102 1280.96 1102Z" fill="#B2B2B2" fill-rule="evenodd"/><path d="M1270.2 1102 1270.2 1187.05 1288 1196.6 1288 1206 950 1206 950 1196.6 967.797 1187.05 967.797 1102 1270.2 1102Z" fill="#B8B8B8" fill-rule="evenodd"/><path d="M1258.82 1102 1258.82 1187.05 1275 1196.6 1275 1206 963 1206 963 1196.6 979.323 1187.05 979.323 1102 1258.82 1102Z" fill="#BFBFBF" fill-rule="evenodd"/><path d="M1246.98 1102 1246.98 1187.05 1262 1196.6 1262 1206 975 1206 975 1196.6 990.158 1187.05 990.158 1102 1246.98 1102Z" fill="#C4C4C4" fill-rule="evenodd"/><path d="M1236.08 1102 1236.08 1187.05 1250 1196.6 1250 1206 987 1206 987 1196.6 1000.92 1187.05 1000.92 1102 1236.08 1102Z" fill="#C9C9C9" fill-rule="evenodd"/><path d="M1225.37 1102 1225.37 1187.05 1238 1196.6 1238 1206 1000 1206 1000 1196.6 1012.49 1187.05 1012.49 1102 1225.37 1102Z" fill="#D1D1D1" fill-rule="evenodd"/><path d="M1213.99 1102 1213.99 1187.05 1225 1196.6 1225 1206 1013 1206 1013 1196.6 1024.15 1187.05 1024.15 1102 1213.99 1102Z" fill="#D6D6D6" fill-rule="evenodd"/><path d="M1203.1 1102 1203.1 1187.05 1213 1196.6 1213 1206 1025 1206 1025 1196.6 1034.9 1187.05 1034.9 1102 1203.1 1102Z" fill="#DBDBDB" fill-rule="evenodd"/><path d="M1191.44 1102 1191.44 1187.05 1200 1196.6 1200 1206 1038 1206 1038 1196.6 1046.42 1187.05 1046.42 1102 1191.44 1102Z" fill="#E0E0E0" fill-rule="evenodd"/><path d="M1180.81 1102 1180.81 1187.05 1188 1196.6 1188 1206 1050 1206 1050 1196.6 1057.19 1187.05 1057.19 1102 1180.81 1102Z" fill="#E8E8E8" fill-rule="evenodd"/><path d="M1169.17 1102 1169.17 1187.05 1175 1196.6 1175 1206 1063 1206 1063 1196.6 1068.98 1187.05 1068.98 1102 1169.17 1102Z" fill="#EDEDED" fill-rule="evenodd"/><path d="M1158.27 1102 1158.27 1187.05 1163 1196.6 1163 1206 1075 1206 1075 1196.6 1079.59 1187.05 1079.59 1102 1158.27 1102Z" fill="#F2F2F2" fill-rule="evenodd"/><path d="M1146.74 1102 1146.74 1187.05 1150 1196.6 1150 1206 1088 1206 1088 1196.6 1091.26 1187.05 1091.26 1102 1146.74 1102Z" fill="#FAFAFA" fill-rule="evenodd"/><path d="M1135.98 1102 1135.98 1187.05 1138 1196.6 1138 1206 1100 1206 1100 1196.6 1102.02 1187.05 1102.02 1102 1135.98 1102Z" fill="#FFFFFF" fill-rule="evenodd"/><path d="M1281.46 1102.5 1281.46 1187.55 1300.5 1197.1 1300.5 1206.5 938.5 1206.5 938.5 1197.1 957.537 1187.55 957.537 1102.5 1281.46 1102.5" stroke="#000000" stroke-width="0" stroke-linejoin="round" stroke-miterlimit="10" fill="none" fill-rule="evenodd"/><path d="M957.5 1187.5 1281.5 1187.5" stroke="#000000" stroke-width="0" stroke-linejoin="round" stroke-miterlimit="10" fill="none" fill-rule="evenodd"/><path d="M938.5 1197.5 1300.5 1197.5" stroke="#000000" stroke-width="0" stroke-linejoin="round" stroke-miterlimit="10" fill="none" fill-rule="evenodd"/><path d="M1017.5 1187.5 1221.5 1187.5" stroke="#7F7F7F" stroke-width="0" stroke-linejoin="round" stroke-miterlimit="10" fill="none" fill-rule="evenodd"/><path d="M1005.5 1197.5 1233.5 1197.5" stroke="#7F7F7F" stroke-width="0" stroke-linejoin="round" stroke-miterlimit="10" fill="none" fill-rule="evenodd"/><path d="M1085.5 1187.5 1153.5 1187.5" stroke="#B2B2B2" stroke-width="0" stroke-linejoin="round" stroke-miterlimit="10" fill="none" fill-rule="evenodd"/><path d="M1081.5 1197.5 1157.5 1197.5" stroke="#B2B2B2" stroke-width="0" stroke-linejoin="round" stroke-miterlimit="10" fill="none" fill-rule="evenodd"/><path d="M1233 1122.68 1234.16 1116.3 1237.78 1110.79 1243.28 1107.3 1249.5 1106 1255 1106 1255 1183 1249.5 1183 1243.28 1181.69 1237.78 1178.21 1234.16 1172.7 1233 1166.47 1233 1122.68Z" fill="#7F7F7F" fill-rule="evenodd"/><path d="M1238.5 1123.18 1239.65 1116.8 1243.26 1111.29 1248.73 1107.81 1255.07 1106.5 1261.27 1107.81 1266.74 1111.29 1270.35 1116.8 1271.5 1123.18 1271.5 1166.97 1270.35 1173.2 1266.74 1178.71 1261.27 1182.19 1255.07 1183.5 1248.73 1182.19 1243.26 1178.71 1239.65 1173.2 1238.5 1166.97 1238.5 1123.18Z" stroke="#000000" stroke-width="0" stroke-linejoin="round" stroke-miterlimit="10" fill="#CCCCCC" fill-rule="evenodd"/><path d="M1257.5 1114.5 1260.79 1115.36 1263.93 1118.38 1265.93 1122.84 1266.5 1127.88 1266.5 1163.27 1265.93 1168.16 1263.93 1172.76 1260.79 1175.64 1257.5 1176.5" stroke="#000000" stroke-width="0" stroke-linejoin="round" stroke-miterlimit="10" fill="none" fill-rule="evenodd"/><path d="M1061.5 1109.5 1100.5 1109.5" stroke="#000000" stroke-width="0" stroke-linejoin="round" stroke-miterlimit="10" fill="none" fill-rule="evenodd"/><path d="M1061.5 1112.5 1100.5 1112.5" stroke="#000000" stroke-width="0" stroke-linejoin="round" stroke-miterlimit="10" fill="none" fill-rule="evenodd"/><path d="M1061.5 1114.5 1100.5 1114.5" stroke="#000000" stroke-width="0" stroke-linejoin="round" stroke-miterlimit="10" fill="none" fill-rule="evenodd"/><path d="M1061.5 1117.5 1100.5 1117.5" stroke="#000000" stroke-width="0" stroke-linejoin="round" stroke-miterlimit="10" fill="none" fill-rule="evenodd"/><path d="M1061.5 1119.5 1100.5 1119.5" stroke="#000000" stroke-width="0" stroke-linejoin="round" stroke-miterlimit="10" fill="none" fill-rule="evenodd"/><path d="M1061.5 1121.5 1100.5 1121.5" stroke="#000000" stroke-width="0" stroke-linejoin="round" stroke-miterlimit="10" fill="none" fill-rule="evenodd"/><path d="M1061.5 1124.5 1100.5 1124.5" stroke="#000000" stroke-width="0" stroke-linejoin="round" stroke-miterlimit="10" fill="none" fill-rule="evenodd"/><path d="M1061.5 1126.5 1100.5 1126.5" stroke="#000000" stroke-width="0" stroke-linejoin="round" stroke-miterlimit="10" fill="none" fill-rule="evenodd"/><path d="M1061.5 1128.5 1100.5 1128.5" stroke="#000000" stroke-width="0" stroke-linejoin="round" stroke-miterlimit="10" fill="none" fill-rule="evenodd"/><path d="M1061.5 1130.5 1100.5 1130.5" stroke="#000000" stroke-width="0" stroke-linejoin="round" stroke-miterlimit="10" fill="none" fill-rule="evenodd"/><path d="M1061.5 1133.5 1100.5 1133.5" stroke="#000000" stroke-width="0" stroke-linejoin="round" stroke-miterlimit="10" fill="none" fill-rule="evenodd"/><path d="M1061.5 1135.5 1100.5 1135.5" stroke="#000000" stroke-width="0" stroke-linejoin="round" stroke-miterlimit="10" fill="none" fill-rule="evenodd"/><path d="M1061.5 1137.5 1100.5 1137.5" stroke="#000000" stroke-width="0" stroke-linejoin="round" stroke-miterlimit="10" fill="none" fill-rule="evenodd"/><path d="M1061.5 1140.5 1100.5 1140.5" stroke="#000000" stroke-width="0" stroke-linejoin="round" stroke-miterlimit="10" fill="none" fill-rule="evenodd"/><path d="M1061.5 1143.5 1100.5 1143.5" stroke="#000000" stroke-width="0" stroke-linejoin="round" stroke-miterlimit="10" fill="none" fill-rule="evenodd"/><path d="M1061.5 1145.5 1100.5 1145.5" stroke="#000000" stroke-width="0" stroke-linejoin="round" stroke-miterlimit="10" fill="none" fill-rule="evenodd"/><path d="M1061.5 1147.5 1100.5 1147.5" stroke="#000000" stroke-width="0" stroke-linejoin="round" stroke-miterlimit="10" fill="none" fill-rule="evenodd"/><path d="M1061.5 1149.5 1100.5 1149.5" stroke="#000000" stroke-width="0" stroke-linejoin="round" stroke-miterlimit="10" fill="none" fill-rule="evenodd"/><path d="M1061.5 1152.5 1100.5 1152.5" stroke="#000000" stroke-width="0" stroke-linejoin="round" stroke-miterlimit="10" fill="none" fill-rule="evenodd"/><path d="M1061.5 1154.5 1100.5 1154.5" stroke="#000000" stroke-width="0" stroke-linejoin="round" stroke-miterlimit="10" fill="none" fill-rule="evenodd"/><path d="M1061.5 1157.5 1100.5 1157.5" stroke="#000000" stroke-width="0" stroke-linejoin="round" stroke-miterlimit="10" fill="none" fill-rule="evenodd"/><path d="M1061.5 1159.5 1100.5 1159.5" stroke="#000000" stroke-width="0" stroke-linejoin="round" stroke-miterlimit="10" fill="none" fill-rule="evenodd"/><path d="M1061.5 1161.5 1100.5 1161.5" stroke="#000000" stroke-width="0" stroke-linejoin="round" stroke-miterlimit="10" fill="none" fill-rule="evenodd"/><path d="M1061.5 1164.5 1100.5 1164.5" stroke="#000000" stroke-width="0" stroke-linejoin="round" stroke-miterlimit="10" fill="none" fill-rule="evenodd"/><path d="M1061.5 1166.5 1100.5 1166.5" stroke="#000000" stroke-width="0" stroke-linejoin="round" stroke-miterlimit="10" fill="none" fill-rule="evenodd"/><path d="M1061.5 1168.5 1100.5 1168.5" stroke="#000000" stroke-width="0" stroke-linejoin="round" stroke-miterlimit="10" fill="none" fill-rule="evenodd"/><path d="M1061.5 1171.5 1100.5 1171.5" stroke="#000000" stroke-width="0" stroke-linejoin="round" stroke-miterlimit="10" fill="none" fill-rule="evenodd"/><path d="M1061.5 1173.5 1100.5 1173.5" stroke="#000000" stroke-width="0" stroke-linejoin="round" stroke-miterlimit="10" fill="none" fill-rule="evenodd"/><path d="M1061.5 1176.5 1100.5 1176.5" stroke="#000000" stroke-width="0" stroke-linejoin="round" stroke-miterlimit="10" fill="none" fill-rule="evenodd"/><path d="M1061.5 1178.5 1100.5 1178.5" stroke="#000000" stroke-width="0" stroke-linejoin="round" stroke-miterlimit="10" fill="none" fill-rule="evenodd"/><path d="M1061.5 1180.5 1100.5 1180.5" stroke="#000000" stroke-width="0" stroke-linejoin="round" stroke-miterlimit="10" fill="none" fill-rule="evenodd"/><path d="M1061.5 1183.5 1100.5 1183.5" stroke="#000000" stroke-width="0" stroke-linejoin="round" stroke-miterlimit="10" fill="none" fill-rule="evenodd"/><rect x="1114" y="1168" width="8.99988" height="28.9999" fill="#E5E5E5"/><rect x="1288" y="1168" width="8.99988" height="28.9999" fill="#999999"/><rect x="942" y="1168" width="9.99994" height="28.9999" fill="#999999"/><rect x="1231" y="1168" width="8.99988" height="28.9999" fill="#B2B2B2"/><rect x="999" y="1168" width="9.99994" height="28.9999" fill="#B2B2B2"/><rect x="1174" y="1168" width="8.99988" height="28.9999" fill="#CCCCCC"/><rect x="1057" y="1168" width="8.99988" height="28.9999" fill="#CCCCCC"/><rect x="1285" y="1168" width="3.00012" height="28.9999" fill="#4C4C4C"/><rect x="952" y="1168" width="2.00006" height="28.9999" fill="#4C4C4C"/><rect x="1228" y="1168" width="3.00012" height="28.9999" fill="#666666"/><rect x="1009" y="1168" width="3.00012" height="28.9999" fill="#666666"/><rect x="1171" y="1168" width="2.99976" height="28.9999" fill="#7F7F7F"/><rect x="1066" y="1168" width="3.00012" height="28.9999" fill="#7F7F7F"/></g></svg>