<svg width="447" height="484" xmlns="http://www.w3.org/2000/svg" xmlns:xlink="http://www.w3.org/1999/xlink" overflow="hidden"><defs><clipPath id="clip0"><rect x="267" y="743" width="447" height="484"/></clipPath></defs><g clip-path="url(#clip0)" transform="translate(-267 -743)"><path d="M490.5 757 511.822 758.002 532.572 761.153 552.606 766.308 571.924 773.325 590.098 782.203 607.557 792.657 623.727 804.829 638.466 818.289 652.061 833.039 664.225 849.221 674.671 866.548 683.543 884.734 690.555 903.923 695.707 923.971 698.998 944.735 699.714 955.188 700 965.928 699.714 976.812 697.567 997.719 693.417 1018.05 687.264 1037.67 679.25 1056.43 669.519 1074.19 658.214 1090.94 645.478 1106.41 631.311 1120.58 615.713 1133.33 598.97 1144.64 581.226 1154.38 562.48 1162.26 542.732 1168.41 522.411 1172.57 501.376 1174.71 490.5 1175 479.624 1174.71 458.588 1172.57 438.268 1168.41 418.52 1162.26 399.774 1154.38 382.029 1144.64 365.286 1133.33 349.688 1120.58 335.521 1106.41 322.785 1090.94 311.48 1074.19 301.75 1056.43 293.736 1037.67 287.582 1018.05 283.433 997.719 281.286 976.812 281 965.928 281.286 955.188 283.433 934.138 287.582 913.804 293.736 894.185 301.75 875.569 311.48 857.669 322.785 841.058 335.521 825.449 349.688 811.416 365.286 798.528 382.029 787.358 399.774 777.621 418.52 769.745 438.268 763.444 458.588 759.434 479.624 757.286 490.5 757Z" fill="#FFD966" fill-rule="evenodd"/><path d="M288 959.465 302.342 885.184 344.796 817.643 412.492 775.053 487.072 761 561.509 775.053 629.061 817.643 671.945 885.184 686 959.465 671.945 1033.75 629.061 1101 344.796 1101 302.342 1033.75 288 959.465Z" fill="#FFD966" fill-rule="evenodd"/><path d="M296 952.164 309.587 881.942 349.633 818.598 413.277 778.184 483.5 765 553.723 778.184 617.367 818.598 657.699 881.942 671 952.164 657.699 1022.39 617.367 1086.02 553.723 1126 413.277 1126 349.633 1086.02 309.587 1022.39 296 952.164Z" fill="#FFD966" fill-rule="evenodd"/><path d="M303 945.794 315.76 879.853 353.612 820.206 413.688 782.301 479.928 770 546.312 782.301 606.244 820.206 644.383 879.853 657 945.794 644.383 1011.73 606.244 1071.52 546.312 1109 413.688 1109 353.612 1071.52 315.76 1011.73 303 945.794Z" fill="#FFD966" fill-rule="evenodd"/><path d="M310 939.5 321.908 877.402 357.634 821.327 413.876 785.617 476.144 774 538.268 785.617 594.654 821.327 630.235 877.402 642 939.5 630.235 1001.46 594.654 1057.53 538.268 1092.95 476.144 1105 413.876 1092.95 357.634 1057.53 321.908 1001.46 310 939.5Z" fill="#FFD966" fill-rule="evenodd"/><path d="M317 933.143 328.189 875.375 361.327 823.041 414.117 790.01 472.072 779 530.17 790.01 582.673 823.041 615.954 875.375 627 933.143 615.954 990.768 582.673 1043.1 530.17 1075.99 472.072 1087 414.117 1075.99 361.327 1043.1 328.189 990.768 317 933.143Z" fill="#FFD966" fill-rule="evenodd"/><path d="M325 926.428 335.296 872.643 366.041 824.021 414.661 793.183 468.428 783 522.339 793.183 570.959 824.021 601.704 872.643 612 926.428 601.704 980.357 570.959 1028.98 522.339 1059.67 468.428 1070 414.661 1059.67 366.041 1028.98 335.296 980.357 325 926.428Z" fill="#FFD966" fill-rule="evenodd"/><path d="M332 919.572 341.613 869.785 370.021 824.877 415.071 796.326 464.857 787 514.785 796.326 559.836 824.877 588.531 869.785 598 919.572 588.531 969.214 559.836 1014.27 514.785 1042.39 464.857 1052 415.071 1042.39 370.021 1014.27 341.613 969.214 332 919.572Z" fill="#FFD966" fill-rule="evenodd"/><path d="M340 913.5 348.725 867.884 374.755 826.714 415.803 800.463 461.428 792 507.054 800.463 548.388 826.714 574.418 867.884 583 913.5 574.418 958.973 548.388 1000.29 507.054 1026.25 461.428 1035 415.803 1026.25 374.755 1000.29 348.725 958.973 340 913.5Z" fill="#FFD966" fill-rule="evenodd"/><path d="M347 906.285 354.862 864.839 378.449 827.408 415.902 803.744 457.357 796 498.955 803.744 536.408 827.408 560.138 864.839 568 906.285 560.138 947.875 536.408 985.306 498.955 1008.97 457.357 1017 415.902 1008.97 378.449 985.306 354.862 947.875 347 906.285Z" fill="#FFD966" fill-rule="evenodd"/><path d="M354 899.572 361.005 862.178 382.449 828.51 416.188 807.163 453.357 800 490.813 807.163 524.694 828.51 545.852 862.178 553 899.572 545.852 936.965 524.694 970.49 490.813 991.836 453.357 999 416.188 991.836 382.449 970.49 361.005 936.965 354 899.572Z" fill="#FFD966" fill-rule="evenodd"/><path d="M362 893.5 368.286 860.277 387.286 830.347 417.286 811.301 450.429 805 483.714 811.301 513.714 830.347 532.571 860.277 539 893.5 532.571 926.723 513.714 956.796 483.714 975.556 450.429 982 417.286 975.556 387.286 956.796 368.286 926.723 362 893.5Z" fill="#FFD966" fill-rule="evenodd"/><path d="M369 886.357 374.571 857.276 391.143 831.204 417.428 814.443 446.428 809 475.714 814.443 502 831.204 518.428 857.276 524 886.357 518.428 915.58 502 941.939 475.714 958.27 446.428 964 417.428 958.27 391.143 941.939 374.571 915.58 369 886.357Z" fill="#FFD966" fill-rule="evenodd"/><path d="M376 880.428 380.709 855.375 394.98 832.898 417.527 818.724 442.5 814 467.473 818.724 490.02 832.898 504.148 855.375 509 880.428 504.148 905.482 490.02 927.959 467.473 942.132 442.5 947 417.527 942.132 394.98 927.959 380.709 905.482 376 880.428Z" fill="#FFD966" fill-rule="evenodd"/><path d="M491 757.5 512.322 758.503 533.072 761.653 553.106 766.808 572.425 773.825 590.598 782.703 608.057 793.157 624.227 805.329 638.967 818.79 652.561 833.539 664.725 849.721 675.171 867.048 684.043 885.234 691.055 904.423 696.207 924.471 699.498 945.235 700.214 955.689 700.5 966.429 700.214 977.312 698.067 998.219 693.917 1018.55 687.764 1038.17 679.75 1056.93 670.02 1074.69 658.715 1091.44 645.979 1106.91 631.812 1121.08 616.214 1133.83 599.471 1145.14 581.726 1154.88 562.98 1162.76 543.232 1168.91 522.912 1173.07 501.876 1175.21 491 1175.5 480.124 1175.21 459.089 1173.07 438.768 1168.91 419.02 1162.76 400.274 1154.88 382.529 1145.14 365.787 1133.83 350.189 1121.08 336.022 1106.91 323.286 1091.44 311.981 1074.69 302.25 1056.93 294.236 1038.17 288.083 1018.55 283.933 998.219 281.786 977.312 281.5 966.429 281.786 955.689 283.933 934.638 288.083 914.304 294.236 894.685 302.25 876.07 311.981 858.17 323.286 841.558 336.022 825.95 350.189 811.916 365.787 799.028 382.529 787.858 400.274 778.121 419.02 770.245 438.768 763.944 459.089 759.935 480.124 757.786 491 757.5" stroke="#000000" stroke-width="0" stroke-linejoin="round" stroke-miterlimit="10" fill="none" fill-rule="evenodd"/><rect x="300" y="1204" width="381" height="8.99988" fill="#7F7F7F"/><rect x="331" y="1203" width="319" height="10" fill="#8F8F8F"/><rect x="362" y="1203" width="257" height="10" fill="#9E9E9E"/><rect x="394" y="1203" width="194" height="10" fill="#ADADAD"/><rect x="425" y="1203" width="131" height="10" fill="#BDBDBD"/><rect x="456" y="1204" width="68.9997" height="8.99988" fill="#CCCCCC"/><rect x="300.5" y="1204.5" width="381" height="8.99988" stroke="#000000" stroke-width="0" stroke-miterlimit="8" fill="none"/><path d="M651.962 1099 651.962 1184.05 671 1193.6 671 1203 309 1203 309 1193.6 328.038 1184.05 328.038 1099 651.962 1099Z" fill="#B2B2B2" fill-rule="evenodd"/><path d="M641.256 1099 641.256 1184.05 659 1193.6 659 1203 322 1203 322 1193.6 339.744 1184.05 339.744 1099 641.256 1099Z" fill="#B8B8B8" fill-rule="evenodd"/><path d="M630.82 1099 630.82 1184.05 647 1193.6 647 1203 335 1203 335 1193.6 351.323 1184.05 351.323 1099 630.82 1099Z" fill="#BFBFBF" fill-rule="evenodd"/><path d="M618.985 1099 618.985 1184.05 634 1193.6 634 1203 347 1203 347 1193.6 362.158 1184.05 362.158 1099 618.985 1099Z" fill="#C4C4C4" fill-rule="evenodd"/><path d="M608.082 1099 608.082 1184.05 622 1193.6 622 1203 359 1203 359 1193.6 372.918 1184.05 372.918 1099 608.082 1099Z" fill="#C9C9C9" fill-rule="evenodd"/><path d="M597.368 1099 597.368 1184.05 610 1193.6 610 1203 372 1203 372 1193.6 384.488 1184.05 384.488 1099 597.368 1099Z" fill="#D1D1D1" fill-rule="evenodd"/><path d="M585.941 1099 585.941 1184.05 597 1193.6 597 1203 384 1203 384 1193.6 395.203 1184.05 395.203 1099 585.941 1099Z" fill="#D6D6D6" fill-rule="evenodd"/><path d="M574.15 1099 574.15 1184.05 584 1193.6 584 1203 397 1203 397 1193.6 406.85 1184.05 406.85 1099 574.15 1099Z" fill="#DBDBDB" fill-rule="evenodd"/><path d="M563.436 1099 563.436 1184.05 572 1193.6 572 1203 410 1203 410 1193.6 418.421 1184.05 418.421 1099 563.436 1099Z" fill="#E0E0E0" fill-rule="evenodd"/><path d="M552.812 1099 552.812 1184.05 560 1193.6 560 1203 422 1203 422 1193.6 429.188 1184.05 429.188 1099 552.812 1099Z" fill="#E8E8E8" fill-rule="evenodd"/><path d="M541.113 1099 541.113 1184.05 547 1193.6 547 1203 434 1203 434 1193.6 440.031 1184.05 440.031 1099 541.113 1099Z" fill="#EDEDED" fill-rule="evenodd"/><path d="M530.27 1099 530.27 1184.05 535 1193.6 535 1203 447 1203 447 1193.6 451.586 1184.05 451.586 1099 530.27 1099Z" fill="#F2F2F2" fill-rule="evenodd"/><path d="M518.692 1099 518.692 1184.05 522 1193.6 522 1203 459 1203 459 1193.6 462.308 1184.05 462.308 1099 518.692 1099Z" fill="#FAFAFA" fill-rule="evenodd"/><path d="M507.038 1099 507.038 1184.05 509 1193.6 509 1203 472 1203 472 1193.6 473.962 1184.05 473.962 1099 507.038 1099Z" fill="#FFFFFF" fill-rule="evenodd"/><path d="M652.462 1099.5 652.462 1184.55 671.5 1194.1 671.5 1203.5 309.5 1203.5 309.5 1194.1 328.537 1184.55 328.537 1099.5 652.462 1099.5" stroke="#000000" stroke-width="0" stroke-linejoin="round" stroke-miterlimit="10" fill="none" fill-rule="evenodd"/><path d="M328.5 1184.5 653.5 1184.5" stroke="#000000" stroke-width="0" stroke-linejoin="round" stroke-miterlimit="10" fill="none" fill-rule="evenodd"/><path d="M309.5 1194.5 671.5 1194.5" stroke="#000000" stroke-width="0" stroke-linejoin="round" stroke-miterlimit="10" fill="none" fill-rule="evenodd"/><path d="M388.5 1184.5 593.5 1184.5" stroke="#7F7F7F" stroke-width="0" stroke-linejoin="round" stroke-miterlimit="10" fill="none" fill-rule="evenodd"/><path d="M376.5 1194.5 605.5 1194.5" stroke="#7F7F7F" stroke-width="0" stroke-linejoin="round" stroke-miterlimit="10" fill="none" fill-rule="evenodd"/><path d="M457.5 1184.5 525.5 1184.5" stroke="#B2B2B2" stroke-width="0" stroke-linejoin="round" stroke-miterlimit="10" fill="none" fill-rule="evenodd"/><path d="M453.5 1194.5 529.5 1194.5" stroke="#B2B2B2" stroke-width="0" stroke-linejoin="round" stroke-miterlimit="10" fill="none" fill-rule="evenodd"/><path d="M605 1119.68 606.158 1113.3 609.776 1107.79 615.276 1104.31 621.5 1103 627 1103 627 1180 621.5 1180 615.276 1178.7 609.776 1175.21 606.158 1169.7 605 1163.47 605 1119.68Z" fill="#7F7F7F" fill-rule="evenodd"/><path d="M610.5 1120.18 611.653 1113.8 615.255 1108.29 620.731 1104.8 627.072 1103.5 633.269 1104.8 638.745 1108.29 642.347 1113.8 643.5 1120.18 643.5 1163.97 642.347 1170.2 638.745 1175.71 633.269 1179.19 627.072 1180.5 620.731 1179.19 615.255 1175.71 611.653 1170.2 610.5 1163.97 610.5 1120.18Z" stroke="#000000" stroke-width="0" stroke-linejoin="round" stroke-miterlimit="10" fill="#CCCCCC" fill-rule="evenodd"/><path d="M629.5 1111.5 632.786 1112.36 635.928 1115.38 637.928 1119.84 638.5 1124.88 638.5 1160.27 637.928 1165.16 635.928 1169.76 632.786 1172.64 629.5 1173.5" stroke="#000000" stroke-width="0" stroke-linejoin="round" stroke-miterlimit="10" fill="none" fill-rule="evenodd"/><path d="M433.5 1106.5 472.5 1106.5" stroke="#000000" stroke-width="0" stroke-linejoin="round" stroke-miterlimit="10" fill="none" fill-rule="evenodd"/><path d="M433.5 1109.5 472.5 1109.5" stroke="#000000" stroke-width="0" stroke-linejoin="round" stroke-miterlimit="10" fill="none" fill-rule="evenodd"/><path d="M433.5 1111.5 472.5 1111.5" stroke="#000000" stroke-width="0" stroke-linejoin="round" stroke-miterlimit="10" fill="none" fill-rule="evenodd"/><path d="M433.5 1114.5 472.5 1114.5" stroke="#000000" stroke-width="0" stroke-linejoin="round" stroke-miterlimit="10" fill="none" fill-rule="evenodd"/><path d="M433.5 1116.5 472.5 1116.5" stroke="#000000" stroke-width="0" stroke-linejoin="round" stroke-miterlimit="10" fill="none" fill-rule="evenodd"/><path d="M433.5 1118.5 472.5 1118.5" stroke="#000000" stroke-width="0" stroke-linejoin="round" stroke-miterlimit="10" fill="none" fill-rule="evenodd"/><path d="M433.5 1121.5 472.5 1121.5" stroke="#000000" stroke-width="0" stroke-linejoin="round" stroke-miterlimit="10" fill="none" fill-rule="evenodd"/><path d="M433.5 1123.5 472.5 1123.5" stroke="#000000" stroke-width="0" stroke-linejoin="round" stroke-miterlimit="10" fill="none" fill-rule="evenodd"/><path d="M433.5 1125.5 472.5 1125.5" stroke="#000000" stroke-width="0" stroke-linejoin="round" stroke-miterlimit="10" fill="none" fill-rule="evenodd"/><path d="M433.5 1128.5 472.5 1128.5" stroke="#000000" stroke-width="0" stroke-linejoin="round" stroke-miterlimit="10" fill="none" fill-rule="evenodd"/><path d="M433.5 1130.5 472.5 1130.5" stroke="#000000" stroke-width="0" stroke-linejoin="round" stroke-miterlimit="10" fill="none" fill-rule="evenodd"/><path d="M433.5 1132.5 472.5 1132.5" stroke="#000000" stroke-width="0" stroke-linejoin="round" stroke-miterlimit="10" fill="none" fill-rule="evenodd"/><path d="M433.5 1134.5 472.5 1134.5" stroke="#000000" stroke-width="0" stroke-linejoin="round" stroke-miterlimit="10" fill="none" fill-rule="evenodd"/><path d="M433.5 1137.5 472.5 1137.5" stroke="#000000" stroke-width="0" stroke-linejoin="round" stroke-miterlimit="10" fill="none" fill-rule="evenodd"/><path d="M433.5 1140.5 472.5 1140.5" stroke="#000000" stroke-width="0" stroke-linejoin="round" stroke-miterlimit="10" fill="none" fill-rule="evenodd"/><path d="M433.5 1142.5 472.5 1142.5" stroke="#000000" stroke-width="0" stroke-linejoin="round" stroke-miterlimit="10" fill="none" fill-rule="evenodd"/><path d="M433.5 1144.5 472.5 1144.5" stroke="#000000" stroke-width="0" stroke-linejoin="round" stroke-miterlimit="10" fill="none" fill-rule="evenodd"/><path d="M433.5 1146.5 472.5 1146.5" stroke="#000000" stroke-width="0" stroke-linejoin="round" stroke-miterlimit="10" fill="none" fill-rule="evenodd"/><path d="M433.5 1149.5 472.5 1149.5" stroke="#000000" stroke-width="0" stroke-linejoin="round" stroke-miterlimit="10" fill="none" fill-rule="evenodd"/><path d="M433.5 1151.5 472.5 1151.5" stroke="#000000" stroke-width="0" stroke-linejoin="round" stroke-miterlimit="10" fill="none" fill-rule="evenodd"/><path d="M433.5 1154.5 472.5 1154.5" stroke="#000000" stroke-width="0" stroke-linejoin="round" stroke-miterlimit="10" fill="none" fill-rule="evenodd"/><path d="M433.5 1156.5 472.5 1156.5" stroke="#000000" stroke-width="0" stroke-linejoin="round" stroke-miterlimit="10" fill="none" fill-rule="evenodd"/><path d="M433.5 1158.5 472.5 1158.5" stroke="#000000" stroke-width="0" stroke-linejoin="round" stroke-miterlimit="10" fill="none" fill-rule="evenodd"/><path d="M433.5 1161.5 472.5 1161.5" stroke="#000000" stroke-width="0" stroke-linejoin="round" stroke-miterlimit="10" fill="none" fill-rule="evenodd"/><path d="M433.5 1163.5 472.5 1163.5" stroke="#000000" stroke-width="0" stroke-linejoin="round" stroke-miterlimit="10" fill="none" fill-rule="evenodd"/><path d="M433.5 1165.5 472.5 1165.5" stroke="#000000" stroke-width="0" stroke-linejoin="round" stroke-miterlimit="10" fill="none" fill-rule="evenodd"/><path d="M433.5 1168.5 472.5 1168.5" stroke="#000000" stroke-width="0" stroke-linejoin="round" stroke-miterlimit="10" fill="none" fill-rule="evenodd"/><path d="M433.5 1170.5 472.5 1170.5" stroke="#000000" stroke-width="0" stroke-linejoin="round" stroke-miterlimit="10" fill="none" fill-rule="evenodd"/><path d="M433.5 1173.5 472.5 1173.5" stroke="#000000" stroke-width="0" stroke-linejoin="round" stroke-miterlimit="10" fill="none" fill-rule="evenodd"/><path d="M433.5 1175.5 472.5 1175.5" stroke="#000000" stroke-width="0" stroke-linejoin="round" stroke-miterlimit="10" fill="none" fill-rule="evenodd"/><path d="M433.5 1177.5 472.5 1177.5" stroke="#000000" stroke-width="0" stroke-linejoin="round" stroke-miterlimit="10" fill="none" fill-rule="evenodd"/><path d="M433.5 1180.5 472.5 1180.5" stroke="#000000" stroke-width="0" stroke-linejoin="round" stroke-miterlimit="10" fill="none" fill-rule="evenodd"/><rect x="486" y="1165" width="8.99994" height="28.9999" fill="#E5E5E5"/><rect x="659" y="1165" width="9.99994" height="28.9999" fill="#999999"/><rect x="314" y="1165" width="10.0003" height="28.9999" fill="#999999"/><rect x="603" y="1165" width="8.99994" height="28.9999" fill="#B2B2B2"/><rect x="371" y="1165" width="9.99997" height="28.9999" fill="#B2B2B2"/><rect x="545" y="1165" width="10.0003" height="28.9999" fill="#CCCCCC"/><rect x="429" y="1165" width="8.99994" height="28.9999" fill="#CCCCCC"/><rect x="657" y="1165" width="2.00006" height="28.9999" fill="#4C4C4C"/><rect x="324" y="1165" width="1.99969" height="28.9999" fill="#4C4C4C"/><rect x="600" y="1165" width="3.00012" height="28.9999" fill="#666666"/><rect x="381" y="1165" width="2.00006" height="28.9999" fill="#666666"/><rect x="543" y="1165" width="1.99969" height="28.9999" fill="#7F7F7F"/><rect x="438" y="1165" width="3.00009" height="28.9999" fill="#7F7F7F"/></g></svg>