<svg width="448" height="613" xmlns="http://www.w3.org/2000/svg" xmlns:xlink="http://www.w3.org/1999/xlink" overflow="hidden"><defs><clipPath id="clip0"><rect x="1832" y="850" width="448" height="613"/></clipPath></defs><g clip-path="url(#clip0)" transform="translate(-1832 -850)"><path d="M1879.5 905.23C1941.35 890.987 1948.17 868.526 2072.93 862.5 2207.12 870.17 2201.35 890.987 2269.5 905.23L2269.5 1051.5 1879.5 1051.5 1879.5 905.23Z" stroke="#44546A" stroke-width="4.58333" stroke-miterlimit="8" fill="#ADB9CA" fill-rule="evenodd"/><path d="M2269.5 1051.5 2178.05 1099.5 1970.95 1099.5 1879.5 1051.5Z" stroke="#44546A" stroke-width="4.58333" stroke-miterlimit="8" fill="#ADB9CA" fill-rule="evenodd"/><rect x="1969.5" y="1099.5" width="33" height="332" stroke="#44546A" stroke-width="4.58333" stroke-miterlimit="8" fill="#ADB9CA"/><rect x="2147.5" y="1099.5" width="33" height="332" stroke="#44546A" stroke-width="4.58333" stroke-miterlimit="8" fill="#ADB9CA"/><rect x="2014.5" y="1099.5" width="33" height="332" stroke="#44546A" stroke-width="4.58333" stroke-miterlimit="8" fill="#ADB9CA"/><rect x="2102.5" y="1099.5" width="33" height="332" stroke="#44546A" stroke-width="4.58333" stroke-miterlimit="8" fill="#ADB9CA"/><rect x="1834.5" y="1431.5" width="371" height="29.0002" stroke="#44546A" stroke-width="4.58333" stroke-miterlimit="8" fill="#ADB9CA"/><rect x="1834.5" y="1021.5" width="435" height="29.9999" stroke="#44546A" stroke-width="4.58333" stroke-miterlimit="8" fill="#ADB9CA"/><rect x="1834.5" y="909.5" width="435" height="29.9999" stroke="#44546A" stroke-width="4.58333" stroke-miterlimit="8" fill="#ADB9CA"/><path d="M1843 1370 1915.64 1430.66" stroke="#44546A" stroke-width="13.75" stroke-miterlimit="8" fill="#ADB9CA" fill-rule="evenodd"/><path d="M0 0 72.6372 51.1976" stroke="#44546A" stroke-width="13.75" stroke-miterlimit="8" fill="#ADB9CA" fill-rule="evenodd" transform="matrix(1 0 0 -1 1842 1373.2)"/><path d="M1842 1264 1914.64 1324.66" stroke="#44546A" stroke-width="13.75" stroke-miterlimit="8" fill="#ADB9CA" fill-rule="evenodd"/><path d="M1842 1158 1914.64 1218.66" stroke="#44546A" stroke-width="13.75" stroke-miterlimit="8" fill="#ADB9CA" fill-rule="evenodd"/><path d="M0 0 72.6372 51.1976" stroke="#44546A" stroke-width="13.75" stroke-miterlimit="8" fill="#ADB9CA" fill-rule="evenodd" transform="matrix(1 0 0 -1 1842 1267.2)"/><path d="M1842 1050 1914.64 1110.66" stroke="#44546A" stroke-width="13.75" stroke-miterlimit="8" fill="#ADB9CA" fill-rule="evenodd"/><path d="M0 0 72.6372 51.1976" stroke="#44546A" stroke-width="13.75" stroke-miterlimit="8" fill="#ADB9CA" fill-rule="evenodd" transform="matrix(1 0 0 -1 1842 1159.2)"/><path d="M1842 1432.6 1842 1050" stroke="#44546A" stroke-width="13.75" stroke-miterlimit="8" fill="#ADB9CA" fill-rule="evenodd"/><path d="M1915 1050 1915 1434.63" stroke="#44546A" stroke-width="13.75" stroke-miterlimit="8" fill="#ADB9CA" fill-rule="evenodd"/><path d="M0 0 0.000360892 82.2441" stroke="#44546A" stroke-width="13.75" stroke-miterlimit="8" fill="#ADB9CA" fill-rule="evenodd" transform="matrix(1 0 0 -1 1842 1021.24)"/><path d="M1876 939 1876 1021.24" stroke="#44546A" stroke-width="13.75" stroke-miterlimit="8" fill="#ADB9CA" fill-rule="evenodd"/><path d="M0 0 36.3184 0.119094" stroke="#44546A" stroke-width="4.58333" stroke-miterlimit="8" fill="#ADB9CA" fill-rule="evenodd" transform="matrix(-1 0 0 1 1875.82 956.5)"/><path d="M0 0 36.3184 0.119094" stroke="#44546A" stroke-width="4.58333" stroke-miterlimit="8" fill="#ADB9CA" fill-rule="evenodd" transform="matrix(-1 0 0 1 1875.82 972.5)"/><path d="M0 0 36.3184 0.119094" stroke="#44546A" stroke-width="4.58333" stroke-miterlimit="8" fill="#ADB9CA" fill-rule="evenodd" transform="matrix(-1 0 0 1 1875.82 988.5)"/><path d="M0 0 36.3184 0.119094" stroke="#44546A" stroke-width="4.58333" stroke-miterlimit="8" fill="#ADB9CA" fill-rule="evenodd" transform="matrix(-1 0 0 1 1875.82 1005.5)"/><rect x="1992.5" y="852.5" width="165" height="25.0001" stroke="#44546A" stroke-width="4.58333" stroke-miterlimit="8" fill="#ADB9CA"/><rect x="1968.5" y="1198.5" width="212" height="19.9999" stroke="#44546A" stroke-width="4.58333" stroke-miterlimit="8" fill="#ADB9CA"/><rect x="1968.5" y="1302.5" width="212" height="21" stroke="#44546A" stroke-width="4.58333" stroke-miterlimit="8" fill="#ADB9CA"/></g></svg>