<svg width="448" height="614" xmlns="http://www.w3.org/2000/svg" xmlns:xlink="http://www.w3.org/1999/xlink" overflow="hidden"><defs><clipPath id="clip0"><rect x="894" y="851" width="448" height="614"/></clipPath></defs><g clip-path="url(#clip0)" transform="translate(-894 -851)"><path d="M941.5 906.23C1003.35 891.987 1010.17 869.526 1134.93 863.5 1269.12 871.17 1263.35 891.987 1331.5 906.23L1331.5 1052.5 941.5 1052.5 941.5 906.23Z" stroke="#44546A" stroke-width="4.58333" stroke-miterlimit="8" fill="#FFD966" fill-rule="evenodd"/><path d="M1331.5 1052.5 1240.05 1100.5 1032.95 1100.5 941.5 1052.5Z" stroke="#44546A" stroke-width="4.58333" stroke-miterlimit="8" fill="#FFD966" fill-rule="evenodd"/><rect x="1031.5" y="1100.5" width="33" height="332" stroke="#44546A" stroke-width="4.58333" stroke-miterlimit="8" fill="#FFD966"/><rect x="1209.5" y="1100.5" width="33" height="332" stroke="#44546A" stroke-width="4.58333" stroke-miterlimit="8" fill="#FFD966"/><rect x="1076.5" y="1100.5" width="33" height="332" stroke="#44546A" stroke-width="4.58333" stroke-miterlimit="8" fill="#FFD966"/><rect x="1164.5" y="1100.5" width="33" height="332" stroke="#44546A" stroke-width="4.58333" stroke-miterlimit="8" fill="#FFD966"/><rect x="896.5" y="1432.5" width="371" height="30.0002" stroke="#44546A" stroke-width="4.58333" stroke-miterlimit="8" fill="#FFD966"/><rect x="896.5" y="1022.5" width="435" height="29.9999" stroke="#44546A" stroke-width="4.58333" stroke-miterlimit="8" fill="#FFD966"/><rect x="896.5" y="911.5" width="435" height="28.9999" stroke="#44546A" stroke-width="4.58333" stroke-miterlimit="8" fill="#FFD966"/><path d="M905 1371 977.637 1431.66" stroke="#44546A" stroke-width="13.75" stroke-miterlimit="8" fill="#FFD966" fill-rule="evenodd"/><path d="M0 0 72.6372 51.1976" stroke="#44546A" stroke-width="13.75" stroke-miterlimit="8" fill="#FFD966" fill-rule="evenodd" transform="matrix(1 0 0 -1 904 1374.2)"/><path d="M904 1265 976.637 1325.66" stroke="#44546A" stroke-width="13.75" stroke-miterlimit="8" fill="#FFD966" fill-rule="evenodd"/><path d="M904 1159 976.637 1219.66" stroke="#44546A" stroke-width="13.75" stroke-miterlimit="8" fill="#FFD966" fill-rule="evenodd"/><path d="M0 0 72.6372 51.1976" stroke="#44546A" stroke-width="13.75" stroke-miterlimit="8" fill="#FFD966" fill-rule="evenodd" transform="matrix(1 0 0 -1 904 1268.2)"/><path d="M904 1051 976.637 1111.66" stroke="#44546A" stroke-width="13.75" stroke-miterlimit="8" fill="#FFD966" fill-rule="evenodd"/><path d="M0 0 72.6372 51.1976" stroke="#44546A" stroke-width="13.75" stroke-miterlimit="8" fill="#FFD966" fill-rule="evenodd" transform="matrix(1 0 0 -1 904 1160.2)"/><path d="M904 1433.6 904 1051" stroke="#44546A" stroke-width="13.75" stroke-miterlimit="8" fill="#FFD966" fill-rule="evenodd"/><path d="M977 1051 977 1435.63" stroke="#44546A" stroke-width="13.75" stroke-miterlimit="8" fill="#FFD966" fill-rule="evenodd"/><path d="M0 0 0.000360892 82.2441" stroke="#44546A" stroke-width="13.75" stroke-miterlimit="8" fill="#FFD966" fill-rule="evenodd" transform="matrix(1 0 0 -1 904 1022.24)"/><path d="M938 940 938 1022.24" stroke="#44546A" stroke-width="13.75" stroke-miterlimit="8" fill="#FFD966" fill-rule="evenodd"/><path d="M0 0 36.3184 0.119094" stroke="#44546A" stroke-width="4.58333" stroke-miterlimit="8" fill="#FFD966" fill-rule="evenodd" transform="matrix(-1 0 0 1 937.819 957.5)"/><path d="M0 0 36.3184 0.119094" stroke="#44546A" stroke-width="4.58333" stroke-miterlimit="8" fill="#FFD966" fill-rule="evenodd" transform="matrix(-1 0 0 1 937.819 973.5)"/><path d="M0 0 36.3184 0.119094" stroke="#44546A" stroke-width="4.58333" stroke-miterlimit="8" fill="#FFD966" fill-rule="evenodd" transform="matrix(-1 0 0 1 937.819 990.5)"/><path d="M0 0 36.3184 0.119094" stroke="#44546A" stroke-width="4.58333" stroke-miterlimit="8" fill="#FFD966" fill-rule="evenodd" transform="matrix(-1 0 0 1 937.819 1006.5)"/><rect x="1054.5" y="853.5" width="165" height="25.0001" stroke="#44546A" stroke-width="4.58333" stroke-miterlimit="8" fill="#FFD966"/><rect x="1030.5" y="1199.5" width="212" height="20.0002" stroke="#44546A" stroke-width="4.58333" stroke-miterlimit="8" fill="#FFD966"/><rect x="1030.5" y="1303.5" width="212" height="21" stroke="#44546A" stroke-width="4.58333" stroke-miterlimit="8" fill="#FFD966"/></g></svg>