<svg width="645" height="445" xmlns="http://www.w3.org/2000/svg" xmlns:xlink="http://www.w3.org/1999/xlink" overflow="hidden"><defs><clipPath id="clip0"><rect x="1897" y="112" width="645" height="445"/></clipPath></defs><g clip-path="url(#clip0)" transform="translate(-1897 -112)"><path d="M2518 519.844 2315.77 241.714 2274.52 226.533 2226.68 185 2087.76 298.715 1987.21 298.715 1988.36 397.822 1961.43 397.822 1960 525 2518 519.844Z" fill="#F0F0F0" fill-rule="evenodd"/><path d="M1963.24 388.5 1959.52 391.103 1955.5 396.021 1955.5 457.343 1960.95 458.5 1964.68 457.343 1964.68 402.674 1965.82 398.913 1969.55 397.756 2261.5 397.756 2261.5 388.5 1963.24 388.5Z" stroke="#000000" stroke-width="0" stroke-linejoin="round" stroke-miterlimit="10" fill="#0000BF" fill-rule="evenodd"/><path d="M1989.24 292.5 1984.37 294.794 1981.5 300.241 1981.5 457.353 1985.51 458.5 1990.67 457.353 1990.67 305.402 1991.82 302.821 1994.4 301.388 2261.5 301.388 2261.5 292.5 1989.24 292.5Z" stroke="#000000" stroke-width="0" stroke-linejoin="round" stroke-miterlimit="10" fill="#0000BF" fill-rule="evenodd"/><rect x="2000.5" y="387.5" width="50.9999" height="14.0001" stroke="#000000" stroke-width="0" stroke-miterlimit="8" fill="#0000BF"/><rect x="2007.5" y="382.5" width="36.0001" height="23" stroke="#000000" stroke-width="0" stroke-miterlimit="8" fill="#0000BF"/><rect x="2023.5" y="378.5" width="5.99988" height="4.00012" stroke="#000000" stroke-width="0" stroke-miterlimit="8" fill="#B2B2B2"/><path d="M2022.44 373.5 2061.84 373.5 2063.25 373.818 2064.37 374.137 2065.22 375.409 2065.5 376.364 2065.5 379.227 2065.22 379.864 2064.37 380.182 2063.25 380.5 2061.84 380.5 2022.44 380.5 2020.75 380.5 2019.34 380.182 2018.78 379.864 2018.5 379.227 2018.5 376.364 2018.78 375.409 2019.34 374.137 2020.75 373.818 2022.44 373.5Z" stroke="#000000" stroke-width="0" stroke-linejoin="round" stroke-miterlimit="10" fill="#F0F0F0" fill-rule="evenodd"/><rect x="2030.5" y="373.5" width="31" height="6.99988" stroke="#000000" stroke-width="0" stroke-miterlimit="8" fill="#FF0000"/><rect x="1916.5" y="518.5" width="599" height="20.9999" stroke="#000000" stroke-width="0" stroke-miterlimit="8" fill="#FF6600"/><path d="M2524.5 498.5 2515.5 518.857 2515.5 539.5 2524.5 518.857 2524.5 498.5Z" stroke="#000000" stroke-width="0" stroke-linejoin="round" stroke-miterlimit="10" fill="#AFABAB" fill-rule="evenodd"/><path d="M1916.5 518.5 2515.63 518.5 2524.5 498.5 1937.11 498.5 1916.5 518.5Z" stroke="#000000" stroke-width="0" stroke-linejoin="round" stroke-miterlimit="10" fill="#FF6600" fill-rule="evenodd"/><path d="M2483 137 2480.14 137 2450.63 140.733 2434.02 141.882 2415.68 141.882 2393.91 143.317 2350.09 143.317 2329.18 141.882 2309.98 141.882 2280.19 139.584 2261 137 2261 503.396 2280.19 505.693 2309.98 508.564 2328.03 508.564 2350.09 510 2393.91 510 2415.68 508.564 2434.02 508.564 2463.52 505.693 2480.14 504.544 2483 501.96 2483 137Z" fill="#AFABAB" fill-rule="evenodd"/><path d="M2372.36 130.5 2394.41 130.5 2416.18 130.5 2434.52 131.643 2464.02 132.786 2483.5 137.071 2474.33 140.786 2451.13 141.928 2434.52 143.071 2416.18 143.071 2394.41 144.5 2350.59 144.5 2328.53 143.071 2293.58 141.928 2270.67 140.786 2261.5 137.071 2264.08 135.357 2293.58 132.786 2310.48 131.643 2328.53 130.5 2372.36 130.5Z" stroke="#000000" stroke-width="0" stroke-linejoin="round" stroke-miterlimit="10" fill="#AFABAB" fill-rule="evenodd"/><path d="M2264.5 139.5 2271.09 138.167 2281.12 136.833 2294.01 136.833 2310.91 134.833 2328.96 133.5 2351.02 133.5 2372.79 133.5 2394.85 133.5 2416.62 133.5 2434.96 134.833 2451.57 136.833 2464.46 136.833 2474.78 138.167 2478.5 139.5" stroke="#000000" stroke-width="0" stroke-linejoin="round" stroke-miterlimit="10" fill="#AFABAB" fill-rule="evenodd"/><path d="M2479 138.149 2450.89 140.733 2434.25 141.882 2415.89 141.882 2394.09 143.317 2350.21 143.317 2329.27 141.882 2310.05 141.882 2280.22 139.584 2263.58 137 2261 137 2261 503.396 2280.22 505.693 2310.05 508.564 2328.12 508.564 2350.21 510 2394.09 510 2415.89 508.564 2434.25 508.564 2463.8 505.693 2479 504.544 2479 138.149Z" fill="#AFABAB" fill-rule="evenodd"/><path d="M2470 139.584 2450.49 140.733 2433.85 141.882 2415.49 141.882 2393.69 143.317 2349.79 143.317 2328.85 141.882 2309.62 141.882 2279.79 139.584 2263.15 137 2262 137 2262 503.396 2263.15 504.544 2292.7 507.129 2327.7 508.564 2349.79 510 2393.69 510 2415.49 508.564 2433.85 508.564 2463.4 505.693 2470 505.693 2470 139.584Z" fill="#AFABAB" fill-rule="evenodd"/><path d="M2461 141.578 2434.04 142.724 2415.69 142.724 2393.9 144.157 2350.02 144.157 2329.09 142.724 2309.88 142.724 2280.05 140.432 2270.01 139 2266 139 2266 504.557 2292.96 507.135 2327.94 508.568 2350.02 510 2393.9 510 2415.69 508.568 2434.04 508.568 2461 507.135 2461 141.578Z" fill="#AFABAB" fill-rule="evenodd"/><path d="M2461 141.578 2434.04 142.724 2415.69 142.724 2393.9 144.157 2350.02 144.157 2329.09 142.724 2309.88 142.724 2280.05 140.432 2270.01 139 2266 139 2266 504.557 2292.96 507.135 2327.94 508.568 2350.02 510 2393.9 510 2415.69 508.568 2434.04 508.568 2461 507.135 2461 141.578Z" fill="#AFABAB" fill-rule="evenodd"/><path d="M2461 141.578 2434.04 142.724 2415.69 142.724 2393.9 144.157 2350.02 144.157 2329.09 142.724 2309.88 142.724 2280.05 140.432 2270.01 139 2266 139 2266 504.557 2292.96 507.135 2327.94 508.568 2350.02 510 2393.9 510 2415.69 508.568 2434.04 508.568 2461 507.135 2461 141.578Z" fill="#AFABAB" fill-rule="evenodd"/><path d="M2461 141.578 2434.04 142.724 2415.69 142.724 2393.9 144.157 2350.02 144.157 2329.09 142.724 2309.88 142.724 2280.05 140.432 2270.01 139 2266 139 2266 504.557 2292.96 507.135 2327.94 508.568 2350.02 510 2393.9 510 2415.69 508.568 2434.04 508.568 2461 507.135 2461 141.578Z" fill="#AFABAB" fill-rule="evenodd"/><path d="M2451 141.147 2434.34 142.294 2415.95 142.294 2394.11 143.729 2371.99 143.729 2350.16 143.729 2329.18 142.294 2309.94 142.294 2292.98 141.147 2280.06 140 2270 140 2270 505.698 2280.06 505.698 2292.98 507.132 2309.94 508.566 2328.04 508.566 2350.16 510 2371.99 510 2394.11 510 2415.95 508.566 2434.34 508.566 2451 507.132 2451 141.147Z" fill="#AFABAB" fill-rule="evenodd"/><path d="M2442 142.294 2434.53 142.294 2416.15 142.294 2394.33 143.729 2372.22 143.729 2350.39 143.729 2329.43 142.294 2310.18 142.294 2293.24 141.147 2280.32 140 2274 140 2274 505.698 2280.32 505.698 2293.24 507.132 2310.18 508.566 2329.43 508.566 2350.39 510 2372.22 510 2394.33 510 2416.15 508.566 2434.53 508.566 2442 508.566 2442 142.294Z" fill="#AFABAB" fill-rule="evenodd"/><path d="M2433 142.294 2416.1 142.294 2394.32 143.729 2372.26 143.729 2350.49 143.729 2329.57 142.294 2310.38 142.294 2293.47 141.147 2280.58 140 2278 140 2278 505.698 2280.58 505.698 2293.47 507.132 2310.38 508.566 2329.57 508.566 2350.49 510 2372.26 510 2394.32 510 2416.1 508.566 2433 508.566 2433 142.294Z" fill="#AFABAB" fill-rule="evenodd"/><path d="M2424 142.148 2416.25 142.148 2394.45 143.582 2372.36 143.582 2350.56 143.582 2329.62 142.148 2310.4 142.148 2293.48 141 2282 141 2282 507.131 2293.48 507.131 2310.4 508.565 2329.62 508.565 2350.56 510 2372.36 510 2394.45 510 2416.25 508.565 2424 508.565 2424 142.148Z" fill="#AFABAB" fill-rule="evenodd"/><path d="M2415 142.148 2394.36 143.582 2372.29 143.582 2350.5 143.582 2329.57 142.148 2310.37 142.148 2293.45 141 2286 141 2286 507.131 2293.45 507.131 2310.37 508.565 2329.57 508.565 2350.5 510 2372.29 510 2394.36 510 2415 508.565 2415 142.148Z" fill="#AFABAB" fill-rule="evenodd"/><path d="M2405 142.148 2393.54 143.582 2371.49 143.582 2349.72 143.582 2328.81 142.148 2309.62 142.148 2292.72 141 2289 141 2289 507.131 2292.72 507.131 2309.62 508.565 2328.81 508.565 2349.72 510 2371.49 510 2393.54 510 2405 510 2405 142.148Z" fill="#AFABAB" fill-rule="evenodd"/><path d="M2395 143.582 2393.58 143.582 2371.64 143.582 2349.99 143.582 2329.19 142.148 2310.1 142.148 2295 141 2295 507.131 2310.1 508.565 2329.19 508.565 2349.99 510 2371.64 510 2393.58 510 2395 510 2395 143.582Z" fill="#AFABAB" fill-rule="evenodd"/><path d="M2386 143.582 2371.62 143.582 2349.76 143.582 2328.77 142.148 2309.5 142.148 2298 141 2298 508.565 2309.5 508.565 2328.77 508.565 2349.76 510 2371.62 510 2386 510 2386 143.582Z" fill="#AFABAB" fill-rule="evenodd"/><path d="M2377 143.435 2371.83 143.435 2349.99 143.435 2329.01 142 2309.76 142 2302 142 2302 508.565 2309.76 508.565 2329.01 508.565 2349.99 510 2371.83 510 2377 510 2377 143.435Z" fill="#AFABAB" fill-rule="evenodd"/><path d="M2368 143.435 2350.2 143.435 2329.25 142 2310.02 142 2306 142 2306 508.565 2310.02 508.565 2328.1 508.565 2350.2 510 2368 510 2368 143.435Z" fill="#AFABAB" fill-rule="evenodd"/><path d="M2359 143.435 2350.12 143.435 2329.2 142 2310 142 2310 508.565 2328.05 508.565 2350.12 510 2359 510 2359 143.435Z" fill="#AFABAB" fill-rule="evenodd"/><path d="M2350 143.435 2329.14 142 2314 142 2314 508.565 2328 508.565 2350 510 2350 143.435Z" fill="#AFABAB" fill-rule="evenodd"/><path d="M2340 143.435 2329.58 142 2318 142 2318 508.565 2328.42 508.565 2340 510 2340 143.435Z" fill="#AFABAB" fill-rule="evenodd"/><path d="M2330 142 2328.71 142 2322 142 2322 509 2328.71 509 2330 509 2330 142Z" fill="#AFABAB" fill-rule="evenodd"/><path d="M2483.5 137.5 2480.64 137.5 2451.13 141.233 2434.52 142.381 2416.18 142.381 2394.41 143.817 2350.59 143.817 2329.68 142.381 2310.48 142.381 2280.69 140.084 2261.5 137.5 2261.5 503.896 2280.69 506.193 2310.48 509.064 2328.53 509.064 2350.59 510.5 2394.41 510.5 2416.18 509.064 2434.52 509.064 2464.02 506.193 2480.64 505.044 2483.5 502.46 2483.5 137.5" stroke="#000000" stroke-width="0" stroke-linejoin="round" stroke-miterlimit="10" fill="#AFABAB" fill-rule="evenodd"/><rect x="2212.5" y="334.5" width="8.00024" height="170" stroke="#000000" stroke-width="0" stroke-miterlimit="8" fill="#E0E0E0"/><path d="M2082.22 181.5 2230.5 181.5 2230.5 329.772 2224.2 333.5 2078.5 186.949 2082.22 181.5Z" stroke="#000000" stroke-width="0" stroke-linejoin="round" stroke-miterlimit="10" fill="#CCCCCC" fill-rule="evenodd"/><rect x="2077.5" y="187.5" width="148" height="147" stroke="#000000" stroke-width="0" stroke-miterlimit="8" fill="#E0E0E0"/><rect x="2086.5" y="195.5" width="75" height="74.9999" stroke="#000000" stroke-width="0" stroke-miterlimit="8" fill="#FFFFFF"/><rect x="2182" y="195" width="32" height="26.0001"/><rect x="2136" y="232" width="4.99976" height="5.99983"/><rect x="2136" y="222" width="4.99976" height="5.99983"/><rect x="2136" y="212" width="4.99976" height="5.99983"/><rect x="2136" y="203" width="4.99976" height="3.99977"/><rect x="2114" y="232" width="4.99976" height="5.99983"/><rect x="2114" y="222" width="4.99976" height="5.99983"/><rect x="2114" y="212" width="4.99976" height="5.99983"/><rect x="2114" y="203" width="4.99976" height="3.99977"/><rect x="2092" y="232" width="3.99976" height="5.99983"/><rect x="2092" y="222" width="3.99976" height="5.99983"/><rect x="2092" y="212" width="3.99976" height="5.99983"/><rect x="2092" y="203" width="3.99976" height="3.99977"/><rect x="2082.5" y="334.5" width="8" height="168" stroke="#000000" stroke-width="0" stroke-miterlimit="8" fill="#E0E0E0"/><rect x="2061" y="456" width="32" height="45.9997" fill="#B2B2B2"/><rect x="2061" y="498" width="32" height="1.00003"/><rect x="2061" y="491" width="32" height="2.00006"/><rect x="2061" y="485" width="32" height="1.00003"/><rect x="2061" y="479" width="32" height="1.00003"/><rect x="2061" y="472" width="32" height="2.00006"/><rect x="2061" y="466" width="32" height="1.00003"/><rect x="2067" y="459" width="23" height="1.00003"/><rect x="1968" y="509" width="21" height="1.00003"/><rect x="2032" y="509" width="22.0001" height="1.00003"/><rect x="1949" y="450" width="113" height="59.0001" fill="#7F7F7F"/><rect x="1951" y="451" width="110" height="50.9999" fill="#B2B2B2"/><path d="M2030.65 494.5 2033.23 494.5 2033.23 510.214 2053.92 510.214 2053.92 494.5 2055.35 494.5 2055.35 510.214 2056.5 510.214 2056.5 512.5 2029.5 512.5 2029.5 510.214 2030.65 510.214 2030.65 494.5Z" stroke="#000000" stroke-width="0" stroke-linejoin="round" stroke-miterlimit="10" fill="#7F7F7F" fill-rule="evenodd"/><path d="M1965.69 494.5 1968.37 494.5 1968.37 510.214 1989.82 510.214 1989.82 494.5 1991.31 494.5 1991.31 510.214 1992.5 510.214 1992.5 512.5 1964.5 512.5 1964.5 510.214 1965.69 510.214 1965.69 494.5Z" stroke="#000000" stroke-width="0" stroke-linejoin="round" stroke-miterlimit="10" fill="#7F7F7F" fill-rule="evenodd"/><rect x="1951" y="455" width="110" height="41.9999" fill="#CCCCCC"/><rect x="1951" y="455" width="110" height="32" fill="#E5E5E5"/><rect x="1951" y="458" width="110" height="9.99997" fill="#F0F0F0"/><path d="M2082.39 436.5 2076.08 439.056 2073.5 445.303 2073.5 458.08 2078.66 459.5 2083.54 458.08 2083.54 451.833 2085.26 448.142 2087.84 446.722 2264.5 446.722 2264.5 436.5 2082.39 436.5Z" stroke="#000000" stroke-width="0" stroke-linejoin="round" stroke-miterlimit="10" fill="#0000BF" fill-rule="evenodd"/><rect x="2123" y="434" width="57" height="15.9998" fill="#0000BF"/><rect x="2123" y="448" width="57" height="2.00006" fill="#0000AD"/><rect x="2131" y="428" width="40.0002" height="27.0002" fill="#0000BF"/><rect x="2131" y="428" width="40.0002" height="6.00018" fill="#0000AD"/><rect x="2131" y="445" width="40.0002" height="9.99997" fill="#0000AD"/><rect x="2148.5" y="423.5" width="7.00024" height="5.00015" stroke="#000000" stroke-width="0" stroke-miterlimit="8" fill="#B2B2B2"/><path d="M2146.57 418.5 2192.26 418.5 2194.01 418.796 2196.04 419.389 2196.92 420.574 2197.5 422.648 2197.5 423.833 2196.92 425.019 2196.04 425.611 2194.01 426.204 2192.26 426.5 2146.57 426.5 2144.54 426.204 2143.37 425.611 2142.79 425.019 2142.5 423.833 2142.5 422.648 2142.79 420.574 2143.37 419.389 2144.54 418.796 2146.57 418.5Z" stroke="#000000" stroke-width="0" stroke-linejoin="round" stroke-miterlimit="10" fill="#F0F0F0" fill-rule="evenodd"/><rect x="2156.5" y="418.5" width="34" height="8.00027" stroke="#000000" stroke-width="0" stroke-miterlimit="8" fill="#FF0000"/><rect x="2131.5" y="428.5" width="39.9998" height="26.9998" stroke="#000000" stroke-width="0" stroke-miterlimit="8" fill="none"/></g></svg>