<svg width="645" height="446" xmlns="http://www.w3.org/2000/svg" xmlns:xlink="http://www.w3.org/1999/xlink" overflow="hidden"><defs><clipPath id="clip0"><rect x="2619" y="89" width="645" height="446"/></clipPath></defs><g clip-path="url(#clip0)" transform="translate(-2619 -89)"><path d="M3239 497.844 3036.77 219.714 2995.52 204.533 2947.68 163 2808.76 276.715 2708.21 276.715 2709.36 375.822 2682.43 375.822 2681 503 3239 497.844Z" fill="#F0F0F0" fill-rule="evenodd"/><path d="M2685.24 366.5 2681.51 369.066 2677.5 373.913 2677.5 434.36 2682.95 435.5 2686.68 434.36 2686.68 380.471 2687.82 376.764 2691.55 375.624 2983.5 375.624 2983.5 366.5 2685.24 366.5Z" stroke="#000000" stroke-width="0" stroke-linejoin="round" stroke-miterlimit="10" fill="#0000BF" fill-rule="evenodd"/><path d="M2710.27 270.5 2705.38 272.78 2702.5 278.194 2702.5 434.36 2706.53 435.5 2711.7 434.36 2711.7 283.324 2712.85 280.759 2715.44 279.334 2983.5 279.334 2983.5 270.5 2710.27 270.5Z" stroke="#000000" stroke-width="0" stroke-linejoin="round" stroke-miterlimit="10" fill="#0000BF" fill-rule="evenodd"/><rect x="2722.5" y="365.5" width="49.9998" height="14.0001" stroke="#000000" stroke-width="0" stroke-miterlimit="8" fill="#0000BF"/><rect x="2728.5" y="360.5" width="36" height="23" stroke="#000000" stroke-width="0" stroke-miterlimit="8" fill="#0000BF"/><rect x="2744.5" y="356.5" width="6.99976" height="4.00012" stroke="#000000" stroke-width="0" stroke-miterlimit="8" fill="#B2B2B2"/><path d="M2743.52 351.5 2783.76 351.5 2785.2 351.773 2786.35 352.046 2787.21 353.136 2787.5 353.955 2787.5 356.409 2787.21 356.955 2786.35 357.227 2785.2 357.5 2783.76 357.5 2743.52 357.5 2741.8 357.5 2740.36 357.227 2739.79 356.955 2739.5 356.409 2739.5 353.955 2739.79 353.136 2740.36 352.046 2741.8 351.773 2743.52 351.5Z" stroke="#000000" stroke-width="0" stroke-linejoin="round" stroke-miterlimit="10" fill="#F0F0F0" fill-rule="evenodd"/><rect x="2752.5" y="351.5" width="31" height="5.99985" stroke="#000000" stroke-width="0" stroke-miterlimit="8" fill="#FF0000"/><rect x="2637.5" y="496.5" width="599" height="20.9999" stroke="#000000" stroke-width="0" stroke-miterlimit="8" fill="#FF6600"/><path d="M3246.5 476.5 3236.5 496.857 3236.5 517.5 3246.5 496.857 3246.5 476.5Z" stroke="#000000" stroke-width="0" stroke-linejoin="round" stroke-miterlimit="10" fill="#FFD966" fill-rule="evenodd"/><path d="M2637.5 496.5 3237.61 496.5 3246.5 476.5 2658.14 476.5 2637.5 496.5Z" stroke="#000000" stroke-width="0" stroke-linejoin="round" stroke-miterlimit="10" fill="#FF6600" fill-rule="evenodd"/><path d="M3204 115 3201.15 115 3171.78 118.723 3155.24 119.869 3136.99 119.869 3115.31 121.3 3071.69 121.3 3050.87 119.869 3031.76 119.869 3002.11 117.578 2983 115 2983 480.414 3002.11 482.704 3031.76 485.568 3049.73 485.568 3071.69 487 3115.31 487 3136.99 485.568 3155.24 485.568 3184.61 482.704 3201.15 481.559 3204 478.982 3204 115Z" fill="#FFD966" fill-rule="evenodd"/><path d="M3093.86 108.5 3115.81 108.5 3137.49 108.5 3155.74 109.561 3185.11 110.623 3204.5 114.602 3195.37 118.051 3172.28 119.112 3155.74 120.173 3137.49 120.173 3115.81 121.5 3072.19 121.5 3050.23 120.173 3015.44 119.112 2992.63 118.051 2983.5 114.602 2986.07 113.01 3015.44 110.623 3032.26 109.561 3050.23 108.5 3093.86 108.5Z" stroke="#000000" stroke-width="0" stroke-linejoin="round" stroke-miterlimit="10" fill="#FFD966" fill-rule="evenodd"/><path d="M2985.5 117.5 2992.09 116.167 3002.12 114.833 3015.01 114.833 3031.91 112.833 3049.96 111.5 3072.02 111.5 3093.79 111.5 3115.85 111.5 3137.62 111.5 3155.96 112.833 3172.57 114.833 3185.46 114.833 3195.78 116.167 3199.5 117.5" stroke="#000000" stroke-width="0" stroke-linejoin="round" stroke-miterlimit="10" fill="#FFD966" fill-rule="evenodd"/><path d="M3200 116.146 3172.02 118.723 3155.46 119.869 3137.18 119.869 3115.48 121.3 3071.8 121.3 3050.96 119.869 3031.82 119.869 3002.13 117.578 2985.57 115 2983 115 2983 480.414 3002.13 482.704 3031.82 485.568 3049.81 485.568 3071.8 487 3115.48 487 3137.18 485.568 3155.46 485.568 3184.87 482.704 3200 481.559 3200 116.146Z" fill="#FFD966" fill-rule="evenodd"/><path d="M3192 117.578 3172.49 118.723 3155.85 119.869 3137.49 119.869 3115.69 121.3 3071.79 121.3 3050.85 119.869 3031.62 119.869 3001.79 117.578 2985.15 115 2984 115 2984 480.414 2985.15 481.559 3014.7 484.136 3049.7 485.568 3071.79 487 3115.69 487 3137.49 485.568 3155.85 485.568 3185.4 482.704 3192 482.704 3192 117.578Z" fill="#FFD966" fill-rule="evenodd"/><path d="M3183 119.571 3156.04 120.714 3137.69 120.714 3115.9 122.143 3072.02 122.143 3051.09 120.714 3031.87 120.714 3002.05 118.428 2992.01 117 2988 117 2988 481.572 3014.96 484.143 3049.94 485.572 3072.02 487 3115.9 487 3137.69 485.572 3156.04 485.572 3183 484.143 3183 119.571Z" fill="#FFD966" fill-rule="evenodd"/><path d="M3183 119.571 3156.04 120.714 3137.69 120.714 3115.9 122.143 3072.02 122.143 3051.09 120.714 3031.87 120.714 3002.05 118.428 2992.01 117 2988 117 2988 481.572 3014.96 484.143 3049.94 485.572 3072.02 487 3115.9 487 3137.69 485.572 3156.04 485.572 3183 484.143 3183 119.571Z" fill="#FFD966" fill-rule="evenodd"/><path d="M3183 119.571 3156.04 120.714 3137.69 120.714 3115.9 122.143 3072.02 122.143 3051.09 120.714 3031.87 120.714 3002.05 118.428 2992.01 117 2988 117 2988 481.572 3014.96 484.143 3049.94 485.572 3072.02 487 3115.9 487 3137.69 485.572 3156.04 485.572 3183 484.143 3183 119.571Z" fill="#FFD966" fill-rule="evenodd"/><path d="M3183 119.571 3156.04 120.714 3137.69 120.714 3115.9 122.143 3072.02 122.143 3051.09 120.714 3031.87 120.714 3002.05 118.428 2992.01 117 2988 117 2988 481.572 3014.96 484.143 3049.94 485.572 3072.02 487 3115.9 487 3137.69 485.572 3156.04 485.572 3183 484.143 3183 119.571Z" fill="#FFD966" fill-rule="evenodd"/><path d="M3172 119.144 3155.43 120.288 3137.14 120.288 3115.43 121.719 3093.43 121.719 3071.71 121.719 3050.86 120.288 3031.71 120.288 3014.86 119.144 3002 118 2992 118 2992 482.709 3002 482.709 3014.86 484.14 3031.71 485.57 3049.71 485.57 3071.71 487 3093.43 487 3115.43 487 3137.14 485.57 3155.43 485.57 3172 484.14 3172 119.144Z" fill="#FFD966" fill-rule="evenodd"/><path d="M3163 120.288 3155.58 120.288 3137.31 120.288 3115.61 121.719 3093.63 121.719 3071.94 121.719 3051.1 120.288 3031.97 120.288 3015.13 119.144 3002.28 118 2996 118 2996 482.709 3002.28 482.709 3015.13 484.14 3031.97 485.57 3051.1 485.57 3071.94 487 3093.63 487 3115.61 487 3137.31 485.57 3155.58 485.57 3163 485.57 3163 120.288Z" fill="#FFD966" fill-rule="evenodd"/><path d="M3154 120.288 3137.1 120.288 3115.32 121.719 3093.26 121.719 3071.49 121.719 3050.57 120.288 3031.38 120.288 3014.47 119.144 3001.58 118 2999 118 2999 482.709 3001.58 482.709 3014.47 484.14 3031.38 485.57 3050.57 485.57 3071.49 487 3093.26 487 3115.32 487 3137.1 485.57 3154 485.57 3154 120.288Z" fill="#FFD966" fill-rule="evenodd"/><path d="M3145 120.145 3137.25 120.145 3115.45 121.575 3093.36 121.575 3071.56 121.575 3050.62 120.145 3031.4 120.145 3014.47 119 3003 119 3003 484.139 3014.47 484.139 3031.4 485.569 3050.62 485.569 3071.56 487 3093.36 487 3115.45 487 3137.25 485.569 3145 485.569 3145 120.145Z" fill="#FFD966" fill-rule="evenodd"/><path d="M3136 120.145 3115.36 121.575 3093.29 121.575 3071.5 121.575 3050.57 120.145 3031.37 120.145 3014.45 119 3007 119 3007 484.139 3014.45 484.139 3031.37 485.569 3050.57 485.569 3071.5 487 3093.29 487 3115.36 487 3136 485.569 3136 120.145Z" fill="#FFD966" fill-rule="evenodd"/><path d="M3127 120.145 3115.54 121.575 3093.49 121.575 3071.72 121.575 3050.81 120.145 3031.62 120.145 3014.72 119 3011 119 3011 484.139 3014.72 484.139 3031.62 485.569 3050.81 485.569 3071.72 487 3093.49 487 3115.54 487 3127 487 3127 120.145Z" fill="#FFD966" fill-rule="evenodd"/><path d="M3117 121.575 3115.56 121.575 3093.4 121.575 3071.54 121.575 3050.53 120.145 3031.25 120.145 3016 119 3016 484.139 3031.25 485.569 3050.53 485.569 3071.54 487 3093.4 487 3115.56 487 3117 487 3117 121.575Z" fill="#FFD966" fill-rule="evenodd"/><path d="M3108 121.575 3093.62 121.575 3071.76 121.575 3050.77 120.145 3031.5 120.145 3020 119 3020 485.569 3031.5 485.569 3050.77 485.569 3071.76 487 3093.62 487 3108 487 3108 121.575Z" fill="#FFD966" fill-rule="evenodd"/><path d="M3099 121.431 3093.83 121.431 3071.99 121.431 3051.01 120 3031.76 120 3024 120 3024 485.569 3031.76 485.569 3051.01 485.569 3071.99 487 3093.83 487 3099 487 3099 121.431Z" fill="#FFD966" fill-rule="evenodd"/><path d="M3090 121.431 3072.2 121.431 3051.25 120 3032.02 120 3028 120 3028 485.569 3032.02 485.569 3050.1 485.569 3072.2 487 3090 487 3090 121.431Z" fill="#FFD966" fill-rule="evenodd"/><path d="M3081 121.431 3072.12 121.431 3051.2 120 3032 120 3032 485.569 3050.05 485.569 3072.12 487 3081 487 3081 121.431Z" fill="#FFD966" fill-rule="evenodd"/><path d="M3071 121.431 3050.14 120 3035 120 3035 485.569 3049 485.569 3071 487 3071 121.431Z" fill="#FFD966" fill-rule="evenodd"/><path d="M3061 121.431 3050.58 120 3039 120 3039 485.569 3049.42 485.569 3061 487 3061 121.431Z" fill="#FFD966" fill-rule="evenodd"/><path d="M3052 120 3050.55 120 3043 120 3043 486 3050.55 486 3052 486 3052 120Z" fill="#FFD966" fill-rule="evenodd"/><path d="M3204.5 115.5 3201.65 115.5 3172.28 119.223 3155.74 120.368 3137.49 120.368 3115.81 121.8 3072.19 121.8 3051.37 120.368 3032.26 120.368 3002.61 118.077 2983.5 115.5 2983.5 480.913 3002.61 483.204 3032.26 486.068 3050.23 486.068 3072.19 487.5 3115.81 487.5 3137.49 486.068 3155.74 486.068 3185.11 483.204 3201.65 482.059 3204.5 479.481 3204.5 115.5" stroke="#000000" stroke-width="0" stroke-linejoin="round" stroke-miterlimit="10" fill="#FFD966" fill-rule="evenodd"/><rect x="2934.5" y="312.5" width="6.99976" height="170" stroke="#000000" stroke-width="0" stroke-miterlimit="8" fill="#E0E0E0"/><path d="M2803.25 159.5 2952.5 159.5 2952.5 307.772 2946.16 311.5 2799.5 164.949 2803.25 159.5Z" stroke="#000000" stroke-width="0" stroke-linejoin="round" stroke-miterlimit="10" fill="#CCCCCC" fill-rule="evenodd"/><rect x="2798.5" y="164.5" width="149" height="148" stroke="#000000" stroke-width="0" stroke-miterlimit="8" fill="#E0E0E0"/><rect x="2807.5" y="173.5" width="75" height="73.9999" stroke="#000000" stroke-width="0" stroke-miterlimit="8" fill="#FFFFFF"/><rect x="2904" y="173" width="31" height="26.0001"/><rect x="2858" y="210" width="5.00024" height="5.99983"/><rect x="2858" y="200" width="5.00024" height="4.9998"/><rect x="2858" y="190" width="5.00024" height="4.9998"/><rect x="2858" y="181" width="5.00024" height="2.99974"/><rect x="2835" y="210" width="6.00024" height="5.99983"/><rect x="2835" y="200" width="6.00024" height="4.9998"/><rect x="2835" y="190" width="6.00024" height="4.9998"/><rect x="2835" y="181" width="6.00024" height="2.99974"/><rect x="2814" y="210" width="4.00024" height="5.99983"/><rect x="2814" y="200" width="4.00024" height="4.9998"/><rect x="2814" y="190" width="4.00024" height="4.9998"/><rect x="2814" y="181" width="4.00024" height="2.99974"/><rect x="2803.5" y="312.5" width="8" height="167" stroke="#000000" stroke-width="0" stroke-miterlimit="8" fill="#E0E0E0"/><rect x="2783" y="434" width="32" height="44.9997" fill="#B2B2B2"/><rect x="2783" y="476" width="32" height="1.00003"/><rect x="2783" y="469" width="32" height="1.00003"/><rect x="2783" y="463" width="32" height="1.00003"/><rect x="2783" y="456" width="32" height="1.99969"/><rect x="2783" y="450" width="32" height="1.00003"/><rect x="2783" y="443" width="32" height="1.00003"/><rect x="2789" y="437" width="22" height="1.00003"/><rect x="2690" y="486" width="20.0002" height="1.00003"/><rect x="2754" y="486" width="21" height="1.00003"/><rect x="2670" y="428" width="114" height="58.0001" fill="#7F7F7F"/><rect x="2672" y="429" width="111" height="49.9998" fill="#B2B2B2"/><path d="M2752.65 471.5 2755.23 471.5 2755.23 488.087 2775.91 488.087 2775.91 471.5 2777.35 471.5 2777.35 488.087 2778.5 488.087 2778.5 490.5 2751.5 490.5 2751.5 488.087 2752.65 488.087 2752.65 471.5Z" stroke="#000000" stroke-width="0" stroke-linejoin="round" stroke-miterlimit="10" fill="#7F7F7F" fill-rule="evenodd"/><path d="M2687.65 471.5 2690.23 471.5 2690.23 488.087 2710.92 488.087 2710.92 471.5 2712.35 471.5 2712.35 488.087 2713.5 488.087 2713.5 490.5 2686.5 490.5 2686.5 488.087 2687.65 488.087 2687.65 471.5Z" stroke="#000000" stroke-width="0" stroke-linejoin="round" stroke-miterlimit="10" fill="#7F7F7F" fill-rule="evenodd"/><rect x="2672" y="433" width="111" height="40.9999" fill="#CCCCCC"/><rect x="2672" y="433" width="111" height="32" fill="#E5E5E5"/><rect x="2672" y="435" width="111" height="11" fill="#F0F0F0"/><path d="M2804.34 414.5 2798.07 417.056 2795.5 423.303 2795.5 436.08 2800.64 437.5 2805.48 436.08 2805.48 429.833 2807.2 426.142 2809.76 424.722 2985.5 424.722 2985.5 414.5 2804.34 414.5Z" stroke="#000000" stroke-width="0" stroke-linejoin="round" stroke-miterlimit="10" fill="#0000BF" fill-rule="evenodd"/><rect x="2845" y="411" width="56" height="16.9998" fill="#0000BF"/><rect x="2845" y="425" width="56" height="3.00009" fill="#0000AD"/><rect x="2853" y="406" width="39.9998" height="27.0002" fill="#0000BF"/><rect x="2853" y="406" width="39.9998" height="5.00015" fill="#0000AD"/><rect x="2853" y="423" width="39.9998" height="9.99997" fill="#0000AD"/><rect x="2869.5" y="401.5" width="8" height="5.00015" stroke="#000000" stroke-width="0" stroke-miterlimit="8" fill="#B2B2B2"/><path d="M2868.5 396.5 2913.36 396.5 2915.07 396.796 2917.07 397.389 2917.93 398.574 2918.5 400.648 2918.5 401.833 2917.93 403.019 2917.07 403.611 2915.07 404.204 2913.36 404.5 2868.5 404.5 2866.5 404.204 2865.36 403.611 2864.79 403.019 2864.5 401.833 2864.5 400.648 2864.79 398.574 2865.36 397.389 2866.5 396.796 2868.5 396.5Z" stroke="#000000" stroke-width="0" stroke-linejoin="round" stroke-miterlimit="10" fill="#F0F0F0" fill-rule="evenodd"/><rect x="2878.5" y="396.5" width="34" height="8.00027" stroke="#000000" stroke-width="0" stroke-miterlimit="8" fill="#FF0000"/><rect x="2853.5" y="406.5" width="39.9998" height="26.9998" stroke="#000000" stroke-width="0" stroke-miterlimit="8" fill="none"/></g></svg>