<svg width="645" height="445" xmlns="http://www.w3.org/2000/svg" xmlns:xlink="http://www.w3.org/1999/xlink" overflow="hidden"><defs><clipPath id="clip0"><rect x="158" y="150" width="645" height="445"/></clipPath></defs><g clip-path="url(#clip0)" transform="translate(-158 -150)"><path d="M778 557.844 575.768 279.714 534.519 264.533 486.683 223 347.756 336.715 247.213 336.715 248.358 435.822 221.432 435.822 220 563 778 557.844Z" fill="#F0F0F0" fill-rule="evenodd"/><path d="M223.243 426.5 219.515 429.103 215.5 434.021 215.5 495.343 220.949 496.5 224.677 495.343 224.677 440.674 225.824 436.913 229.553 435.756 521.5 435.756 521.5 426.5 223.243 426.5Z" stroke="#000000" stroke-width="0" stroke-linejoin="round" stroke-miterlimit="10" fill="#0000BF" fill-rule="evenodd"/><path d="M249.238 330.5 244.366 332.793 241.5 338.241 241.5 495.353 245.512 496.5 250.671 495.353 250.671 343.401 251.817 340.821 254.397 339.388 521.5 339.388 521.5 330.5 249.238 330.5Z" stroke="#000000" stroke-width="0" stroke-linejoin="round" stroke-miterlimit="10" fill="#0000BF" fill-rule="evenodd"/><rect x="261.5" y="425.5" width="49.9998" height="14.9998" stroke="#000000" stroke-width="0" stroke-miterlimit="8" fill="#0000BF"/><rect x="267.5" y="420.5" width="36.0001" height="23" stroke="#000000" stroke-width="0" stroke-miterlimit="8" fill="#0000BF"/><rect x="283.5" y="416.5" width="5.99985" height="3.99976" stroke="#000000" stroke-width="0" stroke-miterlimit="8" fill="#B2B2B2"/><path d="M282.44 411.5 321.841 411.5 323.249 411.818 324.374 412.136 325.219 413.409 325.5 414.364 325.5 417.227 325.219 417.863 324.374 418.182 323.249 418.5 321.841 418.5 282.44 418.5 280.751 418.5 279.344 418.182 278.781 417.863 278.5 417.227 278.5 414.364 278.781 413.409 279.344 412.136 280.751 411.818 282.44 411.5Z" stroke="#000000" stroke-width="0" stroke-linejoin="round" stroke-miterlimit="10" fill="#F0F0F0" fill-rule="evenodd"/><rect x="291.5" y="411.5" width="29.9999" height="6.99988" stroke="#000000" stroke-width="0" stroke-miterlimit="8" fill="#FF0000"/><rect x="176.5" y="556.5" width="599" height="20.9999" stroke="#000000" stroke-width="0" stroke-miterlimit="8" fill="#FF6600"/><path d="M784.5 536.5 775.5 556.857 775.5 577.5 784.5 556.857 784.5 536.5Z" stroke="#000000" stroke-width="0" stroke-linejoin="round" stroke-miterlimit="10" fill="#00B050" fill-rule="evenodd"/><path d="M176.5 556.5 775.626 556.5 784.5 536.5 197.11 536.5 176.5 556.5Z" stroke="#000000" stroke-width="0" stroke-linejoin="round" stroke-miterlimit="10" fill="#FF6600" fill-rule="evenodd"/><path d="M743 175 740.135 175 710.631 178.733 694.017 179.881 675.684 179.881 653.914 181.317 610.086 181.317 589.176 179.881 569.983 179.881 540.192 177.584 521 175 521 541.396 540.192 543.693 569.983 546.564 588.03 546.564 610.086 548 653.914 548 675.684 546.564 694.017 546.564 723.521 543.693 740.135 542.544 743 539.96 743 175Z" fill="#00B050" fill-rule="evenodd"/><path d="M632.357 168.5 654.414 168.5 676.184 168.5 694.517 169.643 724.021 170.786 743.5 175.071 734.334 178.786 711.131 179.929 694.517 181.071 676.184 181.071 654.414 182.5 610.586 182.5 588.53 181.071 553.583 179.929 530.666 178.786 521.5 175.071 524.078 173.357 553.583 170.786 570.483 169.643 588.53 168.5 632.357 168.5Z" stroke="#000000" stroke-width="0" stroke-linejoin="round" stroke-miterlimit="10" fill="#00B050" fill-rule="evenodd"/><path d="M524.5 177.5 531.089 176.167 541.116 174.833 554.007 174.833 570.91 172.833 588.958 171.5 611.017 171.5 632.789 171.5 654.848 171.5 676.62 171.5 694.955 172.833 711.571 174.833 724.462 174.833 734.776 176.167 738.5 177.5" stroke="#000000" stroke-width="0" stroke-linejoin="round" stroke-miterlimit="10" fill="#00B050" fill-rule="evenodd"/><path d="M739 176.149 710.89 178.733 694.253 179.881 675.895 179.881 654.095 181.317 610.208 181.317 589.269 179.881 570.05 179.881 540.219 177.584 523.582 175 521 175 521 541.396 540.219 543.693 570.05 546.564 588.121 546.564 610.208 548 654.095 548 675.895 546.564 694.253 546.564 723.797 543.693 739 542.544 739 176.149Z" fill="#00B050" fill-rule="evenodd"/><path d="M731 177.584 711.491 178.733 694.851 179.881 676.49 179.881 654.686 181.317 610.79 181.317 589.847 179.881 570.625 179.881 540.787 177.584 524.147 175 523 175 523 541.396 524.147 542.544 553.698 545.129 588.699 546.564 610.79 548 654.686 548 676.49 546.564 694.851 546.564 724.401 543.693 731 543.693 731 177.584Z" fill="#00B050" fill-rule="evenodd"/><path d="M721 179.578 694.182 180.724 675.923 180.724 654.241 182.157 610.591 182.157 589.765 180.724 570.65 180.724 540.979 178.432 530.994 177 527 177 527 542.557 553.818 545.135 588.623 546.568 610.591 548 654.241 548 675.923 546.568 694.182 546.568 721 545.135 721 179.578Z" fill="#00B050" fill-rule="evenodd"/><path d="M721 179.578 694.182 180.724 675.923 180.724 654.241 182.157 610.591 182.157 589.765 180.724 570.65 180.724 540.979 178.432 530.994 177 527 177 527 542.557 553.818 545.135 588.623 546.568 610.591 548 654.241 548 675.923 546.568 694.182 546.568 721 545.135 721 179.578Z" fill="#00B050" fill-rule="evenodd"/><path d="M721 179.578 694.182 180.724 675.923 180.724 654.241 182.157 610.591 182.157 589.765 180.724 570.65 180.724 540.979 178.432 530.994 177 527 177 527 542.557 553.818 545.135 588.623 546.568 610.591 548 654.241 548 675.923 546.568 694.182 546.568 721 545.135 721 179.578Z" fill="#00B050" fill-rule="evenodd"/><path d="M721 179.578 694.182 180.724 675.923 180.724 654.241 182.157 610.591 182.157 589.765 180.724 570.65 180.724 540.979 178.432 530.994 177 527 177 527 542.557 553.818 545.135 588.623 546.568 610.591 548 654.241 548 675.923 546.568 694.182 546.568 721 545.135 721 179.578Z" fill="#00B050" fill-rule="evenodd"/><path d="M711 179.147 694.428 180.295 676.143 180.295 654.429 181.729 632.429 181.729 610.714 181.729 589.857 180.295 570.714 180.295 553.857 179.147 541 178 531 178 531 543.698 541 543.698 553.857 545.132 570.714 546.566 588.714 546.566 610.714 548 632.429 548 654.429 548 676.143 546.566 694.428 546.566 711 545.132 711 179.147Z" fill="#00B050" fill-rule="evenodd"/><path d="M702 180.295 694.578 180.295 676.308 180.295 654.612 181.729 632.631 181.729 610.935 181.729 590.096 180.295 570.969 180.295 554.126 179.147 541.28 178 535 178 535 543.698 541.28 543.698 554.126 545.132 570.969 546.566 590.096 546.566 610.935 548 632.631 548 654.612 548 676.308 546.566 694.578 546.566 702 546.566 702 180.295Z" fill="#00B050" fill-rule="evenodd"/><path d="M693 180.295 676.096 180.295 654.322 181.729 632.261 181.729 610.486 181.729 589.571 180.295 570.375 180.295 553.471 179.147 540.578 178 538 178 538 543.698 540.578 543.698 553.471 545.132 570.375 546.566 589.571 546.566 610.486 548 632.261 548 654.322 548 676.096 546.566 693 546.566 693 180.295Z" fill="#00B050" fill-rule="evenodd"/><path d="M684 180.148 676.255 180.148 654.453 181.583 632.364 181.583 610.562 181.583 589.62 180.148 570.4 180.148 553.475 179 542 179 542 545.131 553.475 545.131 570.4 546.565 589.62 546.565 610.562 548 632.364 548 654.453 548 676.255 546.565 684 546.565 684 180.148Z" fill="#00B050" fill-rule="evenodd"/><path d="M675 180.148 654.36 181.583 632.287 181.583 610.5 181.583 589.573 180.148 570.367 180.148 553.453 179 546 179 546 545.131 553.453 545.131 570.367 546.565 589.573 546.565 610.5 548 632.287 548 654.36 548 675 546.565 675 180.148Z" fill="#00B050" fill-rule="evenodd"/><path d="M666 180.148 654.444 181.583 632.2 181.583 610.244 181.583 589.155 180.148 569.8 180.148 552.755 179 549 179 549 545.131 552.755 545.131 569.8 546.565 589.155 546.565 610.244 548 632.2 548 654.444 548 666 548 666 180.148Z" fill="#00B050" fill-rule="evenodd"/><path d="M655 181.583 653.575 181.583 631.638 181.583 609.986 181.583 589.188 180.148 570.1 180.148 555 179 555 545.131 570.1 546.565 589.188 546.565 609.986 548 631.638 548 653.575 548 655 548 655 181.583Z" fill="#00B050" fill-rule="evenodd"/><path d="M646 181.583 631.784 181.583 610.176 181.583 589.422 180.148 570.372 180.148 559 179 559 546.565 570.372 546.565 589.422 546.565 610.176 548 631.784 548 646 548 646 181.583Z" fill="#00B050" fill-rule="evenodd"/><path d="M638 182.432 632.828 182.432 610.989 182.432 590.012 181 570.759 181 563 181 563 546.569 570.759 546.569 590.012 546.569 610.989 548 632.828 548 638 548 638 182.432Z" fill="#00B050" fill-rule="evenodd"/><path d="M629 182.432 611.204 182.432 590.25 181 571.018 181 567 181 567 546.569 571.018 546.569 589.102 546.569 611.204 548 629 548 629 182.432Z" fill="#00B050" fill-rule="evenodd"/><path d="M619 182.432 610.298 182.432 589.807 181 571 181 571 546.569 588.684 546.569 610.298 548 619 548 619 182.432Z" fill="#00B050" fill-rule="evenodd"/><path d="M610 182.432 589.143 181 574 181 574 546.569 588 546.569 610 548 610 182.432Z" fill="#00B050" fill-rule="evenodd"/><path d="M600 182.432 589.579 181 578 181 578 546.569 588.421 546.569 600 548 600 182.432Z" fill="#00B050" fill-rule="evenodd"/><path d="M591 181 589.548 181 582 181 582 547 589.548 547 591 547 591 181Z" fill="#00B050" fill-rule="evenodd"/><path d="M743.5 175.5 740.635 175.5 711.131 179.233 694.517 180.382 676.184 180.382 654.414 181.817 610.586 181.817 589.675 180.382 570.483 180.382 540.692 178.084 521.5 175.5 521.5 541.896 540.692 544.193 570.483 547.064 588.53 547.064 610.586 548.5 654.414 548.5 676.184 547.064 694.517 547.064 724.021 544.193 740.635 543.044 743.5 540.46 743.5 175.5" stroke="#000000" stroke-width="0" stroke-linejoin="round" stroke-miterlimit="10" fill="#00B050" fill-rule="evenodd"/><rect x="473.5" y="373.5" width="7.00024" height="169" stroke="#000000" stroke-width="0" stroke-miterlimit="8" fill="#E0E0E0"/><path d="M342.221 220.5 490.5 220.5 490.5 367.796 484.202 371.5 338.5 225.913 342.221 220.5Z" stroke="#000000" stroke-width="0" stroke-linejoin="round" stroke-miterlimit="10" fill="#CCCCCC" fill-rule="evenodd"/><rect x="337.5" y="225.5" width="148" height="148" stroke="#000000" stroke-width="0" stroke-miterlimit="8" fill="#E0E0E0"/><rect x="346.5" y="233.5" width="74.9999" height="74.9999" stroke="#000000" stroke-width="0" stroke-miterlimit="8" fill="#FFFFFF"/><rect x="442" y="233" width="32" height="25.9998"/><rect x="397" y="271" width="4.99982" height="5.00015"/><rect x="397" y="260" width="4.99982" height="6.00018"/><rect x="397" y="250" width="4.99982" height="6.00018"/><rect x="397" y="241" width="4.99982" height="4.00014"/><rect x="374" y="271" width="5.00015" height="5.00015"/><rect x="374" y="260" width="5.00015" height="6.00018"/><rect x="374" y="250" width="5.00015" height="6.00018"/><rect x="374" y="241" width="5.00015" height="4.00014"/><rect x="352" y="271" width="4.00012" height="5.00015"/><rect x="352" y="260" width="4.00012" height="6.00018"/><rect x="352" y="250" width="4.00012" height="6.00018"/><rect x="352" y="241" width="4.00012" height="4.00014"/><rect x="342.5" y="373.5" width="8.00027" height="167" stroke="#000000" stroke-width="0" stroke-miterlimit="8" fill="#E0E0E0"/><rect x="321" y="495" width="33" height="45.0001" fill="#B2B2B2"/><rect x="321" y="536" width="33" height="2.00006"/><rect x="321" y="529" width="33" height="2.00006"/><rect x="321" y="523" width="33" height="1.00006"/><rect x="321" y="517" width="33" height="1.00006"/><rect x="321" y="511" width="33" height="0.999664"/><rect x="321" y="504" width="33" height="1.00003"/><rect x="328" y="497" width="22" height="2.00006"/><rect x="229" y="547" width="19.9999" height="1.00006"/><rect x="293" y="547" width="21" height="1.00006"/><rect x="209" y="488" width="114" height="58.9998" fill="#7F7F7F"/><rect x="211" y="489" width="110" height="50.9998" fill="#B2B2B2"/><path d="M290.649 532.5 293.234 532.5 293.234 548.214 313.915 548.214 313.915 532.5 315.351 532.5 315.351 548.214 316.5 548.214 316.5 550.5 289.5 550.5 289.5 548.214 290.649 548.214 290.649 532.5Z" stroke="#000000" stroke-width="0" stroke-linejoin="round" stroke-miterlimit="10" fill="#7F7F7F" fill-rule="evenodd"/><path d="M226.649 532.5 229.234 532.5 229.234 548.214 249.915 548.214 249.915 532.5 251.351 532.5 251.351 548.214 252.5 548.214 252.5 550.5 225.5 550.5 225.5 548.214 226.649 548.214 226.649 532.5Z" stroke="#000000" stroke-width="0" stroke-linejoin="round" stroke-miterlimit="10" fill="#7F7F7F" fill-rule="evenodd"/><rect x="211" y="493" width="110" height="41.9999" fill="#CCCCCC"/><rect x="211" y="493" width="110" height="31.9999" fill="#E5E5E5"/><rect x="211" y="496" width="110" height="11" fill="#F0F0F0"/><path d="M342.39 474.5 336.081 477.055 333.5 483.302 333.5 496.08 338.662 497.5 343.537 496.08 343.537 489.833 345.258 486.142 347.839 484.722 524.5 484.722 524.5 474.5 342.39 474.5Z" stroke="#000000" stroke-width="0" stroke-linejoin="round" stroke-miterlimit="10" fill="#0000BF" fill-rule="evenodd"/><rect x="383" y="472" width="57.0001" height="16.0002" fill="#0000BF"/><rect x="383" y="486" width="57.0001" height="2.00006" fill="#0000AD"/><rect x="391" y="466" width="40.0002" height="26.9998" fill="#0000BF"/><rect x="391" y="466" width="40.0002" height="5.99985" fill="#0000AD"/><rect x="391" y="483" width="40.0002" height="9.99997" fill="#0000AD"/><rect x="408.5" y="461.5" width="7.00024" height="4.99982" stroke="#000000" stroke-width="0" stroke-miterlimit="8" fill="#B2B2B2"/><path d="M407.5 456.5 452.357 456.5 454.071 456.796 456.071 457.389 456.929 458.574 457.5 460.648 457.5 461.833 456.929 463.018 456.071 463.611 454.071 464.204 452.357 464.5 407.5 464.5 405.5 464.204 404.357 463.611 403.786 463.018 403.5 461.833 403.5 460.648 403.786 458.574 404.357 457.389 405.5 456.796 407.5 456.5Z" stroke="#000000" stroke-width="0" stroke-linejoin="round" stroke-miterlimit="10" fill="#F0F0F0" fill-rule="evenodd"/><rect x="417.5" y="456.5" width="33" height="7.99991" stroke="#000000" stroke-width="0" stroke-miterlimit="8" fill="#FF0000"/><rect x="391.5" y="466.5" width="39.9999" height="27.0002" stroke="#000000" stroke-width="0" stroke-miterlimit="8" fill="none"/></g></svg>