<svg width="645" height="445" xmlns="http://www.w3.org/2000/svg" xmlns:xlink="http://www.w3.org/1999/xlink" overflow="hidden"><defs><clipPath id="clip0"><rect x="1107" y="116" width="645" height="445"/></clipPath></defs><g clip-path="url(#clip0)" transform="translate(-1107 -116)"><path d="M1727 523.844 1524.77 245.714 1483.52 230.533 1435.68 189 1296.76 302.715 1196.21 302.715 1197.36 401.822 1170.43 401.822 1169 529 1727 523.844Z" fill="#F0F0F0" fill-rule="evenodd"/><path d="M1173.24 392.5 1169.52 395.103 1165.5 400.021 1165.5 461.343 1170.95 462.5 1174.68 461.343 1174.68 406.674 1175.82 402.913 1179.55 401.756 1471.5 401.756 1471.5 392.5 1173.24 392.5Z" stroke="#000000" stroke-width="0" stroke-linejoin="round" stroke-miterlimit="10" fill="#0000BF" fill-rule="evenodd"/><path d="M1199.24 296.5 1194.37 298.794 1191.5 304.241 1191.5 461.353 1195.51 462.5 1200.67 461.353 1200.67 309.402 1201.82 306.821 1204.4 305.388 1471.5 305.388 1471.5 296.5 1199.24 296.5Z" stroke="#000000" stroke-width="0" stroke-linejoin="round" stroke-miterlimit="10" fill="#0000BF" fill-rule="evenodd"/><rect x="1210.5" y="391.5" width="50.0002" height="14.0001" stroke="#000000" stroke-width="0" stroke-miterlimit="8" fill="#0000BF"/><rect x="1216.5" y="386.5" width="36.0001" height="23" stroke="#000000" stroke-width="0" stroke-miterlimit="8" fill="#0000BF"/><rect x="1232.5" y="382.5" width="7.00024" height="3.99976" stroke="#000000" stroke-width="0" stroke-miterlimit="8" fill="#B2B2B2"/><path d="M1231.52 377.5 1271.76 377.5 1273.2 377.818 1274.35 378.136 1275.21 379.409 1275.5 380.364 1275.5 383.227 1275.21 383.864 1274.35 384.182 1273.2 384.5 1271.76 384.5 1231.52 384.5 1229.8 384.5 1228.36 384.182 1227.79 383.864 1227.5 383.227 1227.5 380.364 1227.79 379.409 1228.36 378.136 1229.8 377.818 1231.52 377.5Z" stroke="#000000" stroke-width="0" stroke-linejoin="round" stroke-miterlimit="10" fill="#F0F0F0" fill-rule="evenodd"/><rect x="1240.5" y="377.5" width="30.9999" height="7.00024" stroke="#000000" stroke-width="0" stroke-miterlimit="8" fill="#FF0000"/><rect x="1125.5" y="522.5" width="600" height="20.9999" stroke="#000000" stroke-width="0" stroke-miterlimit="8" fill="#FF6600"/><path d="M1734.5 502.5 1725.5 522.857 1725.5 543.5 1734.5 522.857 1734.5 502.5Z" stroke="#000000" stroke-width="0" stroke-linejoin="round" stroke-miterlimit="10" fill="#FF0000" fill-rule="evenodd"/><path d="M1125.5 522.5 1725.61 522.5 1734.5 502.5 1146.14 502.5 1125.5 522.5Z" stroke="#000000" stroke-width="0" stroke-linejoin="round" stroke-miterlimit="10" fill="#FF6600" fill-rule="evenodd"/><path d="M1692 141 1689.15 141 1659.78 144.733 1643.24 145.881 1624.99 145.881 1603.31 147.317 1559.69 147.317 1538.87 145.881 1519.76 145.881 1490.11 143.584 1471 141 1471 507.396 1490.11 509.693 1519.76 512.564 1537.73 512.564 1559.69 514 1603.31 514 1624.99 512.564 1643.24 512.564 1672.61 509.693 1689.15 508.544 1692 505.96 1692 141Z" fill="#FF0000" fill-rule="evenodd"/><path d="M1581.86 134.5 1603.81 134.5 1625.49 134.5 1643.74 135.643 1673.11 136.786 1692.5 141.071 1683.38 144.786 1660.28 145.929 1643.74 147.071 1625.49 147.071 1603.81 148.5 1560.19 148.5 1538.23 147.071 1503.44 145.929 1480.63 144.786 1471.5 141.071 1474.07 139.357 1503.44 136.786 1520.26 135.643 1538.23 134.5 1581.86 134.5Z" stroke="#000000" stroke-width="0" stroke-linejoin="round" stroke-miterlimit="10" fill="#FF0000" fill-rule="evenodd"/><path d="M1474.5 143.5 1481.06 142.167 1491.04 140.833 1503.87 140.833 1520.69 138.833 1538.66 137.5 1560.61 137.5 1582.28 137.5 1604.24 137.5 1625.91 137.5 1644.16 138.833 1660.7 140.833 1673.53 140.833 1683.79 142.167 1687.5 143.5" stroke="#000000" stroke-width="0" stroke-linejoin="round" stroke-miterlimit="10" fill="#FF0000" fill-rule="evenodd"/><path d="M1688 142.149 1660.02 144.733 1643.46 145.881 1625.18 145.881 1603.48 147.317 1559.8 147.317 1538.96 145.881 1519.82 145.881 1490.13 143.584 1473.57 141 1471 141 1471 507.396 1490.13 509.693 1519.82 512.564 1537.81 512.564 1559.8 514 1603.48 514 1625.18 512.564 1643.46 512.564 1672.87 509.693 1688 508.544 1688 142.149Z" fill="#FF0000" fill-rule="evenodd"/><path d="M1680 143.584 1660.49 144.733 1643.85 145.881 1625.49 145.881 1603.69 147.317 1559.79 147.317 1538.85 145.881 1519.62 145.881 1489.79 143.584 1473.15 141 1472 141 1472 507.396 1473.15 508.544 1502.7 511.128 1537.7 512.564 1559.79 514 1603.69 514 1625.49 512.564 1643.85 512.564 1673.4 509.693 1680 509.693 1680 143.584Z" fill="#FF0000" fill-rule="evenodd"/><path d="M1671 145.578 1644.04 146.724 1625.69 146.724 1603.9 148.157 1560.02 148.157 1539.09 146.724 1519.88 146.724 1490.05 144.432 1480.01 143 1476 143 1476 508.557 1502.96 511.135 1537.94 512.568 1560.02 514 1603.9 514 1625.69 512.568 1644.04 512.568 1671 511.135 1671 145.578Z" fill="#FF0000" fill-rule="evenodd"/><path d="M1671 145.578 1644.04 146.724 1625.69 146.724 1603.9 148.157 1560.02 148.157 1539.09 146.724 1519.88 146.724 1490.05 144.432 1480.01 143 1476 143 1476 508.557 1502.96 511.135 1537.94 512.568 1560.02 514 1603.9 514 1625.69 512.568 1644.04 512.568 1671 511.135 1671 145.578Z" fill="#FF0000" fill-rule="evenodd"/><path d="M1671 145.578 1644.04 146.724 1625.69 146.724 1603.9 148.157 1560.02 148.157 1539.09 146.724 1519.88 146.724 1490.05 144.432 1480.01 143 1476 143 1476 508.557 1502.96 511.135 1537.94 512.568 1560.02 514 1603.9 514 1625.69 512.568 1644.04 512.568 1671 511.135 1671 145.578Z" fill="#FF0000" fill-rule="evenodd"/><path d="M1671 145.578 1644.04 146.724 1625.69 146.724 1603.9 148.157 1560.02 148.157 1539.09 146.724 1519.88 146.724 1490.05 144.432 1480.01 143 1476 143 1476 508.557 1502.96 511.135 1537.94 512.568 1560.02 514 1603.9 514 1625.69 512.568 1644.04 512.568 1671 511.135 1671 145.578Z" fill="#FF0000" fill-rule="evenodd"/><path d="M1660 145.147 1643.43 146.295 1625.14 146.295 1603.43 147.729 1581.43 147.729 1559.71 147.729 1538.86 146.295 1519.71 146.295 1502.86 145.147 1490 144 1480 144 1480 509.698 1490 509.698 1502.86 511.132 1519.71 512.566 1537.71 512.566 1559.71 514 1581.43 514 1603.43 514 1625.14 512.566 1643.43 512.566 1660 511.132 1660 145.147Z" fill="#FF0000" fill-rule="evenodd"/><path d="M1651 146.295 1643.58 146.295 1625.31 146.295 1603.61 147.729 1581.63 147.729 1559.94 147.729 1539.1 146.295 1519.97 146.295 1503.13 145.147 1490.28 144 1484 144 1484 509.698 1490.28 509.698 1503.13 511.132 1519.97 512.566 1539.1 512.566 1559.94 514 1581.63 514 1603.61 514 1625.31 512.566 1643.58 512.566 1651 512.566 1651 146.295Z" fill="#FF0000" fill-rule="evenodd"/><path d="M1643 146.295 1625.99 146.295 1604.07 147.729 1581.87 147.729 1559.95 147.729 1538.9 146.295 1519.58 146.295 1502.57 145.147 1489.6 144 1487 144 1487 509.698 1489.6 509.698 1502.57 511.132 1519.58 512.566 1538.9 512.566 1559.95 514 1581.87 514 1604.07 514 1625.99 512.566 1643 512.566 1643 146.295Z" fill="#FF0000" fill-rule="evenodd"/><path d="M1633 146.148 1625.25 146.148 1603.45 147.582 1581.36 147.582 1559.56 147.582 1538.62 146.148 1519.4 146.148 1502.47 145 1491 145 1491 511.131 1502.47 511.131 1519.4 512.565 1538.62 512.565 1559.56 514 1581.36 514 1603.45 514 1625.25 512.565 1633 512.565 1633 146.148Z" fill="#FF0000" fill-rule="evenodd"/><path d="M1624 146.148 1603.36 147.582 1581.29 147.582 1559.5 147.582 1538.57 146.148 1519.37 146.148 1502.45 145 1495 145 1495 511.131 1502.45 511.131 1519.37 512.565 1538.57 512.565 1559.5 514 1581.29 514 1603.36 514 1624 512.565 1624 146.148Z" fill="#FF0000" fill-rule="evenodd"/><path d="M1615 146.148 1603.54 147.582 1581.49 147.582 1559.72 147.582 1538.81 146.148 1519.62 146.148 1502.72 145 1499 145 1499 511.131 1502.72 511.131 1519.62 512.565 1538.81 512.565 1559.72 514 1581.49 514 1603.54 514 1615 514 1615 146.148Z" fill="#FF0000" fill-rule="evenodd"/><path d="M1605 147.582 1603.58 147.582 1581.64 147.582 1559.99 147.582 1539.19 146.148 1520.1 146.148 1505 145 1505 511.131 1520.1 512.565 1539.19 512.565 1559.99 514 1581.64 514 1603.58 514 1605 514 1605 147.582Z" fill="#FF0000" fill-rule="evenodd"/><path d="M1596 147.582 1581.62 147.582 1559.76 147.582 1538.77 146.148 1519.5 146.148 1508 145 1508 512.565 1519.5 512.565 1538.77 512.565 1559.76 514 1581.62 514 1596 514 1596 147.582Z" fill="#FF0000" fill-rule="evenodd"/><path d="M1587 147.435 1581.83 147.435 1559.99 147.435 1539.01 146 1519.76 146 1512 146 1512 512.565 1519.76 512.565 1539.01 512.565 1559.99 514 1581.83 514 1587 514 1587 147.435Z" fill="#FF0000" fill-rule="evenodd"/><path d="M1578 147.435 1560.2 147.435 1539.25 146 1520.02 146 1516 146 1516 512.565 1520.02 512.565 1538.1 512.565 1560.2 514 1578 514 1578 147.435Z" fill="#FF0000" fill-rule="evenodd"/><path d="M1569 147.435 1560.12 147.435 1539.2 146 1520 146 1520 512.565 1538.05 512.565 1560.12 514 1569 514 1569 147.435Z" fill="#FF0000" fill-rule="evenodd"/><path d="M1560 147.435 1538.56 146 1523 146 1523 512.565 1537.39 512.565 1560 514 1560 147.435Z" fill="#FF0000" fill-rule="evenodd"/><path d="M1549 147.435 1538.58 146 1527 146 1527 512.565 1537.42 512.565 1549 514 1549 147.435Z" fill="#FF0000" fill-rule="evenodd"/><path d="M1540 146 1538.55 146 1531 146 1531 513 1538.55 513 1540 513 1540 146Z" fill="#FF0000" fill-rule="evenodd"/><path d="M1692.5 141.5 1689.65 141.5 1660.28 145.233 1643.74 146.382 1625.49 146.382 1603.81 147.817 1560.19 147.817 1539.37 146.382 1520.26 146.382 1490.61 144.084 1471.5 141.5 1471.5 507.896 1490.61 510.193 1520.26 513.064 1538.23 513.064 1560.19 514.5 1603.81 514.5 1625.49 513.064 1643.74 513.064 1673.11 510.193 1689.65 509.044 1692.5 506.46 1692.5 141.5" stroke="#000000" stroke-width="0" stroke-linejoin="round" stroke-miterlimit="10" fill="#FF0000" fill-rule="evenodd"/><rect x="1422.5" y="338.5" width="7.00024" height="170" stroke="#000000" stroke-width="0" stroke-miterlimit="8" fill="#E0E0E0"/><path d="M1291.25 185.5 1440.5 185.5 1440.5 333.772 1434.16 337.5 1287.5 190.949 1291.25 185.5Z" stroke="#000000" stroke-width="0" stroke-linejoin="round" stroke-miterlimit="10" fill="#CCCCCC" fill-rule="evenodd"/><rect x="1286.5" y="191.5" width="149" height="147" stroke="#000000" stroke-width="0" stroke-miterlimit="8" fill="#E0E0E0"/><rect x="1295.5" y="199.5" width="74.9999" height="75.0003" stroke="#000000" stroke-width="0" stroke-miterlimit="8" fill="#FFFFFF"/><rect x="1392" y="199" width="31.0002" height="26.0001"/><rect x="1346" y="236" width="4.99976" height="5.99983"/><rect x="1346" y="226" width="4.99976" height="6.0002"/><rect x="1346" y="216" width="4.99976" height="6.0002"/><rect x="1346" y="207" width="4.99976" height="4.00014"/><rect x="1323" y="236" width="5.99988" height="5.99983"/><rect x="1323" y="226" width="5.99988" height="6.0002"/><rect x="1323" y="216" width="5.99988" height="6.0002"/><rect x="1323" y="207" width="5.99988" height="4.00014"/><rect x="1302" y="236" width="3.99976" height="5.99983"/><rect x="1302" y="226" width="3.99976" height="6.0002"/><rect x="1302" y="216" width="3.99976" height="6.0002"/><rect x="1302" y="207" width="3.99976" height="4.00014"/><rect x="1291.5" y="338.5" width="7.99988" height="168" stroke="#000000" stroke-width="0" stroke-miterlimit="8" fill="#E0E0E0"/><rect x="1271" y="460" width="32.0004" height="46.0001" fill="#B2B2B2"/><rect x="1271" y="502" width="32.0004" height="1.00003"/><rect x="1271" y="495" width="32.0004" height="2.00006"/><rect x="1271" y="489" width="32.0004" height="0.999664"/><rect x="1271" y="483" width="32.0004" height="1.00003"/><rect x="1271" y="476" width="32.0004" height="2.00006"/><rect x="1271" y="470" width="32.0004" height="1.00003"/><rect x="1277" y="463" width="22" height="1.00003"/><rect x="1178" y="513" width="21" height="1.00006"/><rect x="1242" y="513" width="21" height="1.00006"/><rect x="1158" y="454" width="114" height="58.9998" fill="#7F7F7F"/><rect x="1160" y="455" width="111" height="50.9999" fill="#B2B2B2"/><path d="M1240.65 498.5 1243.23 498.5 1243.23 514.214 1263.91 514.214 1263.91 498.5 1265.35 498.5 1265.35 514.214 1266.5 514.214 1266.5 516.5 1239.5 516.5 1239.5 514.214 1240.65 514.214 1240.65 498.5Z" stroke="#000000" stroke-width="0" stroke-linejoin="round" stroke-miterlimit="10" fill="#7F7F7F" fill-rule="evenodd"/><path d="M1175.65 498.5 1178.23 498.5 1178.23 514.214 1198.91 514.214 1198.91 498.5 1200.35 498.5 1200.35 514.214 1201.5 514.214 1201.5 516.5 1174.5 516.5 1174.5 514.214 1175.65 514.214 1175.65 498.5Z" stroke="#000000" stroke-width="0" stroke-linejoin="round" stroke-miterlimit="10" fill="#7F7F7F" fill-rule="evenodd"/><rect x="1160" y="459" width="111" height="41.9999" fill="#CCCCCC"/><rect x="1160" y="459" width="111" height="32" fill="#E5E5E5"/><rect x="1160" y="462" width="111" height="9.99997" fill="#F0F0F0"/><path d="M1292.39 440.5 1286.08 443.055 1283.5 449.302 1283.5 462.08 1288.66 463.5 1293.54 462.08 1293.54 455.833 1295.26 452.142 1297.84 450.722 1474.5 450.722 1474.5 440.5 1292.39 440.5Z" stroke="#000000" stroke-width="0" stroke-linejoin="round" stroke-miterlimit="10" fill="#0000BF" fill-rule="evenodd"/><rect x="1333" y="438" width="56" height="16.0002" fill="#0000BF"/><rect x="1333" y="452" width="56" height="2.00006" fill="#0000AD"/><rect x="1341" y="432" width="39.9999" height="26.9998" fill="#0000BF"/><rect x="1341" y="432" width="39.9999" height="5.99985" fill="#0000AD"/><rect x="1341" y="449" width="39.9999" height="9.99997" fill="#0000AD"/><rect x="1357.5" y="427.5" width="7.99988" height="4.99982" stroke="#000000" stroke-width="0" stroke-miterlimit="8" fill="#B2B2B2"/><path d="M1356.57 422.5 1402.26 422.5 1404.01 422.796 1406.05 423.389 1406.92 424.574 1407.5 426.648 1407.5 427.833 1406.92 429.018 1406.05 429.611 1404.01 430.204 1402.26 430.5 1356.57 430.5 1354.54 430.204 1353.37 429.611 1352.79 429.018 1352.5 427.833 1352.5 426.648 1352.79 424.574 1353.37 423.389 1354.54 422.796 1356.57 422.5Z" stroke="#000000" stroke-width="0" stroke-linejoin="round" stroke-miterlimit="10" fill="#F0F0F0" fill-rule="evenodd"/><rect x="1366.5" y="422.5" width="34" height="7.99991" stroke="#000000" stroke-width="0" stroke-miterlimit="8" fill="#FF0000"/><rect x="1341.5" y="432.5" width="39.9999" height="27.0002" stroke="#000000" stroke-width="0" stroke-miterlimit="8" fill="none"/></g></svg>