<svg width="448" height="613" xmlns="http://www.w3.org/2000/svg" xmlns:xlink="http://www.w3.org/1999/xlink" overflow="hidden"><defs><clipPath id="clip0"><rect x="1363" y="850" width="448" height="613"/></clipPath></defs><g clip-path="url(#clip0)" transform="translate(-1363 -850)"><path d="M1410.5 905.23C1472.35 890.987 1479.17 868.526 1603.93 862.5 1738.12 870.17 1732.35 890.987 1800.5 905.23L1800.5 1051.5 1410.5 1051.5 1410.5 905.23Z" stroke="#44546A" stroke-width="4.58333" stroke-miterlimit="8" fill="#FF0000" fill-rule="evenodd"/><path d="M1800.5 1051.5 1709.05 1099.5 1501.95 1099.5 1410.5 1051.5Z" stroke="#44546A" stroke-width="4.58333" stroke-miterlimit="8" fill="#FF0000" fill-rule="evenodd"/><rect x="1500.5" y="1099.5" width="33" height="332" stroke="#44546A" stroke-width="4.58333" stroke-miterlimit="8" fill="#FF0000"/><rect x="1678.5" y="1099.5" width="33" height="332" stroke="#44546A" stroke-width="4.58333" stroke-miterlimit="8" fill="#FF0000"/><rect x="1545.5" y="1099.5" width="33" height="332" stroke="#44546A" stroke-width="4.58333" stroke-miterlimit="8" fill="#FF0000"/><rect x="1633.5" y="1099.5" width="33" height="332" stroke="#44546A" stroke-width="4.58333" stroke-miterlimit="8" fill="#FF0000"/><rect x="1365.5" y="1431.5" width="371" height="29.0002" stroke="#44546A" stroke-width="4.58333" stroke-miterlimit="8" fill="#FF0000"/><rect x="1365.5" y="1021.5" width="435" height="29.9999" stroke="#44546A" stroke-width="4.58333" stroke-miterlimit="8" fill="#FF0000"/><rect x="1365.5" y="909.5" width="435" height="29.9999" stroke="#44546A" stroke-width="4.58333" stroke-miterlimit="8" fill="#FF0000"/><path d="M1374 1370 1446.64 1430.66" stroke="#44546A" stroke-width="13.75" stroke-miterlimit="8" fill="#FF0000" fill-rule="evenodd"/><path d="M0 0 72.6372 51.1976" stroke="#44546A" stroke-width="13.75" stroke-miterlimit="8" fill="#FF0000" fill-rule="evenodd" transform="matrix(1 0 0 -1 1373 1373.2)"/><path d="M1373 1264 1445.64 1324.66" stroke="#44546A" stroke-width="13.75" stroke-miterlimit="8" fill="#FF0000" fill-rule="evenodd"/><path d="M1373 1158 1445.64 1218.66" stroke="#44546A" stroke-width="13.75" stroke-miterlimit="8" fill="#FF0000" fill-rule="evenodd"/><path d="M0 0 72.6372 51.1976" stroke="#44546A" stroke-width="13.75" stroke-miterlimit="8" fill="#FF0000" fill-rule="evenodd" transform="matrix(1 0 0 -1 1373 1267.2)"/><path d="M1373 1050 1445.64 1110.66" stroke="#44546A" stroke-width="13.75" stroke-miterlimit="8" fill="#FF0000" fill-rule="evenodd"/><path d="M0 0 72.6372 51.1976" stroke="#44546A" stroke-width="13.75" stroke-miterlimit="8" fill="#FF0000" fill-rule="evenodd" transform="matrix(1 0 0 -1 1373 1159.2)"/><path d="M1373 1432.6 1373 1050" stroke="#44546A" stroke-width="13.75" stroke-miterlimit="8" fill="#FF0000" fill-rule="evenodd"/><path d="M1446 1050 1446 1434.63" stroke="#44546A" stroke-width="13.75" stroke-miterlimit="8" fill="#FF0000" fill-rule="evenodd"/><path d="M0 0 0.000360892 82.2441" stroke="#44546A" stroke-width="13.75" stroke-miterlimit="8" fill="#FF0000" fill-rule="evenodd" transform="matrix(1 0 0 -1 1373 1021.24)"/><path d="M1407 939 1407 1021.24" stroke="#44546A" stroke-width="13.75" stroke-miterlimit="8" fill="#FF0000" fill-rule="evenodd"/><path d="M0 0 36.3184 0.119094" stroke="#44546A" stroke-width="4.58333" stroke-miterlimit="8" fill="#FF0000" fill-rule="evenodd" transform="matrix(-1 0 0 1 1406.82 956.5)"/><path d="M0 0 36.3184 0.119094" stroke="#44546A" stroke-width="4.58333" stroke-miterlimit="8" fill="#FF0000" fill-rule="evenodd" transform="matrix(-1 0 0 1 1406.82 972.5)"/><path d="M0 0 36.3184 0.119094" stroke="#44546A" stroke-width="4.58333" stroke-miterlimit="8" fill="#FF0000" fill-rule="evenodd" transform="matrix(-1 0 0 1 1406.82 988.5)"/><path d="M0 0 36.3184 0.119094" stroke="#44546A" stroke-width="4.58333" stroke-miterlimit="8" fill="#FF0000" fill-rule="evenodd" transform="matrix(-1 0 0 1 1406.82 1005.5)"/><rect x="1523.5" y="852.5" width="165" height="25.0001" stroke="#44546A" stroke-width="4.58333" stroke-miterlimit="8" fill="#FF0000"/><rect x="1499.5" y="1198.5" width="212" height="19.9999" stroke="#44546A" stroke-width="4.58333" stroke-miterlimit="8" fill="#FF0000"/><rect x="1499.5" y="1302.5" width="212" height="21" stroke="#44546A" stroke-width="4.58333" stroke-miterlimit="8" fill="#FF0000"/></g></svg>