<svg width="448" height="613" xmlns="http://www.w3.org/2000/svg" xmlns:xlink="http://www.w3.org/1999/xlink" overflow="hidden"><defs><clipPath id="clip0"><rect x="2320" y="850" width="448" height="613"/></clipPath></defs><g clip-path="url(#clip0)" transform="translate(-2320 -850)"><path d="M2367.5 905.23C2429.35 890.987 2436.17 868.526 2560.93 862.5 2695.12 870.17 2689.35 890.987 2757.5 905.23L2757.5 1051.5 2367.5 1051.5 2367.5 905.23Z" stroke="#44546A" stroke-width="4.58333" stroke-miterlimit="8" fill="#19A3A5" fill-rule="evenodd"/><path d="M2757.5 1051.5 2666.05 1099.5 2458.95 1099.5 2367.5 1051.5Z" stroke="#44546A" stroke-width="4.58333" stroke-miterlimit="8" fill="#19A3A5" fill-rule="evenodd"/><rect x="2457.5" y="1099.5" width="33" height="332" stroke="#44546A" stroke-width="4.58333" stroke-miterlimit="8" fill="#19A3A5"/><rect x="2635.5" y="1099.5" width="33" height="332" stroke="#44546A" stroke-width="4.58333" stroke-miterlimit="8" fill="#19A3A5"/><rect x="2501.5" y="1099.5" width="33" height="332" stroke="#44546A" stroke-width="4.58333" stroke-miterlimit="8" fill="#19A3A5"/><rect x="2590.5" y="1099.5" width="33" height="332" stroke="#44546A" stroke-width="4.58333" stroke-miterlimit="8" fill="#19A3A5"/><rect x="2322.5" y="1431.5" width="370" height="29.0002" stroke="#44546A" stroke-width="4.58333" stroke-miterlimit="8" fill="#19A3A5"/><rect x="2322.5" y="1021.5" width="435" height="29.9999" stroke="#44546A" stroke-width="4.58333" stroke-miterlimit="8" fill="#19A3A5"/><rect x="2322.5" y="909.5" width="435" height="29.9999" stroke="#44546A" stroke-width="4.58333" stroke-miterlimit="8" fill="#19A3A5"/><path d="M2331 1370 2403.64 1430.66" stroke="#44546A" stroke-width="13.75" stroke-miterlimit="8" fill="#19A3A5" fill-rule="evenodd"/><path d="M0 0 72.6372 51.1976" stroke="#44546A" stroke-width="13.75" stroke-miterlimit="8" fill="#19A3A5" fill-rule="evenodd" transform="matrix(1 0 0 -1 2330 1373.2)"/><path d="M2330 1264 2402.64 1324.66" stroke="#44546A" stroke-width="13.75" stroke-miterlimit="8" fill="#19A3A5" fill-rule="evenodd"/><path d="M2330 1158 2402.64 1218.66" stroke="#44546A" stroke-width="13.75" stroke-miterlimit="8" fill="#19A3A5" fill-rule="evenodd"/><path d="M0 0 72.6372 51.1976" stroke="#44546A" stroke-width="13.75" stroke-miterlimit="8" fill="#19A3A5" fill-rule="evenodd" transform="matrix(1 0 0 -1 2330 1267.2)"/><path d="M2329 1050 2401.64 1110.66" stroke="#44546A" stroke-width="13.75" stroke-miterlimit="8" fill="#19A3A5" fill-rule="evenodd"/><path d="M0 0 72.6372 51.1976" stroke="#44546A" stroke-width="13.75" stroke-miterlimit="8" fill="#19A3A5" fill-rule="evenodd" transform="matrix(1 0 0 -1 2329 1159.2)"/><path d="M2330 1432.6 2330 1050" stroke="#44546A" stroke-width="13.75" stroke-miterlimit="8" fill="#19A3A5" fill-rule="evenodd"/><path d="M2403 1050 2403 1434.63" stroke="#44546A" stroke-width="13.75" stroke-miterlimit="8" fill="#19A3A5" fill-rule="evenodd"/><path d="M0 0 0.000360892 82.2441" stroke="#44546A" stroke-width="13.75" stroke-miterlimit="8" fill="#19A3A5" fill-rule="evenodd" transform="matrix(1 0 0 -1 2330 1021.24)"/><path d="M2363 939 2363 1021.24" stroke="#44546A" stroke-width="13.75" stroke-miterlimit="8" fill="#19A3A5" fill-rule="evenodd"/><path d="M0 0 36.3184 0.119094" stroke="#44546A" stroke-width="4.58333" stroke-miterlimit="8" fill="#19A3A5" fill-rule="evenodd" transform="matrix(-1 0 0 1 2363.82 956.5)"/><path d="M0 0 36.3184 0.119094" stroke="#44546A" stroke-width="4.58333" stroke-miterlimit="8" fill="#19A3A5" fill-rule="evenodd" transform="matrix(-1 0 0 1 2363.82 972.5)"/><path d="M0 0 36.3184 0.119094" stroke="#44546A" stroke-width="4.58333" stroke-miterlimit="8" fill="#19A3A5" fill-rule="evenodd" transform="matrix(-1 0 0 1 2363.82 988.5)"/><path d="M0 0 36.3184 0.119094" stroke="#44546A" stroke-width="4.58333" stroke-miterlimit="8" fill="#19A3A5" fill-rule="evenodd" transform="matrix(-1 0 0 1 2363.82 1005.5)"/><rect x="2479.5" y="852.5" width="166" height="25.0001" stroke="#44546A" stroke-width="4.58333" stroke-miterlimit="8" fill="#19A3A5"/><rect x="2456.5" y="1198.5" width="212" height="19.9999" stroke="#44546A" stroke-width="4.58333" stroke-miterlimit="8" fill="#19A3A5"/><rect x="2456.5" y="1302.5" width="212" height="21" stroke="#44546A" stroke-width="4.58333" stroke-miterlimit="8" fill="#19A3A5"/></g></svg>